#N canvas 297 406 658 330 10;
#X declare -lib mrpeach;
#N canvas 700 185 328 211 Tempo 0;
#X obj 206 99 metro;
#X msg 206 31 60000;
#X obj 206 65 /;
#X floatatom 112 131 5 0 0 0 - - -;
#X obj 276 -3 r osc1;
#X floatatom 276 65 5 0 0 0 - - -;
#X obj 206 166 s tempo;
#X obj 276 31 expr ($f1 * 400) + 100;
#X obj 109 104 tgl 15 0 empty empty empty 17 7 0 10 -262144 -1 -1 1
1;
#X connect 0 0 6 0;
#X connect 1 0 2 0;
#X connect 2 0 3 0;
#X connect 3 0 0 1;
#X connect 4 0 7 0;
#X connect 7 0 2 1;
#X connect 7 0 1 0;
#X connect 7 0 5 0;
#X connect 8 0 0 0;
#X coords 0 -1 1 1 85 60 1 100 100;
#X restore 153 38 pd Tempo;
#N canvas 1323 353 450 300 oscRcvr 0;
#X obj 106 51 import mrpeach;
#X obj 106 84 udpreceive 9001;
#X obj 106 117 unpackOSC;
#X obj 106 150 routeOSC /test;
#X obj 107 211 s osc1;
#X obj 109 180 * 2;
#X connect 1 0 2 0;
#X connect 2 0 3 0;
#X connect 3 0 5 0;
#X connect 5 0 4 0;
#X restore 78 16 pd oscRcvr;
#N canvas 790 58 792 722 gen 0;
#X obj 437 361 mtof~;
#X obj 562 376 osc~;
#X obj 563 428 *~;
#X floatatom 598 394 5 0 0 0 - - -;
#X obj 496 526 osc~;
#X obj 497 571 *~;
#X obj 653 417 vsl 15 128 0 1 0 0 empty empty empty 0 -9 0 10 -262144
-1 -1 0 1;
#X obj 504 663 dac~;
#X obj 631 321 *;
#X obj 294 61 counter 3;
#X obj 330 123 route 1 2 3;
#X obj 228 110 bng 15 250 50 0 empty empty empty 17 7 0 10 -262144
-1 -1;
#X msg 617 276 1500;
#X obj 644 152 r osc;
#X obj 114 65 r tempo;
#X obj 586 187 r osc1;
#X msg 378 242 48;
#X msg 460 238 55;
#X msg 497 227 57;
#X msg 423 239 51;
#X obj 310 473 phasor~;
#X obj 493 487 *~;
#X obj 303 416 osc~ 2;
#X obj 224 369 expr $f1 * 5;
#X connect 0 0 1 0;
#X connect 1 0 2 0;
#X connect 2 0 21 0;
#X connect 3 0 2 1;
#X connect 4 0 5 0;
#X connect 5 0 7 0;
#X connect 5 0 7 1;
#X connect 6 0 5 1;
#X connect 8 0 3 0;
#X connect 9 0 10 0;
#X connect 10 0 16 0;
#X connect 10 1 19 0;
#X connect 10 2 17 0;
#X connect 10 3 18 0;
#X connect 11 0 9 0;
#X connect 12 0 8 0;
#X connect 14 0 11 0;
#X connect 14 0 23 0;
#X connect 16 0 0 0;
#X connect 17 0 0 0;
#X connect 18 0 0 0;
#X connect 19 0 0 0;
#X connect 21 0 4 0;
#X connect 22 0 21 1;
#X connect 23 0 22 0;
#X restore 25 83 pd gen;
#N canvas 370 101 820 616 SequencerWind 0;
#X obj 106 172 hradio 20 1 0 16 empty empty empty 0 -8 0 10 -262144
-1 -1 5;
#X obj 29 87 r tempo;
#X obj 29 118 int;
#X obj 57 118 + 1;
#X obj 29 149 mod 16;
#X obj 304 332 r dataY;
#X obj 182 332 r dataX;
#N canvas 188 397 1088 846 arraylist 0;
#X restore 348 339 pd arraylist;
#N canvas 593 52 1173 921 instrumento 0;
#X obj 478 350 soundfiler;
#X floatatom 478 384 5 0 0 0 - - -;
#X obj 478 417 expr 44100 / $f1;
#X floatatom 478 451 5 0 0 0 - - -;
#X obj 478 484 *~;
#X obj 478 552 dac~;
#X obj 622 363 expr $f1 / 44100 * 1000;
#X floatatom 622 421 5 0 0 0 - - -;
#X obj 596 466 delay;
#X msg 553 455 0;
#N canvas 0 22 450 278 (subpatch) 0;
#X array Data2 13590 float 2;
#X coords 0 1 13590 -1 200 140 1 0 0;
#X restore 481 35 graph;
#X obj 452 243 loadbang;
#X obj 424 421 bng 15 250 50 0 empty empty empty 17 7 0 10 -262144
-1 -1;
#X msg 553 421 0;
#X obj 478 454 phasor~;
#X obj 478 518 tabread4~ Data2;
#X msg 478 316 read -resize \$1 Data2;
#X msg 478 282 open Muestras/Snare.wav;
#X obj 103 119 tgl 15 0 empty empty empty 17 7 0 10 -262144 -1 -1 1
1;
#X obj 125 119 tgl 15 0 empty empty empty 17 7 0 10 -262144 -1 -1 0
1;
#X obj 144 119 tgl 15 0 empty empty empty 17 7 0 10 -262144 -1 -1 1
1;
#X obj 163 119 tgl 15 0 empty empty empty 17 7 0 10 -262144 -1 -1 0
1;
#X obj 183 119 tgl 15 0 empty empty empty 17 7 0 10 -262144 -1 -1 1
1;
#X obj 204 119 tgl 15 0 empty empty empty 17 7 0 10 -262144 -1 -1 1
1;
#X obj 224 119 tgl 15 0 empty empty empty 17 7 0 10 -262144 -1 -1 1
1;
#X obj 243 119 tgl 15 0 empty empty empty 17 7 0 10 -262144 -1 -1 1
1;
#X obj 262 119 tgl 15 0 empty empty empty 17 7 0 10 -262144 -1 -1 1
1;
#X obj 283 119 tgl 15 0 empty empty empty 17 7 0 10 -262144 -1 -1 0
1;
#X obj 303 119 tgl 15 0 empty empty empty 17 7 0 10 -262144 -1 -1 0
1;
#X obj 322 119 tgl 15 0 empty empty empty 17 7 0 10 -262144 -1 -1 0
1;
#X obj 342 119 tgl 15 0 empty empty empty 17 7 0 10 -262144 -1 -1 1
1;
#X obj 363 119 tgl 15 0 empty empty empty 17 7 0 10 -262144 -1 -1 1
1;
#X obj 383 119 tgl 15 0 empty empty empty 17 7 0 10 -262144 -1 -1 1
1;
#X obj 402 119 tgl 15 0 empty empty empty 17 7 0 10 -262144 -1 -1 0
1;
#X msg 103 183 0;
#X msg 125 183 1;
#X msg 144 183 2;
#X msg 163 183 3;
#X msg 183 183 4;
#X msg 204 183 5;
#X msg 224 183 6;
#X msg 243 183 7;
#X msg 262 183 8;
#X msg 283 183 9;
#X msg 303 183 10;
#X msg 322 183 11;
#X msg 342 183 12;
#X msg 363 183 13;
#X msg 383 183 14;
#X msg 402 183 15;
#N canvas 0 22 450 278 (subpatch) 0;
#X array Instru1 16 float 3;
#A 0 1 0 1 0 1 1 1 1 1 0 0 0 1 1 1 0;
#X coords 0 0 16 1 200 140 1 0 0;
#X restore 79 351 graph;
#X obj 174 273 tabwrite Instru1;
#X obj 338 384 r samplenumber;
#X obj 349 421 tabread Instru1;
#X obj 351 461 spigot;
#X obj 167 -143 loadbang;
#X msg 52 -25 0;
#X msg 91 -25 1;
#X msg 127 -25 2;
#X msg 166 -25 3;
#X msg 196 -25 4;
#X msg 235 -25 5;
#X msg 271 -25 6;
#X msg 310 -25 7;
#X msg 336 -25 8;
#X msg 375 -25 9;
#X msg 411 -25 10;
#X msg 450 -25 11;
#X msg 480 -25 12;
#X msg 519 -25 13;
#X msg 555 -25 14;
#X msg 594 -25 15;
#X msg 167 -116 set Instru1;
#X obj 52 8 tabread;
#X obj 102 9 tabread;
#X obj 151 7 tabread;
#X obj 201 8 tabread;
#X obj 249 8 tabread;
#X obj 299 9 tabread;
#X obj 348 7 tabread;
#X obj 398 8 tabread;
#X obj 56 47 tabread;
#X obj 106 48 tabread;
#X obj 155 46 tabread;
#X obj 205 47 tabread;
#X obj 253 47 tabread;
#X obj 303 48 tabread;
#X obj 352 46 tabread;
#X obj 402 47 tabread;
#X obj 97 -87 t b;
#X connect 0 0 1 0;
#X connect 1 0 2 0;
#X connect 1 0 4 1;
#X connect 1 0 6 0;
#X connect 2 0 3 0;
#X connect 3 0 14 0;
#X connect 4 0 15 0;
#X connect 6 0 7 0;
#X connect 7 0 8 1;
#X connect 8 0 9 0;
#X connect 9 0 14 0;
#X connect 9 0 14 1;
#X connect 11 0 17 0;
#X connect 12 0 3 0;
#X connect 12 0 8 0;
#X connect 12 0 13 0;
#X connect 13 0 14 1;
#X connect 14 0 4 0;
#X connect 15 0 5 0;
#X connect 15 0 5 1;
#X connect 16 0 0 0;
#X connect 17 0 16 0;
#X connect 18 0 34 0;
#X connect 18 0 51 0;
#X connect 19 0 35 0;
#X connect 19 0 51 0;
#X connect 20 0 36 0;
#X connect 20 0 51 0;
#X connect 21 0 37 0;
#X connect 21 0 51 0;
#X connect 22 0 38 0;
#X connect 22 0 51 0;
#X connect 23 0 39 0;
#X connect 23 0 51 0;
#X connect 24 0 40 0;
#X connect 24 0 51 0;
#X connect 25 0 41 0;
#X connect 25 0 51 0;
#X connect 26 0 42 0;
#X connect 26 0 51 0;
#X connect 27 0 43 0;
#X connect 27 0 51 0;
#X connect 28 0 44 0;
#X connect 28 0 51 0;
#X connect 29 0 45 0;
#X connect 29 0 51 0;
#X connect 30 0 46 0;
#X connect 30 0 51 0;
#X connect 31 0 47 0;
#X connect 31 0 51 0;
#X connect 32 0 48 0;
#X connect 32 0 51 0;
#X connect 33 0 49 0;
#X connect 33 0 51 0;
#X connect 34 0 51 1;
#X connect 35 0 51 1;
#X connect 36 0 51 1;
#X connect 37 0 51 1;
#X connect 38 0 51 1;
#X connect 39 0 51 1;
#X connect 40 0 51 1;
#X connect 41 0 51 1;
#X connect 42 0 51 1;
#X connect 43 0 51 1;
#X connect 44 0 51 1;
#X connect 45 0 51 1;
#X connect 46 0 51 1;
#X connect 47 0 51 1;
#X connect 48 0 51 1;
#X connect 49 0 51 1;
#X connect 52 0 53 0;
#X connect 53 0 54 1;
#X connect 53 0 54 0;
#X connect 54 0 12 0;
#X connect 55 0 72 0;
#X connect 56 0 73 0;
#X connect 57 0 74 0;
#X connect 58 0 75 0;
#X connect 59 0 76 0;
#X connect 60 0 77 0;
#X connect 61 0 78 0;
#X connect 62 0 79 0;
#X connect 63 0 80 0;
#X connect 64 0 81 0;
#X connect 65 0 82 0;
#X connect 66 0 83 0;
#X connect 67 0 84 0;
#X connect 68 0 85 0;
#X connect 69 0 86 0;
#X connect 70 0 87 0;
#X connect 71 0 88 0;
#X connect 72 0 73 0;
#X connect 72 0 74 0;
#X connect 72 0 75 0;
#X connect 72 0 76 0;
#X connect 72 0 77 0;
#X connect 72 0 78 0;
#X connect 72 0 79 0;
#X connect 72 0 80 0;
#X connect 72 0 81 0;
#X connect 72 0 82 0;
#X connect 72 0 83 0;
#X connect 72 0 84 0;
#X connect 72 0 85 0;
#X connect 72 0 86 0;
#X connect 72 0 87 0;
#X connect 72 0 88 0;
#X connect 72 0 89 0;
#X connect 73 0 18 0;
#X connect 74 0 19 0;
#X connect 75 0 20 0;
#X connect 76 0 21 0;
#X connect 77 0 22 0;
#X connect 78 0 23 0;
#X connect 79 0 24 0;
#X connect 80 0 25 0;
#X connect 81 0 26 0;
#X connect 82 0 27 0;
#X connect 83 0 28 0;
#X connect 84 0 29 0;
#X connect 85 0 30 0;
#X connect 86 0 31 0;
#X connect 87 0 32 0;
#X connect 88 0 33 0;
#X connect 89 0 56 0;
#X connect 89 0 57 0;
#X connect 89 0 58 0;
#X connect 89 0 59 0;
#X connect 89 0 60 0;
#X connect 89 0 61 0;
#X connect 89 0 62 0;
#X connect 89 0 63 0;
#X connect 89 0 64 0;
#X connect 89 0 65 0;
#X connect 89 0 66 0;
#X connect 89 0 67 0;
#X connect 89 0 68 0;
#X connect 89 0 69 0;
#X connect 89 0 70 0;
#X connect 89 0 71 0;
#X coords 0 -1 1 1 250 60 1 100 100;
#X restore 105 102 pd instrumento;
#X obj 116 257 s samplenumber;
#X obj 240 323 tabwrite;
#X obj 240 292 r sele;
#X connect 0 0 9 0;
#X connect 1 0 2 0;
#X connect 2 0 3 0;
#X connect 2 0 4 0;
#X connect 3 0 2 1;
#X connect 4 0 0 0;
#X connect 5 0 10 1;
#X connect 6 0 10 0;
#X connect 11 0 10 0;
#X coords 0 -1 1 1 350 150 1 100 100;
#X restore 23 107 pd SequencerWind;
