#N canvas 261 498 658 330 10;
#X declare -lib mrpeach;
#N canvas 700 185 328 211 Tempo 1;
#X obj 5 95 loadbang;
#X obj 104 108 metro;
#X msg 104 40 60000;
#X obj 104 74 /;
#X floatatom 104 142 5 0 0 0 - - -;
#X obj 174 6 r osc1;
#X floatatom 174 74 5 0 0 0 - - -;
#X obj 104 175 s tempo;
#X obj 174 40 expr ($f1 * 400) + 100;
#X obj 63 95 tgl 15 0 empty empty empty 17 7 0 10 -262144 -1 -1 1 1
;
#X connect 0 0 1 0;
#X connect 1 0 7 0;
#X connect 2 0 3 0;
#X connect 3 0 4 0;
#X connect 4 0 1 1;
#X connect 5 0 8 0;
#X connect 8 0 3 1;
#X connect 8 0 2 0;
#X connect 8 0 6 0;
#X connect 9 0 1 0;
#X restore 25 56 pd Tempo;
#N canvas 1323 353 450 300 oscRcvr 0;
#X obj 106 51 import mrpeach;
#X obj 106 84 udpreceive 9001;
#X obj 106 117 unpackOSC;
#X obj 106 150 routeOSC /test;
#X obj 107 211 s osc1;
#X obj 109 180 * 2;
#X connect 1 0 2 0;
#X connect 2 0 3 0;
#X connect 3 0 5 0;
#X connect 5 0 4 0;
#X restore 25 29 pd oscRcvr;
#N canvas 790 58 792 722 gen 0;
#X obj 437 361 mtof~;
#X obj 562 376 osc~;
#X obj 563 428 *~;
#X floatatom 598 394 5 0 0 0 - - -;
#X obj 496 526 osc~;
#X obj 497 571 *~;
#X obj 653 417 vsl 15 128 0 1 0 0 empty empty empty 0 -9 0 10 -262144
-1 -1 0 1;
#X obj 504 663 dac~;
#X obj 631 321 *;
#X obj 294 61 counter 3;
#X obj 330 123 route 1 2 3;
#X obj 228 110 bng 15 250 50 0 empty empty empty 17 7 0 10 -262144
-1 -1;
#X msg 617 276 1500;
#X obj 644 152 r osc;
#X obj 114 65 r tempo;
#X obj 586 187 r osc1;
#X obj 208 185 bng 15 250 50 0 empty empty empty 17 7 0 10 -262144
-1 -1;
#X obj 259 184 bng 15 250 50 0 empty empty empty 17 7 0 10 -262144
-1 -1;
#X obj 218 257 bng 15 250 50 0 empty empty empty 17 7 0 10 -262144
-1 -1;
#X obj 288 245 bng 15 250 50 0 empty empty empty 17 7 0 10 -262144
-1 -1;
#X msg 378 242 48;
#X msg 460 238 55;
#X msg 497 227 57;
#X msg 423 239 51;
#X obj 310 473 phasor~;
#X obj 493 487 *~;
#X obj 303 416 osc~ 2;
#X obj 224 369 expr $f1 * 5;
#X connect 0 0 1 0;
#X connect 1 0 2 0;
#X connect 2 0 25 0;
#X connect 3 0 2 1;
#X connect 4 0 5 0;
#X connect 5 0 7 0;
#X connect 5 0 7 1;
#X connect 6 0 5 1;
#X connect 8 0 3 0;
#X connect 9 0 10 0;
#X connect 10 0 20 0;
#X connect 10 0 16 0;
#X connect 10 1 23 0;
#X connect 10 1 17 0;
#X connect 10 2 21 0;
#X connect 10 2 18 0;
#X connect 10 3 22 0;
#X connect 10 3 19 0;
#X connect 11 0 9 0;
#X connect 12 0 8 0;
#X connect 14 0 11 0;
#X connect 14 0 27 0;
#X connect 20 0 0 0;
#X connect 21 0 0 0;
#X connect 22 0 0 0;
#X connect 23 0 0 0;
#X connect 25 0 4 0;
#X connect 26 0 25 1;
#X connect 27 0 26 0;
#X restore 25 83 pd gen;
#N canvas 99 96 820 616 SequencerWind 0;
#X obj 117 166 hradio 20 1 0 16 empty empty empty 0 -8 0 10 -262144
-1 -1 3;
#X obj 29 87 r tempo;
#X obj 29 118 int;
#X obj 57 118 + 1;
#X obj 29 149 mod 16;
#N canvas 1354 219 623 550 instrumento 0;
#X obj 249 219 soundfiler;
#X floatatom 249 250 5 0 0 0 - - -;
#X msg 249 157 open Snare.wav;
#X obj 249 280 expr 44100 / $f1;
#X floatatom 249 311 5 0 0 0 - - -;
#X obj 249 372 *~;
#X obj 249 434 dac~;
#X obj 393 250 expr $f1 / 44100 * 1000;
#X floatatom 393 311 5 0 0 0 - - -;
#X obj 367 341 delay;
#X msg 324 342 0;
#N canvas 0 22 450 278 (subpatch) 0;
#X array Data 9318 float 2;
#X coords 0 1 9318 -1 200 140 1;
#X restore 16 325 graph;
#X msg 249 188 read -resize \$1 Data;
#X obj 249 403 tabread4~ Data;
#X obj 223 118 loadbang;
#X obj 195 296 bng 15 250 50 0 empty empty empty 17 7 0 10 -262144
-1 -1;
#X msg 324 311 0;
#X obj 249 341 phasor~;
#X obj 172 257 spigot;
#X obj 107 108 bng 15 250 50 0 empty empty empty 17 7 0 10 -262144
-1 -1;
#X obj 106 192 s sele;
#X msg 107 165 set array2;
#X obj 167 181 r inst2;
#X connect 0 0 1 0;
#X connect 1 0 3 0;
#X connect 1 0 5 1;
#X connect 1 0 7 0;
#X connect 2 0 12 0;
#X connect 3 0 4 0;
#X connect 4 0 17 0;
#X connect 5 0 13 0;
#X connect 7 0 8 0;
#X connect 8 0 9 1;
#X connect 9 0 10 0;
#X connect 10 0 17 0;
#X connect 10 0 17 1;
#X connect 12 0 0 0;
#X connect 13 0 6 0;
#X connect 13 0 6 1;
#X connect 14 0 2 0;
#X connect 15 0 4 0;
#X connect 15 0 9 0;
#X connect 15 0 16 0;
#X connect 16 0 17 1;
#X connect 17 0 5 0;
#X connect 18 0 15 0;
#X connect 19 0 21 0;
#X connect 21 0 20 0;
#X connect 22 0 18 0;
#X connect 22 0 18 1;
#X coords 0 -1 1 1 85 60 1 100 100;
#X restore 199 34 pd instrumento;
#N canvas 845 367 984 500 selectionbox 0;
#X obj 106 122 tgl 15 0 empty empty empty 17 7 0 10 -262144 -1 -1 0
1;
#X obj 127 122 tgl 15 0 empty empty empty 17 7 0 10 -262144 -1 -1 0
1;
#X obj 147 122 tgl 15 0 empty empty empty 17 7 0 10 -262144 -1 -1 0
1;
#X obj 166 122 tgl 15 0 empty empty empty 17 7 0 10 -262144 -1 -1 0
1;
#X obj 186 122 tgl 15 0 empty empty empty 17 7 0 10 -262144 -1 -1 1
1;
#X obj 207 122 tgl 15 0 empty empty empty 17 7 0 10 -262144 -1 -1 0
1;
#X obj 227 122 tgl 15 0 empty empty empty 17 7 0 10 -262144 -1 -1 1
1;
#X obj 246 122 tgl 15 0 empty empty empty 17 7 0 10 -262144 -1 -1 0
1;
#X obj 265 122 tgl 15 0 empty empty empty 17 7 0 10 -262144 -1 -1 1
1;
#X obj 286 122 tgl 15 0 empty empty empty 17 7 0 10 -262144 -1 -1 0
1;
#X obj 306 122 tgl 15 0 empty empty empty 17 7 0 10 -262144 -1 -1 1
1;
#X obj 325 122 tgl 15 0 empty empty empty 17 7 0 10 -262144 -1 -1 0
1;
#X obj 345 122 tgl 15 0 empty empty empty 17 7 0 10 -262144 -1 -1 1
1;
#X obj 366 122 tgl 15 0 empty empty empty 17 7 0 10 -262144 -1 -1 0
1;
#X obj 386 122 tgl 15 0 empty empty empty 17 7 0 10 -262144 -1 -1 1
1;
#X obj 405 122 tgl 15 0 empty empty empty 17 7 0 10 -262144 -1 -1 1
1;
#X msg 106 154 0;
#X msg 127 154 1;
#X msg 147 154 2;
#X msg 166 154 3;
#X msg 186 154 4;
#X msg 207 154 5;
#X msg 227 154 6;
#X msg 246 154 7;
#X msg 265 154 8;
#X msg 286 154 9;
#X msg 306 154 10;
#X msg 325 154 11;
#X msg 345 154 12;
#X msg 366 154 13;
#X msg 386 154 14;
#X msg 405 154 15;
#X obj 472 171 s dataY;
#X obj 24 137 s dataX;
#X obj 426 273 int;
#X obj 445 275 + 1;
#X obj 426 244 bng 15 250 50 0 empty empty empty 17 7 0 10 -262144
-1 -1;
#X obj 426 304 mod 16;
#X obj 533 254 spigot;
#X obj 477 302 == 15;
#X obj 426 184 tgl 15 0 empty empty empty 17 7 0 10 -262144 -1 -1 0
1;
#X msg 533 285 0;
#X obj 63 -14 r sele;
#X obj 107 17 tabread;
#X floatatom 497 -30 5 0 0 0 - - -;
#X obj 107 69 spigot;
#X obj 139 40 == 0;
#X obj 157 68 spigot;
#X obj 189 39 == 1;
#X obj 207 68 spigot;
#X obj 239 39 == 2;
#X obj 257 68 spigot;
#X obj 289 39 == 3;
#X obj 304 68 spigot;
#X obj 354 67 spigot;
#X obj 404 67 spigot;
#X obj 454 67 spigot;
#X obj 336 39 == 4;
#X obj 386 38 == 5;
#X obj 436 38 == 6;
#X obj 486 38 == 7;
#X obj 507 67 spigot;
#X obj 557 66 spigot;
#X obj 607 66 spigot;
#X obj 657 66 spigot;
#X obj 704 66 spigot;
#X obj 754 65 spigot;
#X obj 804 65 spigot;
#X obj 854 65 spigot;
#X obj 539 38 == 8;
#X obj 589 37 == 9;
#X obj 639 37 == 10;
#X obj 689 37 == 11;
#X obj 736 37 == 12;
#X obj 786 36 == 13;
#X obj 836 37 == 14;
#X obj 886 36 == 15;
#X obj 114 262 t b;
#X obj 427 214 metro 5;
#X connect 0 0 16 0;
#X connect 0 0 33 0;
#X connect 1 0 17 0;
#X connect 1 0 33 0;
#X connect 2 0 18 0;
#X connect 2 0 33 0;
#X connect 3 0 19 0;
#X connect 3 0 33 0;
#X connect 4 0 20 0;
#X connect 4 0 33 0;
#X connect 5 0 21 0;
#X connect 5 0 33 0;
#X connect 6 0 22 0;
#X connect 6 0 33 0;
#X connect 7 0 23 0;
#X connect 7 0 33 0;
#X connect 8 0 24 0;
#X connect 8 0 33 0;
#X connect 9 0 25 0;
#X connect 9 0 33 0;
#X connect 10 0 26 0;
#X connect 10 0 33 0;
#X connect 11 0 27 0;
#X connect 11 0 33 0;
#X connect 12 0 28 0;
#X connect 12 0 33 0;
#X connect 13 0 29 0;
#X connect 13 0 33 0;
#X connect 14 0 30 0;
#X connect 14 0 33 0;
#X connect 15 0 31 0;
#X connect 15 0 33 0;
#X connect 16 0 32 0;
#X connect 17 0 32 0;
#X connect 18 0 32 0;
#X connect 19 0 32 0;
#X connect 20 0 32 0;
#X connect 21 0 32 0;
#X connect 22 0 32 0;
#X connect 23 0 32 0;
#X connect 24 0 32 0;
#X connect 25 0 32 0;
#X connect 26 0 32 0;
#X connect 27 0 32 0;
#X connect 28 0 32 0;
#X connect 29 0 32 0;
#X connect 30 0 32 0;
#X connect 31 0 32 0;
#X connect 34 0 35 0;
#X connect 34 0 37 0;
#X connect 35 0 34 1;
#X connect 36 0 34 0;
#X connect 37 0 39 0;
#X connect 37 0 44 0;
#X connect 38 0 41 0;
#X connect 39 0 38 1;
#X connect 39 0 38 0;
#X connect 40 0 78 0;
#X connect 41 0 40 0;
#X connect 42 0 43 0;
#X connect 42 0 77 0;
#X connect 43 0 45 0;
#X connect 43 0 47 0;
#X connect 43 0 49 0;
#X connect 43 0 51 0;
#X connect 43 0 53 0;
#X connect 43 0 54 0;
#X connect 43 0 55 0;
#X connect 43 0 56 0;
#X connect 43 0 61 0;
#X connect 43 0 62 0;
#X connect 43 0 63 0;
#X connect 43 0 64 0;
#X connect 43 0 65 0;
#X connect 43 0 66 0;
#X connect 43 0 67 0;
#X connect 43 0 68 0;
#X connect 44 0 43 0;
#X connect 44 0 46 0;
#X connect 44 0 48 0;
#X connect 44 0 50 0;
#X connect 44 0 52 0;
#X connect 44 0 57 0;
#X connect 44 0 58 0;
#X connect 44 0 59 0;
#X connect 44 0 60 0;
#X connect 44 0 69 0;
#X connect 44 0 70 0;
#X connect 44 0 71 0;
#X connect 44 0 72 0;
#X connect 44 0 73 0;
#X connect 44 0 74 0;
#X connect 44 0 75 0;
#X connect 44 0 76 0;
#X connect 45 0 0 0;
#X connect 46 0 45 1;
#X connect 47 0 1 0;
#X connect 48 0 47 1;
#X connect 49 0 2 0;
#X connect 50 0 49 1;
#X connect 51 0 3 0;
#X connect 52 0 51 1;
#X connect 53 0 4 0;
#X connect 54 0 5 0;
#X connect 55 0 6 0;
#X connect 56 0 7 0;
#X connect 57 0 53 1;
#X connect 58 0 54 1;
#X connect 59 0 55 1;
#X connect 60 0 56 1;
#X connect 61 0 8 0;
#X connect 62 0 9 0;
#X connect 63 0 10 0;
#X connect 64 0 11 0;
#X connect 65 0 12 0;
#X connect 66 0 13 0;
#X connect 67 0 14 0;
#X connect 68 0 15 0;
#X connect 69 0 61 1;
#X connect 70 0 62 1;
#X connect 71 0 63 1;
#X connect 72 0 64 1;
#X connect 73 0 65 1;
#X connect 74 0 66 1;
#X connect 75 0 67 1;
#X connect 76 0 68 1;
#X connect 77 0 40 0;
#X connect 78 0 36 0;
#X coords 0 -1 1 1 330 50 1 100 100;
#X restore 113 108 pd selectionbox;
#X obj 304 331 r dataY;
#X obj 182 332 r dataX;
#N canvas 1325 22 492 419 arraylist 0;
#N canvas 0 22 450 278 (subpatch) 0;
#X array array1 16 float 3;
#A 0 0 0 0 0 1 0 1 0 1 0 1 0 1 0 1 1;
#X coords 0 0 16 1 200 140 1 0 0;
#X restore 12 -864 graph;
#X obj 241 -856 r samplenumber;
#X obj 241 -828 tabread array1;
#X obj 243 -800 s inst1;
#N canvas 0 22 450 278 (subpatch) 0;
#X array array2 16 float 3;
#A 0 0 1 0 1 0 0 0 0 0 0 0 0 0 0 0 0;
#X coords 0 0 16 1 200 140 1 0 0;
#X restore 13 -709 graph;
#X obj 243 -735 s inst2;
#X obj 242 -770 tabread array2;
#X connect 1 0 2 0;
#X connect 1 0 6 0;
#X connect 2 0 3 0;
#X connect 6 0 5 0;
#X restore 408 333 pd arraylist;
#N canvas 1111 318 689 465 instrumento 0;
#X obj 247 209 soundfiler;
#X floatatom 247 240 5 0 0 0 - - -;
#X obj 247 270 expr 44100 / $f1;
#X floatatom 247 301 5 0 0 0 - - -;
#X obj 247 362 *~;
#X obj 247 424 dac~;
#X obj 391 240 expr $f1 / 44100 * 1000;
#X floatatom 391 301 5 0 0 0 - - -;
#X obj 365 331 delay;
#X msg 322 332 0;
#N canvas 0 22 450 278 (subpatch) 0;
#X array Data2 13590 float 2;
#X coords 0 1 13590 -1 200 140 1 0 0;
#X restore 481 35 graph;
#X obj 221 108 loadbang;
#X obj 193 286 bng 15 250 50 0 empty empty empty 17 7 0 10 -262144
-1 -1;
#X msg 322 301 0;
#X obj 247 331 phasor~;
#X obj 170 247 spigot;
#X obj 247 393 tabread4~ Data2;
#X msg 247 178 read -resize \$1 Data2;
#X obj 109 107 bng 15 250 50 0 empty empty empty 17 7 0 10 -262144
-1 -1;
#X obj 109 193 s sele;
#X msg 109 164 set array1;
#X msg 247 147 open Muestras/Snare.wav;
#X obj 170 213 r inst1;
#X connect 0 0 1 0;
#X connect 1 0 2 0;
#X connect 1 0 4 1;
#X connect 1 0 6 0;
#X connect 2 0 3 0;
#X connect 3 0 14 0;
#X connect 4 0 16 0;
#X connect 6 0 7 0;
#X connect 7 0 8 1;
#X connect 8 0 9 0;
#X connect 9 0 14 0;
#X connect 9 0 14 1;
#X connect 11 0 21 0;
#X connect 12 0 3 0;
#X connect 12 0 8 0;
#X connect 12 0 13 0;
#X connect 13 0 14 1;
#X connect 14 0 4 0;
#X connect 15 0 12 0;
#X connect 16 0 5 0;
#X connect 16 0 5 1;
#X connect 17 0 0 0;
#X connect 18 0 20 0;
#X connect 20 0 19 0;
#X connect 21 0 17 0;
#X connect 22 0 15 0;
#X connect 22 0 15 1;
#X coords 0 -1 1 1 85 60 1 100 100;
#X restore 106 34 pd instrumento;
#X obj 116 257 s samplenumber;
#X obj 237 333 tabwrite;
#X obj 240 292 r sele;
#X connect 0 0 11 0;
#X connect 1 0 2 0;
#X connect 2 0 3 0;
#X connect 2 0 4 0;
#X connect 3 0 2 1;
#X connect 4 0 0 0;
#X connect 7 0 12 1;
#X connect 8 0 12 0;
#X connect 13 0 12 0;
#X coords 0 -1 1 1 350 150 1 100 100;
#X restore 23 107 pd SequencerWind;
