#N canvas 411 162 450 300 10;
#X declare -lib mrpeach;
#N canvas 804 76 1032 745 Tempo 0;
#X obj 134 19 loadbang;
#X obj 134 154 metro;
#X msg 134 53 60000;
#X obj 134 87 /;
#X floatatom 134 121 5 0 0 0 - - -;
#X obj 204 19 r osc1;
#X floatatom 204 87 5 0 0 0 - - -;
#X obj 213 194 s tempo;
#X obj 131 196 bng 15 250 50 0 empty empty empty 17 7 0 10 -262144
-1 -1;
#X obj 204 53 expr ($f1 * 400) + 100;
#X obj 51 144 tgl 15 0 empty empty empty 17 7 0 10 -262144 -1 -1 1
1;
#X msg 213 144 125;
#X connect 1 0 7 0;
#X connect 1 0 8 0;
#X connect 2 0 3 0;
#X connect 3 0 4 0;
#X connect 4 0 1 1;
#X connect 5 0 9 0;
#X connect 9 0 3 1;
#X connect 9 0 2 0;
#X connect 9 0 6 0;
#X connect 10 0 1 0;
#X connect 11 0 1 1;
#X restore 25 56 pd Tempo;
#N canvas 1323 353 450 300 oscRcvr 0;
#X obj 106 51 import mrpeach;
#X obj 106 84 udpreceive 9001;
#X obj 106 117 unpackOSC;
#X obj 106 150 routeOSC /test;
#X obj 107 211 s osc1;
#X obj 109 180 * 2;
#X connect 1 0 2 0;
#X connect 2 0 3 0;
#X connect 3 0 5 0;
#X connect 5 0 4 0;
#X restore 25 29 pd oscRcvr;
#N canvas 790 58 792 722 gen 0;
#X obj 437 361 mtof~;
#X obj 562 376 osc~;
#X obj 563 428 *~;
#X floatatom 598 394 5 0 0 0 - - -;
#X obj 496 526 osc~;
#X obj 497 571 *~;
#X obj 653 417 vsl 15 128 0 1 0 0 empty empty empty 0 -9 0 10 -262144
-1 -1 0 1;
#X obj 504 663 dac~;
#X obj 631 321 *;
#X obj 294 61 counter 3;
#X obj 330 123 route 1 2 3;
#X obj 228 110 bng 15 250 50 0 empty empty empty 17 7 0 10 -262144
-1 -1;
#X msg 617 276 1500;
#X obj 644 152 r osc;
#X obj 114 65 r tempo;
#X obj 586 187 r osc1;
#X obj 208 185 bng 15 250 50 0 empty empty empty 17 7 0 10 -262144
-1 -1;
#X obj 259 184 bng 15 250 50 0 empty empty empty 17 7 0 10 -262144
-1 -1;
#X obj 218 257 bng 15 250 50 0 empty empty empty 17 7 0 10 -262144
-1 -1;
#X obj 288 245 bng 15 250 50 0 empty empty empty 17 7 0 10 -262144
-1 -1;
#X msg 378 242 48;
#X msg 460 238 55;
#X msg 497 227 57;
#X msg 423 239 51;
#X obj 310 473 phasor~;
#X obj 493 487 *~;
#X obj 303 416 osc~ 2;
#X obj 224 369 expr $f1 * 5;
#X connect 0 0 1 0;
#X connect 1 0 2 0;
#X connect 2 0 25 0;
#X connect 3 0 2 1;
#X connect 4 0 5 0;
#X connect 5 0 7 0;
#X connect 5 0 7 1;
#X connect 6 0 5 1;
#X connect 8 0 3 0;
#X connect 9 0 10 0;
#X connect 10 0 20 0;
#X connect 10 0 16 0;
#X connect 10 1 23 0;
#X connect 10 1 17 0;
#X connect 10 2 21 0;
#X connect 10 2 18 0;
#X connect 10 3 22 0;
#X connect 10 3 19 0;
#X connect 11 0 9 0;
#X connect 12 0 8 0;
#X connect 14 0 11 0;
#X connect 14 0 27 0;
#X connect 20 0 0 0;
#X connect 21 0 0 0;
#X connect 22 0 0 0;
#X connect 23 0 0 0;
#X connect 25 0 4 0;
#X connect 26 0 25 1;
#X connect 27 0 26 0;
#X restore 25 83 pd gen;
#N canvas 933 111 511 315 SequencerWind 1;
#X obj 115 164 hradio 20 1 0 16 empty empty empty 0 -8 0 10 -262144
-1 -1 8;
#X obj 116 134 tgl 15 0 empty empty empty 17 7 0 10 -262144 -1 -1 0
1;
#X obj 48 74 r tempo;
#X obj 48 106 int;
#X obj 76 105 + 1;
#X obj 48 139 mod 16;
#N canvas 1260 106 453 584 instrumento 0;
#X obj 108 182 soundfiler;
#X floatatom 108 213 5 0 0 0 - - -;
#X msg 108 120 open Snare.wav;
#X obj 108 243 expr 44100 / $f1;
#X floatatom 108 274 5 0 0 0 - - -;
#X obj 108 304 phasor~;
#X obj 108 335 *~;
#X obj 108 397 dac~;
#X obj 252 229 expr $f1 / 44100 * 1000;
#X floatatom 252 272 5 0 0 0 - - -;
#X obj 226 304 delay;
#X msg 193 304 0;
#X obj 213 274 t b;
#N canvas 0 22 450 278 (subpatch) 0;
#X array Data 13590 float 2;
#X coords 0 1 13590 -1 200 140 1;
#X restore 342 8 graph;
#X msg 108 151 read -resize \$1 Data;
#X obj 108 366 tabread4~ Data;
#X connect 0 0 1 0;
#X connect 1 0 3 0;
#X connect 1 0 6 1;
#X connect 1 0 8 0;
#X connect 2 0 14 0;
#X connect 3 0 4 0;
#X connect 4 0 5 0;
#X connect 5 0 6 0;
#X connect 6 0 15 0;
#X connect 8 0 9 0;
#X connect 9 0 10 1;
#X connect 9 0 12 0;
#X connect 10 0 11 0;
#X connect 11 0 5 0;
#X connect 11 0 5 1;
#X connect 12 0 10 0;
#X connect 14 0 0 0;
#X connect 15 0 7 0;
#X connect 15 0 7 1;
#X restore 139 233 pd instrumento;
#X obj 137 134 tgl 15 0 empty empty empty 17 7 0 10 -262144 -1 -1 0
1;
#X obj 157 134 tgl 15 0 empty empty empty 17 7 0 10 -262144 -1 -1 0
1;
#X obj 176 134 tgl 15 0 empty empty empty 17 7 0 10 -262144 -1 -1 0
1;
#X obj 196 134 tgl 15 0 empty empty empty 17 7 0 10 -262144 -1 -1 0
1;
#X obj 217 134 tgl 15 0 empty empty empty 17 7 0 10 -262144 -1 -1 0
1;
#X obj 237 134 tgl 15 0 empty empty empty 17 7 0 10 -262144 -1 -1 0
1;
#X obj 256 134 tgl 15 0 empty empty empty 17 7 0 10 -262144 -1 -1 0
1;
#X obj 275 134 tgl 15 0 empty empty empty 17 7 0 10 -262144 -1 -1 0
1;
#X obj 296 134 tgl 15 0 empty empty empty 17 7 0 10 -262144 -1 -1 0
1;
#X obj 316 134 tgl 15 0 empty empty empty 17 7 0 10 -262144 -1 -1 0
1;
#X obj 335 134 tgl 15 0 empty empty empty 17 7 0 10 -262144 -1 -1 0
1;
#X obj 355 134 tgl 15 0 empty empty empty 17 7 0 10 -262144 -1 -1 0
1;
#X obj 376 134 tgl 15 0 empty empty empty 17 7 0 10 -262144 -1 -1 0
1;
#X obj 396 134 tgl 15 0 empty empty empty 17 7 0 10 -262144 -1 -1 0
1;
#X obj 415 134 tgl 15 0 empty empty empty 17 7 0 10 -262144 -1 -1 0
1;
#X connect 2 0 3 0;
#X connect 3 0 4 0;
#X connect 3 0 5 0;
#X connect 4 0 3 1;
#X connect 5 0 0 0;
#X coords 0 -1 1 1 350 100 1 100 100;
#X restore 207 168 pd SequencerWind;
