#N canvas 525 329 450 300 10;
#X declare -lib mrpeach;
#N canvas 1374 104 450 300 Tempo 0;
#X obj 134 19 loadbang;
#X obj 134 154 metro;
#X msg 134 53 60000;
#X obj 134 87 /;
#X floatatom 134 121 5 0 0 0 - - -;
#X obj 204 19 r osc1;
#X floatatom 204 87 5 0 0 0 - - -;
#X obj 213 194 s tempo;
#X obj 131 196 bng 15 250 50 0 empty empty empty 17 7 0 10 -262144
-1 -1;
#X obj 46 156 bng 15 250 50 0 empty empty empty 17 7 0 10 -262144 -1
-1;
#X obj 204 53 expr ($f1 * 150) + 140;
#X connect 1 0 7 0;
#X connect 1 0 8 0;
#X connect 2 0 3 0;
#X connect 3 0 4 0;
#X connect 4 0 1 1;
#X connect 5 0 10 0;
#X connect 9 0 1 0;
#X connect 10 0 3 1;
#X connect 10 0 2 0;
#X connect 10 0 6 0;
#X restore 25 56 pd Tempo;
#N canvas 1323 353 450 300 oscRcvr 0;
#X obj 106 51 import mrpeach;
#X obj 106 84 udpreceive 9001;
#X obj 106 117 unpackOSC;
#X obj 106 150 routeOSC /test;
#X obj 107 211 s osc1;
#X obj 109 180 * 2;
#X connect 1 0 2 0;
#X connect 2 0 3 0;
#X connect 3 0 5 0;
#X connect 5 0 4 0;
#X restore 25 29 pd oscRcvr;
#N canvas 1124 415 450 300 gen 0;
#X obj 27 23 osc~ 500;
#X obj 82 38 r tempo;
#X obj 27 134 dac~;
#X obj 27 60 *~ 0.5;
#X obj 27 97 spigot~;
#X obj 82 60 tgl 15 0 empty empty empty 17 7 0 10 -262144 -1 -1 1 1
;
#X connect 0 0 3 0;
#X connect 1 0 5 0;
#X connect 3 0 4 0;
#X connect 4 0 2 1;
#X connect 4 0 2 0;
#X connect 5 0 4 1;
#X restore 25 83 pd gen;
