#N canvas 616 145 1100 762 10;
#X declare -lib mrpeach;
#N canvas 700 185 328 211 Tempo 0;
#X obj 206 99 metro;
#X msg 206 31 60000;
#X obj 206 65 /;
#X floatatom 112 131 5 0 0 0 - - -;
#X obj 276 -3 r osc1;
#X floatatom 276 65 5 0 0 0 - - -;
#X obj 206 166 s tempo;
#X obj 276 31 expr ($f1 * 400) + 100;
#X obj 109 104 tgl 15 0 empty empty empty 17 7 0 10 -262144 -1 -1 0
1;
#X connect 0 0 6 0;
#X connect 1 0 2 0;
#X connect 2 0 3 0;
#X connect 3 0 0 1;
#X connect 4 0 7 0;
#X connect 7 0 2 1;
#X connect 7 0 1 0;
#X connect 7 0 5 0;
#X connect 8 0 0 0;
#X coords 0 -1 1 1 85 60 1 100 100;
#X restore 153 38 pd Tempo;
#N canvas 833 389 450 300 oscRcvr 0;
#X obj 106 51 import mrpeach;
#X obj 106 84 udpreceive 9001;
#X obj 106 117 unpackOSC;
#X obj 107 194 routeOSC /homicidio /trafico /suicidio;
#X obj 103 244 print homicidio;
#X connect 1 0 2 0;
#X connect 2 0 3 0;
#X connect 3 0 4 0;
#X restore 78 16 pd oscRcvr;
#N canvas 790 58 792 722 gen 0;
#X obj 437 361 mtof~;
#X obj 562 376 osc~;
#X obj 563 428 *~;
#X floatatom 598 394 5 0 0 0 - - -;
#X obj 496 526 osc~;
#X obj 497 571 *~;
#X obj 653 417 vsl 15 128 0 1 0 0 empty empty empty 0 -9 0 10 -262144
-1 -1 0 1;
#X obj 504 663 dac~;
#X obj 631 321 *;
#X obj 294 61 counter 3;
#X obj 330 123 route 1 2 3;
#X obj 228 110 bng 15 250 50 0 empty empty empty 17 7 0 10 -262144
-1 -1;
#X msg 617 276 1500;
#X obj 644 152 r osc;
#X obj 114 65 r tempo;
#X obj 586 187 r osc1;
#X msg 378 242 48;
#X msg 460 238 55;
#X msg 497 227 57;
#X msg 423 239 51;
#X obj 310 473 phasor~;
#X obj 493 487 *~;
#X obj 303 416 osc~ 2;
#X obj 224 369 expr $f1 * 5;
#X connect 0 0 1 0;
#X connect 1 0 2 0;
#X connect 2 0 21 0;
#X connect 3 0 2 1;
#X connect 4 0 5 0;
#X connect 5 0 7 0;
#X connect 5 0 7 1;
#X connect 6 0 5 1;
#X connect 8 0 3 0;
#X connect 9 0 10 0;
#X connect 10 0 16 0;
#X connect 10 1 19 0;
#X connect 10 2 17 0;
#X connect 10 3 18 0;
#X connect 11 0 9 0;
#X connect 12 0 8 0;
#X connect 14 0 11 0;
#X connect 14 0 23 0;
#X connect 16 0 0 0;
#X connect 17 0 0 0;
#X connect 18 0 0 0;
#X connect 19 0 0 0;
#X connect 21 0 4 0;
#X connect 22 0 21 1;
#X connect 23 0 22 0;
#X restore 25 83 pd gen;
#N canvas 403 205 932 868 SequencerWind 0;
#X obj 157 177 hradio 20 1 0 16 empty empty empty 0 -8 0 10 -262144
-1 -1 12;
#X obj 29 87 r tempo;
#X obj 29 118 int;
#X obj 57 118 + 1;
#X obj 29 149 mod 16;
#N canvas 957 69 1088 846 arraylist 0;
#N canvas 0 22 450 278 (subpatch) 0;
#X array Instrumento1 16 float 3;
#A 0 1 0 0 1 0 0 1 0 0 1 0 0 1 0 0 1;
#X coords 0 0 15 1 200 140 1 0 0;
#X restore 88 79 graph;
#N canvas 0 22 450 278 (subpatch) 0;
#X array Instrumento2 16 float 3;
#A 0 1 0 0 0 1 0 0 1 0 0 0 0 0 0 1 1;
#X coords 0 0 15 1 200 140 1 0 0;
#X restore 86 235 graph;
#N canvas 0 22 450 278 (subpatch) 0;
#X array Instrumento3 16 float 3;
#A 0 0 1 1 1 1 1 1 1 1 1 1 1 1 1 1 0;
#X coords 0 1 15 -1 200 140 1;
#X restore 87 398 graph;
#N canvas 0 22 450 278 (subpatch) 0;
#X array Instrumento4 16 float 3;
#A 0 1 0 1 0 1 0 1 0 1 0 1 0 1 0 1 0;
#X coords 0 1 15 -1 200 140 1;
#X restore 88 561 graph;
#N canvas 0 22 450 278 (subpatch) 0;
#X array Instrumento5 16 float 3;
#A 0 1 0 1 0 1 0 1 0 1 0 1 0 1 0 1 0;
#X coords 0 1 15 -1 200 140 1;
#X restore 324 77 graph;
#N canvas 0 22 450 278 (subpatch) 0;
#X array Instrumento6 16 float 3;
#A 0 1 0 0 1 0 0 1 0 0 1 0 0 1 0 0 1;
#X coords 0 1 15 -1 200 140 1;
#X restore 328 237 graph;
#X restore 396 292 pd arraylist;
#N canvas 61 49 924 947 instrumento 0;
#X obj 478 350 soundfiler;
#X floatatom 478 384 5 0 0 0 - - -;
#X obj 478 417 expr 44100 / $f1;
#X floatatom 478 451 5 0 0 0 - - -;
#X obj 478 484 *~;
#X obj 476 572 dac~;
#X obj 622 363 expr $f1 / 44100 * 1000;
#X floatatom 622 421 5 0 0 0 - - -;
#X obj 596 466 delay;
#X msg 553 455 0;
#N canvas 0 22 450 278 (subpatch) 0;
#X array Data2 13590 float 2;
#X coords 0 1 13590 -1 200 140 1 0 0;
#X restore 481 35 graph;
#X obj 452 243 loadbang;
#X obj 424 421 bng 15 250 50 0 empty empty empty 17 7 0 10 -262144
-1 -1;
#X msg 553 421 0;
#X obj 478 454 phasor~;
#X obj 476 538 tabread4~ Data2;
#X msg 478 316 read -resize \$1 Data2;
#X obj 317 268 r samplenumber;
#X obj 114 129 bng 15 250 50 0 empty empty empty 17 7 0 10 -262144
-1 -1;
#X msg 114 178 set Instrumento1;
#X obj 114 211 s tabs;
#X obj 326 414 spigot;
#X msg 479 282 open Muestras/Snare.wav;
#X obj 319 340 tabread Instrumento1;
#X obj 113 158 bng 15 250 50 0 empty empty empty 17 7 0 10 -262144
-1 -1;
#X obj 150 161 bng 15 250 50 0 empty empty empty 17 7 0 10 -262144
-1 -1;
#X connect 0 0 1 0;
#X connect 1 0 2 0;
#X connect 1 0 4 1;
#X connect 1 0 6 0;
#X connect 2 0 3 0;
#X connect 3 0 14 0;
#X connect 4 0 15 0;
#X connect 6 0 7 0;
#X connect 7 0 8 1;
#X connect 8 0 9 0;
#X connect 9 0 14 0;
#X connect 9 0 14 1;
#X connect 11 0 22 0;
#X connect 12 0 3 0;
#X connect 12 0 8 0;
#X connect 12 0 13 0;
#X connect 13 0 14 1;
#X connect 14 0 4 0;
#X connect 15 0 5 0;
#X connect 15 0 5 1;
#X connect 16 0 0 0;
#X connect 17 0 23 0;
#X connect 18 0 24 0;
#X connect 18 0 25 0;
#X connect 19 0 20 0;
#X connect 21 0 12 0;
#X connect 22 0 16 0;
#X connect 23 0 21 0;
#X connect 23 0 21 1;
#X connect 24 0 19 0;
#X connect 25 0 19 0;
#X coords 0 -1 1 1 50 60 1 100 100;
#X restore 100 100 pd instrumento;
#X obj -14 236 s samplenumber;
#N canvas 444 179 941 498 control 0;
#X obj 112 118 tgl 15 0 empty empty empty 17 7 0 10 -262144 -1 -1 0
1;
#X obj 130 118 tgl 15 0 empty empty empty 17 7 0 10 -262144 -1 -1 0
1;
#X obj 149 118 tgl 15 0 empty empty empty 17 7 0 10 -262144 -1 -1 0
1;
#X obj 185 118 tgl 15 0 empty empty empty 17 7 0 10 -262144 -1 -1 0
1;
#X obj 247 308 tabwrite;
#X msg 199 234 0;
#X msg 228 234 1;
#X msg 255 234 2;
#X msg 284 234 3;
#X msg 312 234 4;
#X obj 167 118 tgl 15 0 empty empty empty 17 7 0 10 -262144 -1 -1 0
1;
#X obj 141 79 tabread;
#X obj 193 79 tabread;
#X obj 243 79 tabread;
#X obj 293 79 tabread;
#X obj 343 79 tabread;
#X obj 107 40 bng 15 250 50 0 empty empty empty 17 7 0 10 -262144 -1
-1;
#X msg 198 29 0;
#X msg 224 29 1;
#X msg 250 29 2;
#X msg 276 29 3;
#X msg 300 29 4;
#X obj 203 118 tgl 15 0 empty empty empty 17 7 0 10 -262144 -1 -1 0
1;
#X obj 221 118 tgl 15 0 empty empty empty 17 7 0 10 -262144 -1 -1 0
1;
#X obj 240 118 tgl 15 0 empty empty empty 17 7 0 10 -262144 -1 -1 0
1;
#X obj 276 118 tgl 15 0 empty empty empty 17 7 0 10 -262144 -1 -1 0
1;
#X obj 258 118 tgl 15 0 empty empty empty 17 7 0 10 -262144 -1 -1 0
1;
#X obj 294 118 tgl 15 0 empty empty empty 17 7 0 10 -262144 -1 -1 0
1;
#X obj 312 118 tgl 15 0 empty empty empty 17 7 0 10 -262144 -1 -1 0
1;
#X obj 348 118 tgl 15 0 empty empty empty 17 7 0 10 -262144 -1 -1 0
1;
#X obj 330 118 tgl 15 0 empty empty empty 17 7 0 10 -262144 -1 -1 0
1;
#X obj 367 118 tgl 15 0 empty empty empty 17 7 0 10 -262144 -1 -1 0
1;
#X obj 385 118 tgl 15 0 empty empty empty 17 7 0 10 -262144 -1 -1 0
1;
#X obj 392 79 tabread;
#X obj 444 79 tabread;
#X obj 494 79 tabread;
#X obj 544 79 tabread;
#X obj 594 79 tabread;
#X msg 328 29 5;
#X msg 355 29 6;
#X msg 382 29 7;
#X msg 409 29 8;
#X msg 437 29 9;
#X msg 464 29 10;
#X msg 491 29 11;
#X msg 518 29 12;
#X msg 544 29 13;
#X msg 571 29 14;
#X msg 597 29 15;
#X obj 642 79 tabread;
#X obj 692 79 tabread;
#X obj 742 79 tabread;
#X obj 791 79 tabread;
#X obj 841 79 tabread;
#X obj 891 79 tabread;
#X msg 337 234 5;
#X msg 365 234 6;
#X msg 393 234 7;
#X msg 422 234 8;
#X msg 450 234 9;
#X msg 477 234 10;
#X msg 506 234 11;
#X msg 533 234 12;
#X msg 562 234 13;
#X msg 590 234 14;
#X msg 615 234 15;
#X obj 24 61 r tabs;
#X connect 0 0 5 0;
#X connect 0 0 4 0;
#X connect 1 0 6 0;
#X connect 1 0 4 0;
#X connect 2 0 7 0;
#X connect 2 0 4 0;
#X connect 3 0 9 0;
#X connect 3 0 4 0;
#X connect 5 0 4 1;
#X connect 6 0 4 1;
#X connect 7 0 4 1;
#X connect 8 0 4 1;
#X connect 9 0 4 1;
#X connect 10 0 8 0;
#X connect 10 0 4 0;
#X connect 11 0 0 0;
#X connect 12 0 1 0;
#X connect 13 0 2 0;
#X connect 14 0 10 0;
#X connect 15 0 3 0;
#X connect 16 0 17 0;
#X connect 16 0 18 0;
#X connect 16 0 19 0;
#X connect 16 0 20 0;
#X connect 16 0 21 0;
#X connect 16 0 38 0;
#X connect 16 0 39 0;
#X connect 16 0 40 0;
#X connect 16 0 41 0;
#X connect 16 0 42 0;
#X connect 16 0 43 0;
#X connect 16 0 44 0;
#X connect 16 0 45 0;
#X connect 16 0 46 0;
#X connect 16 0 47 0;
#X connect 16 0 48 0;
#X connect 17 0 11 0;
#X connect 18 0 12 0;
#X connect 19 0 13 0;
#X connect 20 0 14 0;
#X connect 21 0 15 0;
#X connect 22 0 55 0;
#X connect 22 0 4 0;
#X connect 23 0 56 0;
#X connect 23 0 4 0;
#X connect 24 0 57 0;
#X connect 24 0 4 0;
#X connect 25 0 59 0;
#X connect 25 0 4 0;
#X connect 26 0 58 0;
#X connect 26 0 4 0;
#X connect 27 0 60 0;
#X connect 27 0 4 0;
#X connect 28 0 61 0;
#X connect 28 0 4 0;
#X connect 29 0 63 0;
#X connect 29 0 4 0;
#X connect 30 0 62 0;
#X connect 30 0 4 0;
#X connect 31 0 64 0;
#X connect 31 0 4 0;
#X connect 32 0 65 0;
#X connect 32 0 4 0;
#X connect 33 0 22 0;
#X connect 34 0 23 0;
#X connect 35 0 24 0;
#X connect 36 0 26 0;
#X connect 37 0 25 0;
#X connect 38 0 33 0;
#X connect 39 0 34 0;
#X connect 40 0 35 0;
#X connect 41 0 36 0;
#X connect 42 0 37 0;
#X connect 43 0 49 0;
#X connect 44 0 50 0;
#X connect 45 0 51 0;
#X connect 46 0 52 0;
#X connect 47 0 53 0;
#X connect 48 0 54 0;
#X connect 49 0 27 0;
#X connect 50 0 28 0;
#X connect 51 0 30 0;
#X connect 52 0 29 0;
#X connect 53 0 31 0;
#X connect 54 0 32 0;
#X connect 55 0 4 1;
#X connect 56 0 4 1;
#X connect 57 0 4 1;
#X connect 58 0 4 1;
#X connect 59 0 4 1;
#X connect 60 0 4 1;
#X connect 61 0 4 1;
#X connect 62 0 4 1;
#X connect 63 0 4 1;
#X connect 64 0 4 1;
#X connect 65 0 4 1;
#X connect 66 0 16 0;
#X connect 66 0 11 0;
#X connect 66 0 12 0;
#X connect 66 0 13 0;
#X connect 66 0 14 0;
#X connect 66 0 15 0;
#X connect 66 0 33 0;
#X connect 66 0 34 0;
#X connect 66 0 35 0;
#X connect 66 0 36 0;
#X connect 66 0 37 0;
#X connect 66 0 49 0;
#X connect 66 0 50 0;
#X connect 66 0 51 0;
#X connect 66 0 52 0;
#X connect 66 0 53 0;
#X connect 66 0 54 0;
#X connect 66 0 4 0;
#X coords 0 -1 1 1 440 60 1 100 100;
#X restore 100 215 pd control;
#N canvas 135 377 924 947 instrumento 0;
#X obj 478 350 soundfiler;
#X floatatom 478 384 5 0 0 0 - - -;
#X obj 478 417 expr 44100 / $f1;
#X floatatom 478 451 5 0 0 0 - - -;
#X obj 478 484 *~;
#X obj 478 552 dac~;
#X obj 622 363 expr $f1 / 44100 * 1000;
#X floatatom 622 421 5 0 0 0 - - -;
#X obj 596 466 delay;
#X msg 553 455 0;
#N canvas 0 22 450 278 (subpatch) 0;
#X array Data3 9318 float 2;
#X coords 0 1 9318 -1 200 140 1 0 0;
#X restore 481 35 graph;
#X obj 452 243 loadbang;
#X obj 424 421 bng 15 250 50 0 empty empty empty 17 7 0 10 -262144
-1 -1;
#X msg 553 421 0;
#X obj 478 454 phasor~;
#X obj 293 348 r samplenumber;
#X obj 114 129 bng 15 250 50 0 empty empty empty 17 7 0 10 -262144
-1 -1;
#X obj 115 214 s tabs;
#X msg 478 282 open Muestras/Kick.wav;
#X msg 478 316 read -resize \$1 Data3;
#X msg 115 181 set Instrumento2;
#X obj 285 399 tabread Instrumento2;
#X obj 299 455 spigot;
#X obj 478 518 tabread4~ Data3;
#X obj 188 159 bng 15 250 50 0 empty empty empty 17 7 0 10 -262144
-1 -1;
#X obj 123 160 bng 15 250 50 0 empty empty empty 17 7 0 10 -262144
-1 -1;
#X connect 0 0 1 0;
#X connect 1 0 2 0;
#X connect 1 0 4 1;
#X connect 1 0 6 0;
#X connect 2 0 3 0;
#X connect 3 0 14 0;
#X connect 4 0 23 0;
#X connect 6 0 7 0;
#X connect 7 0 8 1;
#X connect 8 0 9 0;
#X connect 9 0 14 0;
#X connect 9 0 14 1;
#X connect 11 0 18 0;
#X connect 12 0 3 0;
#X connect 12 0 8 0;
#X connect 12 0 13 0;
#X connect 13 0 14 1;
#X connect 14 0 4 0;
#X connect 15 0 21 0;
#X connect 16 0 25 0;
#X connect 16 0 24 0;
#X connect 18 0 19 0;
#X connect 19 0 0 0;
#X connect 20 0 17 0;
#X connect 21 0 22 0;
#X connect 21 0 22 1;
#X connect 22 0 12 0;
#X connect 23 0 5 0;
#X connect 23 0 5 1;
#X connect 24 0 20 0;
#X connect 25 0 20 0;
#X coords 0 -1 1 1 50 60 1 100 100;
#X restore 188 100 pd instrumento;
#N canvas 135 377 924 947 instrumento 0;
#X obj 478 350 soundfiler;
#X floatatom 478 384 5 0 0 0 - - -;
#X obj 478 417 expr 44100 / $f1;
#X floatatom 478 451 5 0 0 0 - - -;
#X obj 478 484 *~;
#X obj 478 552 dac~;
#X obj 622 363 expr $f1 / 44100 * 1000;
#X floatatom 622 421 5 0 0 0 - - -;
#X obj 596 466 delay;
#X msg 553 455 0;
#N canvas 0 22 450 278 (subpatch) 0;
#X array Data4 2683 float 2;
#X coords 0 1 2683 -1 200 140 1 0 0;
#X restore 481 35 graph;
#X obj 452 243 loadbang;
#X obj 424 421 bng 15 250 50 0 empty empty empty 17 7 0 10 -262144
-1 -1;
#X msg 553 421 0;
#X obj 478 454 phasor~;
#X obj 293 348 r samplenumber;
#X obj 114 129 bng 15 250 50 0 empty empty empty 17 7 0 10 -262144
-1 -1;
#X obj 115 214 s tabs;
#X obj 299 455 spigot;
#X obj 188 159 bng 15 250 50 0 empty empty empty 17 7 0 10 -262144
-1 -1;
#X obj 123 160 bng 15 250 50 0 empty empty empty 17 7 0 10 -262144
-1 -1;
#X msg 478 282 open Muestras/Shaker.wav;
#X msg 478 316 read -resize \$1 Data4;
#X obj 478 518 tabread4~ Data4;
#X msg 115 181 set Instrumento3;
#X obj 285 399 tabread Instrumento3;
#X connect 0 0 1 0;
#X connect 1 0 2 0;
#X connect 1 0 4 1;
#X connect 1 0 6 0;
#X connect 2 0 3 0;
#X connect 3 0 14 0;
#X connect 4 0 23 0;
#X connect 6 0 7 0;
#X connect 7 0 8 1;
#X connect 8 0 9 0;
#X connect 9 0 14 0;
#X connect 9 0 14 1;
#X connect 11 0 21 0;
#X connect 12 0 3 0;
#X connect 12 0 8 0;
#X connect 12 0 13 0;
#X connect 13 0 14 1;
#X connect 14 0 4 0;
#X connect 15 0 25 0;
#X connect 16 0 20 0;
#X connect 16 0 19 0;
#X connect 18 0 12 0;
#X connect 19 0 24 0;
#X connect 20 0 24 0;
#X connect 21 0 22 0;
#X connect 22 0 0 0;
#X connect 23 0 5 0;
#X connect 23 0 5 1;
#X connect 24 0 17 0;
#X connect 25 0 18 0;
#X connect 25 0 18 1;
#X coords 0 -1 1 1 50 60 1 100 100;
#X restore 276 100 pd instrumento;
#N canvas 94 241 924 947 instrumento 0;
#X obj 478 350 soundfiler;
#X floatatom 478 384 5 0 0 0 - - -;
#X obj 478 417 expr 44100 / $f1;
#X floatatom 478 451 5 0 0 0 - - -;
#X obj 478 484 *~;
#X obj 477 613 dac~;
#X obj 622 363 expr $f1 / 44100 * 1000;
#X floatatom 622 421 5 0 0 0 - - -;
#X obj 596 466 delay;
#X msg 553 455 0;
#N canvas 0 22 450 278 (subpatch) 0;
#X array Data5 23634 float 2;
#X coords 0 1 23634 -1 200 140 1 0 0;
#X restore 481 35 graph;
#X obj 452 243 loadbang;
#X obj 424 421 bng 15 250 50 0 empty empty empty 17 7 0 10 -262144
-1 -1;
#X msg 553 421 0;
#X obj 478 454 phasor~;
#X obj 293 348 r samplenumber;
#X obj 114 129 bng 15 250 50 0 empty empty empty 17 7 0 10 -262144
-1 -1;
#X obj 115 214 s tabs;
#X obj 299 455 spigot;
#X obj 188 159 bng 15 250 50 0 empty empty empty 17 7 0 10 -262144
-1 -1;
#X obj 123 160 bng 15 250 50 0 empty empty empty 17 7 0 10 -262144
-1 -1;
#X msg 115 181 set Instrumento4;
#X obj 285 399 tabread Instrumento4;
#X msg 478 282 open Muestras/FX6.wav;
#X msg 478 316 read -resize \$1 Data5;
#X obj 475 538 tabread4~ Data5;
#X obj 720 448 vsl 15 128 0 1 0 0 empty empty empty 0 -9 0 10 -262144
-1 -1 0 1;
#X obj 486 514 *~;
#X obj 477 592 *~;
#X obj 763 538 vsl 15 128 0 1 0 0 empty empty empty 0 -9 0 10 -262144
-1 -1 0 1;
#X obj 786 423 r osc2;
#X connect 0 0 1 0;
#X connect 1 0 2 0;
#X connect 1 0 4 1;
#X connect 1 0 6 0;
#X connect 2 0 3 0;
#X connect 3 0 14 0;
#X connect 4 0 27 0;
#X connect 6 0 7 0;
#X connect 7 0 8 1;
#X connect 8 0 9 0;
#X connect 9 0 14 0;
#X connect 9 0 14 1;
#X connect 11 0 23 0;
#X connect 12 0 3 0;
#X connect 12 0 8 0;
#X connect 12 0 13 0;
#X connect 13 0 14 1;
#X connect 14 0 4 0;
#X connect 15 0 22 0;
#X connect 16 0 20 0;
#X connect 16 0 19 0;
#X connect 18 0 12 0;
#X connect 19 0 21 0;
#X connect 20 0 21 0;
#X connect 21 0 17 0;
#X connect 22 0 18 0;
#X connect 22 0 18 1;
#X connect 23 0 24 0;
#X connect 24 0 0 0;
#X connect 25 0 28 0;
#X connect 26 0 27 1;
#X connect 27 0 25 0;
#X connect 28 0 5 0;
#X connect 28 0 5 1;
#X connect 29 0 28 1;
#X connect 30 0 26 0;
#X coords 0 -1 1 1 50 60 1 100 100;
#X restore 364 100 pd instrumento;
#N canvas 214 183 924 947 instrumento 0;
#X obj 478 350 soundfiler;
#X floatatom 478 384 5 0 0 0 - - -;
#X obj 478 417 expr 44100 / $f1;
#X floatatom 478 451 5 0 0 0 - - -;
#X obj 478 484 *~;
#X obj 476 606 dac~;
#X obj 622 363 expr $f1 / 44100 * 1000;
#X floatatom 622 421 5 0 0 0 - - -;
#X obj 596 466 delay;
#X msg 553 455 0;
#N canvas 0 22 450 278 (subpatch) 0;
#X array Data6 15000 float 2;
#X coords 0 1 15000 -1 200 140 1 0 0;
#X restore 481 35 graph;
#X obj 452 243 loadbang;
#X obj 424 421 bng 15 250 50 0 empty empty empty 17 7 0 10 -262144
-1 -1;
#X msg 553 421 0;
#X obj 478 454 phasor~;
#X obj 293 348 r samplenumber;
#X obj 114 129 bng 15 250 50 0 empty empty empty 17 7 0 10 -262144
-1 -1;
#X obj 115 214 s tabs;
#X obj 299 455 spigot;
#X obj 188 159 bng 15 250 50 0 empty empty empty 17 7 0 10 -262144
-1 -1;
#X obj 123 160 bng 15 250 50 0 empty empty empty 17 7 0 10 -262144
-1 -1;
#X msg 115 181 set Instrumento5;
#X obj 285 399 tabread Instrumento5;
#X msg 480 316 read -resize \$1 Data6;
#X obj 478 539 tabread4~ Data6;
#X obj 709 437 vsl 15 128 0 2 0 0 empty empty empty 0 -9 0 10 -262144
-1 -1 0 1;
#X obj 480 516 *~;
#X obj 475 581 *~;
#X obj 566 566 vsl 15 128 0 1 0 0 empty empty empty 0 -9 0 10 -262144
-1 -1 6350 1;
#X msg 478 282 open Muestras/Hat002.wav;
#X obj 751 548 loadbang;
#X obj 802 371 r osc2;
#X msg 749 610 0.5;
#X connect 0 0 1 0;
#X connect 1 0 2 0;
#X connect 1 0 4 1;
#X connect 1 0 6 0;
#X connect 2 0 3 0;
#X connect 3 0 14 0;
#X connect 4 0 26 0;
#X connect 6 0 7 0;
#X connect 7 0 8 1;
#X connect 8 0 9 0;
#X connect 9 0 14 0;
#X connect 9 0 14 1;
#X connect 11 0 29 0;
#X connect 12 0 3 0;
#X connect 12 0 8 0;
#X connect 12 0 13 0;
#X connect 13 0 14 1;
#X connect 14 0 4 0;
#X connect 15 0 22 0;
#X connect 16 0 20 0;
#X connect 16 0 19 0;
#X connect 18 0 12 0;
#X connect 19 0 21 0;
#X connect 20 0 21 0;
#X connect 21 0 17 0;
#X connect 22 0 18 0;
#X connect 22 0 18 1;
#X connect 23 0 0 0;
#X connect 24 0 27 0;
#X connect 25 0 26 1;
#X connect 26 0 24 0;
#X connect 27 0 5 0;
#X connect 27 0 5 1;
#X connect 28 0 27 1;
#X connect 29 0 23 0;
#X connect 30 0 32 0;
#X connect 31 0 25 0;
#X connect 32 0 28 0;
#X coords 0 -1 1 1 50 60 1 100 100;
#X restore 452 100 pd instrumento;
#N canvas 809 206 924 947 instrumento 0;
#X obj 478 350 soundfiler;
#X floatatom 478 384 5 0 0 0 - - -;
#X obj 478 417 expr 44100 / $f1;
#X floatatom 478 451 5 0 0 0 - - -;
#X obj 478 484 *~;
#X obj 476 606 dac~;
#X obj 622 363 expr $f1 / 44100 * 1000;
#X floatatom 622 421 5 0 0 0 - - -;
#X obj 596 466 delay;
#X msg 553 455 0;
#N canvas 0 22 450 278 (subpatch) 0;
#X array Data7 13584 float 2;
#X coords 0 1 13584 -1 200 140 1 0 0;
#X restore 481 35 graph;
#X obj 452 243 loadbang;
#X obj 424 421 bng 15 250 50 0 empty empty empty 17 7 0 10 -262144
-1 -1;
#X msg 553 421 0;
#X obj 478 454 phasor~;
#X obj 293 348 r samplenumber;
#X obj 114 129 bng 15 250 50 0 empty empty empty 17 7 0 10 -262144
-1 -1;
#X obj 115 214 s tabs;
#X obj 299 455 spigot;
#X obj 188 159 bng 15 250 50 0 empty empty empty 17 7 0 10 -262144
-1 -1;
#X obj 123 160 bng 15 250 50 0 empty empty empty 17 7 0 10 -262144
-1 -1;
#X msg 480 316 read -resize \$1 Data6;
#X obj 478 539 tabread4~ Data6;
#X obj 709 437 vsl 15 128 0 2 0 0 empty empty empty 0 -9 0 10 -262144
-1 -1 0 1;
#X obj 480 516 *~;
#X obj 475 581 *~;
#X obj 566 566 vsl 15 128 0 1 0 0 empty empty empty 0 -9 0 10 -262144
-1 -1 6350 1;
#X msg 478 282 open Muestras/Snare1.wav;
#X obj 285 399 tabread Instrumento6;
#X msg 115 181 set Instrumento6;
#X obj 751 443 r osc2;
#X obj 630 654 loadbang;
#X msg 611 693 0.5;
#X connect 0 0 1 0;
#X connect 1 0 2 0;
#X connect 1 0 4 1;
#X connect 1 0 6 0;
#X connect 2 0 3 0;
#X connect 3 0 14 0;
#X connect 4 0 24 0;
#X connect 6 0 7 0;
#X connect 7 0 8 1;
#X connect 8 0 9 0;
#X connect 9 0 14 0;
#X connect 9 0 14 1;
#X connect 11 0 27 0;
#X connect 12 0 3 0;
#X connect 12 0 8 0;
#X connect 12 0 13 0;
#X connect 13 0 14 1;
#X connect 14 0 4 0;
#X connect 15 0 28 0;
#X connect 16 0 20 0;
#X connect 16 0 19 0;
#X connect 18 0 12 0;
#X connect 19 0 29 0;
#X connect 20 0 29 0;
#X connect 21 0 0 0;
#X connect 22 0 25 0;
#X connect 23 0 24 1;
#X connect 24 0 22 0;
#X connect 25 0 5 0;
#X connect 25 0 5 1;
#X connect 26 0 25 1;
#X connect 27 0 21 0;
#X connect 28 0 18 0;
#X connect 28 0 18 1;
#X connect 29 0 17 0;
#X connect 30 0 23 0;
#X connect 31 0 32 0;
#X connect 32 0 26 0;
#X coords 0 -1 1 1 50 60 1 100 100;
#X restore 555 123 pd instrumento;
#X connect 0 0 7 0;
#X connect 1 0 2 0;
#X connect 2 0 3 0;
#X connect 2 0 4 0;
#X connect 3 0 2 1;
#X connect 4 0 0 0;
#X coords 0 -1 1 1 440 175 1 100 100;
#X restore 23 107 pd SequencerWind;
