#N canvas 24 23 1066 755 10;
#N canvas 0 23 259 242 Tempo 0;
#X obj 124 175 metro;
#X floatatom 125 140 5 0 0 0 - - -;
#X obj 124 202 s tempo;
#X obj 132 118 tgl 15 0 empty empty empty 17 7 0 10 -262144 -1 -1 1
1;
#X obj 15 5 loadbang;
#X msg 15 32 250;
#X obj 132 3 r toggle;
#X obj 27 119 sel 0;
#X msg 53 173 \; pd dsp 1;
#X msg 26 142 \; pd dsp 0;
#X obj 68 61 expr (1-$f1)*($f2-$f3)+$f3;
#X msg 221 36 120;
#X obj 68 36 r tempomod;
#X connect 0 0 2 0;
#X connect 1 0 0 1;
#X connect 3 0 0 0;
#X connect 4 0 5 0;
#X connect 4 0 11 0;
#X connect 5 0 1 0;
#X connect 5 0 10 1;
#X connect 6 0 3 0;
#X connect 6 0 7 0;
#X connect 7 0 9 0;
#X connect 7 1 8 0;
#X connect 10 0 1 0;
#X connect 11 0 10 2;
#X connect 12 0 10 0;
#X coords 0 -1 1 1 85 60 1 100 100;
#X restore 130 5 pd Tempo;
#N canvas 317 164 450 300 oscRcvr 0;
#X obj 86 251 outlet;
#X obj 146 251 outlet;
#X obj 206 249 outlet;
#X obj 266 249 outlet;
#X obj 153 89 oscparse;
#X msg 153 26 listen 9001;
#X obj 153 58 netreceive -u -b;
#X obj 153 5 loadbang;
#X obj 153 114 list trim;
#X obj 11 152 route homicidio;
#X obj 116 151 route suicidio;
#X obj 214 151 route transporte;
#X obj 321 152 route toggle;
#X connect 4 0 8 0;
#X connect 5 0 6 0;
#X connect 6 0 4 0;
#X connect 7 0 5 0;
#X connect 8 0 9 0;
#X connect 8 0 10 0;
#X connect 8 0 11 0;
#X connect 8 0 12 0;
#X connect 9 0 0 0;
#X connect 10 0 1 0;
#X connect 11 0 2 0;
#X connect 12 0 3 0;
#X restore 29 7 pd oscRcvr;
#N canvas 348 23 932 755 SequencerWind 0;
#X obj 268 277 hradio 20 1 0 16 empty empty empty 0 -8 0 10 -262144
-1 -1 11;
#X obj 8 199 r tempo;
#X obj 8 230 int;
#X obj 36 230 + 1;
#X obj 8 261 mod 16;
#N canvas 192 23 1088 755 arraylist 0;
#N canvas 0 22 450 278 (subpatch) 0;
#X array Instrumento1 16 float 3;
#A 0 1 0 0 0 1 0 0 0 1 0 0 0 1 0 0 0;
#X coords 0 0 15 1 200 140 1 0 0;
#X restore 88 79 graph;
#N canvas 0 22 450 278 (subpatch) 0;
#X array Instrumento2 16 float 3;
#A 0 0 0 0 0 0 0 0 0 0 0 0 0 0 0 0 0;
#X coords 0 0 15 1 200 140 1 0 0;
#X restore 86 235 graph;
#N canvas 0 22 450 278 (subpatch) 0;
#X array Instrumento3 16 float 3;
#A 0 0 0 0 0 0 0 0 0 0 0 0 0 0 0 0 0;
#X coords 0 1 15 -1 200 140 1;
#X restore 87 398 graph;
#N canvas 0 22 450 278 (subpatch) 0;
#X array Instrumento4 16 float 3;
#A 0 0 0 0 0 0 0 0 0 0 0 0 0 0 0 0 0;
#X coords 0 1 15 -1 200 140 1;
#X restore 88 561 graph;
#N canvas 0 23 450 278 (subpatch) 0;
#X array Instrumento7 16 float 3;
#A 0 1 0 0 1 0 1 0 1 1 1 0 0 0 0 1 0;
#X coords 0 1 15 -1 200 140 1 0 0;
#X restore 328 401 graph;
#N canvas 0 22 450 278 (subpatch) 0;
#X array Instrumento6 16 float 3;
#A 0 1 0 0 0 1 0 0 0 1 0 0 0 1 0 0 0;
#X coords 0 1 15 -1 200 140 1;
#X restore 328 237 graph;
#N canvas 0 23 1280 755 (subpatch) 0;
#X array Instrumento8 16 float 3;
#A 0 0 1 0 1 1 0 0 1 1 0 0 0 1 0 0 1;
#X coords 0 1 15 -1 200 140 1;
#X restore 326 564 graph;
#N canvas 0 23 450 278 (subpatch) 0;
#X array Instrumento5 16 float 3;
#A 0 0 0 0 0 0 0 0 0 0 0 0 0 0 0 0 0;
#X coords 0 1 15 -1 200 140 1;
#X restore 324 77 graph;
#X restore 368 376 pd arraylist;
#X obj 268 416 s samplenumber;
#N canvas 232 182 941 498 control 0;
#X obj 181 120 tgl 15 0 empty empty empty 17 7 0 10 -262144 -1 -1 0
1;
#X obj 199 120 tgl 15 0 empty empty empty 17 7 0 10 -262144 -1 -1 0
1;
#X obj 218 120 tgl 15 0 empty empty empty 17 7 0 10 -262144 -1 -1 0
1;
#X obj 254 120 tgl 15 0 empty empty empty 17 7 0 10 -262144 -1 -1 0
1;
#X obj 247 308 tabwrite;
#X msg 199 234 0;
#X msg 228 234 1;
#X msg 255 234 2;
#X msg 284 234 3;
#X msg 312 234 4;
#X obj 236 120 tgl 15 0 empty empty empty 17 7 0 10 -262144 -1 -1 0
1;
#X obj 141 79 tabread;
#X obj 193 79 tabread;
#X obj 243 79 tabread;
#X obj 293 79 tabread;
#X obj 343 79 tabread;
#X obj 107 40 bng 15 250 50 0 empty empty empty 17 7 0 10 -262144 -1
-1;
#X msg 198 29 0;
#X msg 224 29 1;
#X msg 250 29 2;
#X msg 276 29 3;
#X msg 300 29 4;
#X obj 272 120 tgl 15 0 empty empty empty 17 7 0 10 -262144 -1 -1 0
1;
#X obj 290 120 tgl 15 0 empty empty empty 17 7 0 10 -262144 -1 -1 0
1;
#X obj 309 120 tgl 15 0 empty empty empty 17 7 0 10 -262144 -1 -1 0
1;
#X obj 345 120 tgl 15 0 empty empty empty 17 7 0 10 -262144 -1 -1 0
1;
#X obj 327 120 tgl 15 0 empty empty empty 17 7 0 10 -262144 -1 -1 0
1;
#X obj 363 120 tgl 15 0 empty empty empty 17 7 0 10 -262144 -1 -1 0
1;
#X obj 381 120 tgl 15 0 empty empty empty 17 7 0 10 -262144 -1 -1 0
1;
#X obj 417 120 tgl 15 0 empty empty empty 17 7 0 10 -262144 -1 -1 0
1;
#X obj 399 120 tgl 15 0 empty empty empty 17 7 0 10 -262144 -1 -1 0
1;
#X obj 436 120 tgl 15 0 empty empty empty 17 7 0 10 -262144 -1 -1 0
1;
#X obj 454 120 tgl 15 0 empty empty empty 17 7 0 10 -262144 -1 -1 0
1;
#X obj 392 79 tabread;
#X obj 444 79 tabread;
#X obj 494 79 tabread;
#X obj 544 79 tabread;
#X obj 594 79 tabread;
#X msg 328 29 5;
#X msg 355 29 6;
#X msg 382 29 7;
#X msg 409 29 8;
#X msg 437 29 9;
#X msg 464 29 10;
#X msg 491 29 11;
#X msg 518 29 12;
#X msg 544 29 13;
#X msg 571 29 14;
#X msg 597 29 15;
#X obj 642 79 tabread;
#X obj 692 79 tabread;
#X obj 742 79 tabread;
#X obj 791 79 tabread;
#X obj 841 79 tabread;
#X obj 891 79 tabread;
#X msg 337 234 5;
#X msg 365 234 6;
#X msg 393 234 7;
#X msg 422 234 8;
#X msg 450 234 9;
#X msg 477 234 10;
#X msg 506 234 11;
#X msg 533 234 12;
#X msg 562 234 13;
#X msg 590 234 14;
#X msg 615 234 15;
#X obj 24 61 r tabs;
#X connect 0 0 5 0;
#X connect 0 0 4 0;
#X connect 1 0 6 0;
#X connect 1 0 4 0;
#X connect 2 0 7 0;
#X connect 2 0 4 0;
#X connect 3 0 9 0;
#X connect 3 0 4 0;
#X connect 5 0 4 1;
#X connect 6 0 4 1;
#X connect 7 0 4 1;
#X connect 8 0 4 1;
#X connect 9 0 4 1;
#X connect 10 0 8 0;
#X connect 10 0 4 0;
#X connect 11 0 0 0;
#X connect 12 0 1 0;
#X connect 13 0 2 0;
#X connect 14 0 10 0;
#X connect 15 0 3 0;
#X connect 16 0 17 0;
#X connect 16 0 18 0;
#X connect 16 0 19 0;
#X connect 16 0 20 0;
#X connect 16 0 21 0;
#X connect 16 0 38 0;
#X connect 16 0 39 0;
#X connect 16 0 40 0;
#X connect 16 0 41 0;
#X connect 16 0 42 0;
#X connect 16 0 43 0;
#X connect 16 0 44 0;
#X connect 16 0 45 0;
#X connect 16 0 46 0;
#X connect 16 0 47 0;
#X connect 16 0 48 0;
#X connect 17 0 11 0;
#X connect 18 0 12 0;
#X connect 19 0 13 0;
#X connect 20 0 14 0;
#X connect 21 0 15 0;
#X connect 22 0 55 0;
#X connect 22 0 4 0;
#X connect 23 0 56 0;
#X connect 23 0 4 0;
#X connect 24 0 57 0;
#X connect 24 0 4 0;
#X connect 25 0 59 0;
#X connect 25 0 4 0;
#X connect 26 0 58 0;
#X connect 26 0 4 0;
#X connect 27 0 60 0;
#X connect 27 0 4 0;
#X connect 28 0 61 0;
#X connect 28 0 4 0;
#X connect 29 0 63 0;
#X connect 29 0 4 0;
#X connect 30 0 62 0;
#X connect 30 0 4 0;
#X connect 31 0 64 0;
#X connect 31 0 4 0;
#X connect 32 0 65 0;
#X connect 32 0 4 0;
#X connect 33 0 22 0;
#X connect 34 0 23 0;
#X connect 35 0 24 0;
#X connect 36 0 26 0;
#X connect 37 0 25 0;
#X connect 38 0 33 0;
#X connect 39 0 34 0;
#X connect 40 0 35 0;
#X connect 41 0 36 0;
#X connect 42 0 37 0;
#X connect 43 0 49 0;
#X connect 44 0 50 0;
#X connect 45 0 51 0;
#X connect 46 0 52 0;
#X connect 47 0 53 0;
#X connect 48 0 54 0;
#X connect 49 0 27 0;
#X connect 50 0 28 0;
#X connect 51 0 30 0;
#X connect 52 0 29 0;
#X connect 53 0 31 0;
#X connect 54 0 32 0;
#X connect 55 0 4 1;
#X connect 56 0 4 1;
#X connect 57 0 4 1;
#X connect 58 0 4 1;
#X connect 59 0 4 1;
#X connect 60 0 4 1;
#X connect 61 0 4 1;
#X connect 62 0 4 1;
#X connect 63 0 4 1;
#X connect 64 0 4 1;
#X connect 65 0 4 1;
#X connect 66 0 16 0;
#X connect 66 0 11 0;
#X connect 66 0 12 0;
#X connect 66 0 13 0;
#X connect 66 0 14 0;
#X connect 66 0 15 0;
#X connect 66 0 33 0;
#X connect 66 0 34 0;
#X connect 66 0 35 0;
#X connect 66 0 36 0;
#X connect 66 0 37 0;
#X connect 66 0 49 0;
#X connect 66 0 50 0;
#X connect 66 0 51 0;
#X connect 66 0 52 0;
#X connect 66 0 53 0;
#X connect 66 0 54 0;
#X connect 66 0 4 0;
#X coords 0 -1 1 1 440 60 1 100 100;
#X restore 205 305 pd control;
#N canvas 149 264 541 443 sample 0;
#X obj 371 62 r samplenumber;
#X obj 104 199 bng 15 250 50 0 empty empty Secuencia 17 7 0 10 -262144
-1 -1;
#X msg 102 255 set Instrumento1;
#X obj 102 296 s tabs;
#X obj 371 122 spigot;
#X obj 371 89 tabread Instrumento1;
#X obj 97 237 bng 15 250 50 0 empty empty empty 17 7 0 10 -262144 -1
-1;
#X obj 140 236 bng 15 250 50 0 empty empty empty 17 7 0 10 -262144
-1 -1;
#X obj 371 202 sel 0 1 2 3;
#X obj 371 146 bng 15 250 50 0 empty empty empty 17 7 0 10 -262144
-1 -1;
#X obj 456 130 bng 15 250 50 0 empty empty empty 17 7 0 10 -262144
-1 -1;
#X obj 467 151 bng 15 250 50 0 empty empty empty 17 7 0 10 -262144
-1 -1;
#X obj 476 171 bng 15 250 50 0 empty empty empty 17 7 0 10 -262144
-1 -1;
#X obj 482 207 bng 15 250 50 0 empty empty empty 17 7 0 10 -262144
-1 -1;
#X obj 107 178 hsl 60 15 0.6 2 0 0 empty empty pitch -2 -8 0 10 -262144
-1 -1 1686 0;
#X obj 371 172 random 4;
#N canvas 629 23 599 635 subsample1.1 0;
#X obj 287 299 soundfiler;
#X floatatom 287 321 5 0 0 0 - - -;
#X obj 285 407 expr 44100 / $f1;
#X floatatom 283 444 5 0 0 0 - - -;
#X obj 281 559 *~;
#X obj 429 400 expr $f1 / 44100 * 1000;
#X floatatom 429 437 7 0 0 0 - - -;
#X obj 398 536 delay;
#X msg 345 551 0;
#X obj 286 188 loadbang;
#X obj 136 345 bng 15 250 50 0 empty empty empty 17 7 0 10 -262144
-1 -1;
#X msg 387 434 0;
#X obj 281 526 phasor~;
#X msg 286 225 open Muestras/hb/hba1.wav;
#X msg 286 253 read -resize \$1 Data1;
#X obj 281 595 tabread4~ Data1;
#N canvas 0 23 450 278 (subpatch) 0;
#X array Data1 72745 float 2;
#X coords 0 1 72745 -1 200 140 1 0 0;
#X restore 27 33 graph;
#X obj 278 660 outlet~;
#X obj 35 325 inlet;
#X floatatom 65 365 5 0 2 0 - - -;
#X obj 136 315 inlet;
#X obj 277 363 /;
#X obj 435 583 bng 15 250 50 0 empty empty empty 17 7 0 10 -262144
-1 -1;
#X connect 0 0 1 0;
#X connect 1 0 4 1;
#X connect 1 0 21 0;
#X connect 2 0 3 0;
#X connect 3 0 12 0;
#X connect 4 0 15 0;
#X connect 5 0 6 0;
#X connect 6 0 7 1;
#X connect 7 0 22 0;
#X connect 7 0 8 0;
#X connect 8 0 12 0;
#X connect 9 0 13 0;
#X connect 9 0 10 0;
#X connect 10 0 3 0;
#X connect 10 0 7 0;
#X connect 10 0 11 0;
#X connect 10 0 1 0;
#X connect 11 0 12 1;
#X connect 12 0 4 0;
#X connect 13 0 14 0;
#X connect 14 0 0 0;
#X connect 15 0 17 0;
#X connect 18 0 19 0;
#X connect 19 0 21 1;
#X connect 20 0 10 0;
#X connect 21 0 2 0;
#X connect 21 0 5 0;
#X restore 296 246 pd subsample1.1;
#N canvas 0 23 638 527 subsample1.2 0;
#X obj 314 73 loadbang;
#X obj 314 190 soundfiler;
#X floatatom 314 212 5 0 0 0 - - -;
#X obj 312 286 expr 44100 / $f1;
#X floatatom 312 325 5 0 0 0 - - -;
#X obj 312 389 *~;
#X obj 456 279 expr $f1 / 44100 * 1000;
#X floatatom 456 316 5 0 0 0 - - -;
#X obj 429 366 delay;
#X msg 376 381 0;
#X msg 414 313 0;
#X obj 312 356 phasor~;
#N canvas 0 23 450 278 (subpatch) 0;
#X array Data1-2 86566 float 2;
#X coords 0 1 86566 -1 200 140 1 0 0;
#X restore 20 23 graph;
#X obj 242 334 bng 15 250 50 0 empty empty empty 17 7 0 10 -262144
-1 -1;
#X obj 241 283 inlet;
#X msg 314 134 read -resize \$1 Data1-2;
#X obj 312 425 tabread4~ Data1-2;
#X obj 311 482 outlet~;
#X obj 188 326 inlet;
#X msg 314 110 open Muestras/hb/hba2.wav;
#X obj 335 245 /;
#X floatatom 214 378 5 0 0 0 - - -;
#X connect 0 0 19 0;
#X connect 0 0 13 0;
#X connect 1 0 2 0;
#X connect 2 0 5 1;
#X connect 2 0 20 0;
#X connect 3 0 4 0;
#X connect 4 0 11 0;
#X connect 5 0 16 0;
#X connect 6 0 7 0;
#X connect 7 0 8 1;
#X connect 8 0 9 0;
#X connect 9 0 11 0;
#X connect 9 0 11 1;
#X connect 10 0 11 1;
#X connect 11 0 5 0;
#X connect 13 0 10 0;
#X connect 13 0 8 0;
#X connect 13 0 4 0;
#X connect 13 0 2 0;
#X connect 14 0 13 0;
#X connect 15 0 1 0;
#X connect 16 0 17 0;
#X connect 18 0 21 0;
#X connect 19 0 15 0;
#X connect 20 0 3 0;
#X connect 20 0 6 0;
#X connect 21 0 20 1;
#X restore 311 275 pd subsample1.2;
#N canvas 0 23 1280 755 subsample1.3 0;
#X obj 414 83 loadbang;
#X msg 414 148 read -resize \$1 Data1.3;
#X obj 342 219 soundfiler;
#X floatatom 342 241 5 0 0 0 - - -;
#X obj 341 370 expr 44100 / $f1;
#X floatatom 341 409 5 0 0 0 - - -;
#X obj 341 473 *~;
#X obj 485 363 expr $f1 / 44100 * 1000;
#X floatatom 485 400 5 0 0 0 - - -;
#X obj 458 450 delay;
#X msg 405 465 0;
#X msg 443 397 0;
#X obj 341 440 phasor~;
#N canvas 0 23 450 278 (subpatch) 0;
#X array Data1.3 88512 float 2;
#X coords 0 1 88512 -1 200 140 1 0 0;
#X restore 33 40 graph;
#X obj 204 255 bng 15 250 50 0 empty empty empty 17 7 0 10 -262144
-1 -1;
#X obj 201 215 inlet;
#X obj 341 509 tabread4~ Data1.3;
#X obj 340 550 outlet~;
#X msg 414 120 open Muestras/hb/hba3.wav;
#X obj 367 312 /;
#X obj 177 333 inlet;
#X floatatom 213 382 5 0 0 0 - - -;
#X connect 0 0 18 0;
#X connect 0 0 14 0;
#X connect 1 0 2 0;
#X connect 2 0 3 0;
#X connect 3 0 6 1;
#X connect 3 0 19 0;
#X connect 4 0 5 0;
#X connect 5 0 12 0;
#X connect 6 0 16 0;
#X connect 7 0 8 0;
#X connect 8 0 9 1;
#X connect 9 0 10 0;
#X connect 10 0 12 0;
#X connect 10 0 12 1;
#X connect 11 0 12 1;
#X connect 12 0 6 0;
#X connect 14 0 9 0;
#X connect 14 0 11 0;
#X connect 14 0 5 0;
#X connect 14 0 3 0;
#X connect 15 0 14 0;
#X connect 16 0 17 0;
#X connect 18 0 1 0;
#X connect 19 0 4 0;
#X connect 19 0 7 0;
#X connect 20 0 21 0;
#X connect 21 0 19 1;
#X restore 327 304 pd subsample1.3;
#N canvas 228 79 844 586 subsample1.4 0;
#N canvas 0 23 450 278 (subpatch) 0;
#X array Data1.4 85528 float 2;
#X coords 0 1 85528 -1 200 140 1 0 0;
#X restore 24 32 graph;
#X obj 298 62 loadbang;
#X msg 298 127 read -resize \$1 Data1.4;
#X obj 298 187 soundfiler;
#X floatatom 298 209 5 0 0 0 - - -;
#X obj 287 302 expr 44100 / $f1;
#X floatatom 287 341 5 0 0 0 - - -;
#X obj 287 405 *~;
#X obj 431 295 expr $f1 / 44100 * 1000;
#X floatatom 431 332 5 0 0 0 - - -;
#X obj 404 382 delay;
#X msg 351 397 0;
#X msg 389 329 0;
#X obj 287 372 phasor~;
#X obj 164 249 bng 15 250 50 0 empty empty empty 17 7 0 10 -262144
-1 -1;
#X obj 161 192 inlet;
#X obj 287 441 tabread4~ Data1.4;
#X obj 286 489 outlet~;
#X obj 103 269 inlet;
#X msg 298 99 open Muestras/hb/hba4.wav;
#X floatatom 175 316 5 0 0 0 - - -;
#X obj 325 255 /;
#X connect 1 0 19 0;
#X connect 1 0 14 0;
#X connect 2 0 3 0;
#X connect 3 0 4 0;
#X connect 4 0 7 1;
#X connect 4 0 21 0;
#X connect 5 0 6 0;
#X connect 6 0 13 0;
#X connect 7 0 16 0;
#X connect 8 0 9 0;
#X connect 9 0 10 1;
#X connect 10 0 11 0;
#X connect 11 0 13 0;
#X connect 11 0 13 1;
#X connect 12 0 13 1;
#X connect 13 0 7 0;
#X connect 14 0 12 0;
#X connect 14 0 10 0;
#X connect 14 0 6 0;
#X connect 14 0 4 0;
#X connect 15 0 14 0;
#X connect 16 0 17 0;
#X connect 18 0 20 0;
#X connect 19 0 2 0;
#X connect 20 0 21 1;
#X connect 21 0 5 0;
#X connect 21 0 8 0;
#X restore 343 334 pd subsample1.4;
#X obj 255 408 s~ samples1;
#X obj 107 145 hsl 60 15 0 1 0 0 empty empty volume -2 -8 0 10 -262144
-1 -1 1701 1;
#X obj 257 365 *~;
#X obj 23 45 loadbang;
#X msg 32 130 1;
#X obj 104 55 receive vol1;
#X msg 65 75 0.9;
#X text 105 104 1 Heartbeat;
#X connect 0 0 5 0;
#X connect 1 0 6 0;
#X connect 1 0 7 0;
#X connect 2 0 3 0;
#X connect 4 0 9 0;
#X connect 5 0 4 0;
#X connect 5 0 4 1;
#X connect 6 0 2 0;
#X connect 7 0 2 0;
#X connect 8 0 10 0;
#X connect 8 0 16 1;
#X connect 8 1 17 1;
#X connect 8 1 11 0;
#X connect 8 2 18 1;
#X connect 8 2 12 0;
#X connect 8 3 19 1;
#X connect 8 3 13 0;
#X connect 9 0 15 0;
#X connect 14 0 16 0;
#X connect 14 0 19 0;
#X connect 14 0 17 0;
#X connect 14 0 18 0;
#X connect 15 0 8 0;
#X connect 16 0 22 1;
#X connect 17 0 22 1;
#X connect 18 0 22 1;
#X connect 19 0 22 1;
#X connect 21 0 22 0;
#X connect 22 0 20 0;
#X connect 23 0 24 0;
#X connect 23 0 26 0;
#X connect 24 0 14 0;
#X connect 25 0 21 0;
#X connect 26 0 21 0;
#X coords 0 -1 1 1 80 120 2 100 100;
#X restore 100 132 pd sample 1;
#N canvas 512 26 541 443 sample 0;
#X obj 371 62 r samplenumber;
#X obj 104 199 bng 15 250 50 0 empty empty Secuencia 17 7 0 10 -262144
-1 -1;
#X obj 102 296 s tabs;
#X obj 371 122 spigot;
#X obj 97 237 bng 15 250 50 0 empty empty empty 17 7 0 10 -262144 -1
-1;
#X obj 140 236 bng 15 250 50 0 empty empty empty 17 7 0 10 -262144
-1 -1;
#X obj 371 202 sel 0 1 2 3;
#X obj 371 146 bng 15 250 50 0 empty empty empty 17 7 0 10 -262144
-1 -1;
#X obj 456 130 bng 15 250 50 0 empty empty empty 17 7 0 10 -262144
-1 -1;
#X obj 467 151 bng 15 250 50 0 empty empty empty 17 7 0 10 -262144
-1 -1;
#X obj 476 171 bng 15 250 50 0 empty empty empty 17 7 0 10 -262144
-1 -1;
#X obj 482 207 bng 15 250 50 0 empty empty empty 17 7 0 10 -262144
-1 -1;
#X obj 107 178 hsl 60 15 0.3 1.6 0 0 empty empty pitch -2 -8 0 10 -262144
-1 -1 3177 0;
#X obj 371 172 random 4;
#X msg 102 255 set Instrumento2;
#X obj 371 89 tabread Instrumento2;
#N canvas 521 23 599 635 subsample2.1 0;
#X obj 287 299 soundfiler;
#X floatatom 287 321 10 0 0 0 - - -;
#X obj 285 407 expr 44100 / $f1;
#X floatatom 283 444 5 0 0 0 - - -;
#X obj 281 559 *~;
#X obj 429 400 expr $f1 / 44100 * 1000;
#X floatatom 429 437 7 0 0 0 - - -;
#X obj 398 536 delay;
#X msg 345 551 0;
#X obj 286 188 loadbang;
#X obj 136 345 bng 15 250 50 0 empty empty empty 17 7 0 10 -262144
-1 -1;
#X msg 387 434 0;
#X obj 281 526 phasor~;
#N canvas 0 23 450 278 (subpatch) 0;
#X array Data2 132836 float 2;
#X coords 0 1 132836 -1 200 140 1 0 0;
#X restore 27 33 graph;
#X obj 278 660 outlet~;
#X obj 35 325 inlet;
#X floatatom 65 365 5 0 2 0 - - -;
#X obj 136 315 inlet;
#X obj 277 363 /;
#X obj 435 583 bng 15 250 50 0 empty empty empty 17 7 0 10 -262144
-1 -1;
#X msg 286 225 open Muestras/g/g1.wav;
#X msg 286 253 read -resize \$1 Data2;
#X obj 281 595 tabread4~ Data2;
#X connect 0 0 1 0;
#X connect 1 0 4 1;
#X connect 1 0 18 0;
#X connect 2 0 3 0;
#X connect 3 0 12 0;
#X connect 4 0 22 0;
#X connect 5 0 6 0;
#X connect 6 0 7 1;
#X connect 7 0 19 0;
#X connect 7 0 8 0;
#X connect 8 0 12 0;
#X connect 9 0 20 0;
#X connect 9 0 10 0;
#X connect 10 0 3 0;
#X connect 10 0 7 0;
#X connect 10 0 11 0;
#X connect 10 0 1 0;
#X connect 11 0 12 1;
#X connect 12 0 4 0;
#X connect 15 0 16 0;
#X connect 16 0 18 1;
#X connect 17 0 10 0;
#X connect 18 0 2 0;
#X connect 18 0 5 0;
#X connect 20 0 21 0;
#X connect 21 0 0 0;
#X connect 22 0 14 0;
#X restore 296 246 pd subsample2.1;
#N canvas 122 23 638 527 subsample2.2 0;
#X obj 314 73 loadbang;
#X obj 314 190 soundfiler;
#X floatatom 314 212 5 0 0 0 - - -;
#X obj 312 286 expr 44100 / $f1;
#X floatatom 312 325 5 0 0 0 - - -;
#X obj 312 389 *~;
#X obj 456 279 expr $f1 / 44100 * 1000;
#X floatatom 456 316 5 0 0 0 - - -;
#X obj 429 366 delay;
#X msg 376 381 0;
#X msg 414 313 0;
#X obj 312 356 phasor~;
#N canvas 0 23 450 278 (subpatch) 0;
#X array Data2.2 289325 float 2;
#X coords 0 1 289325 -1 200 140 1 0 0;
#X restore 20 23 graph;
#X obj 242 334 bng 15 250 50 0 empty empty empty 17 7 0 10 -262144
-1 -1;
#X obj 241 283 inlet;
#X obj 311 482 outlet~;
#X obj 188 326 inlet;
#X obj 335 245 /;
#X floatatom 214 378 5 0 0 0 - - -;
#X msg 314 110 open Muestras/g/g2.wav;
#X msg 314 134 read -resize \$1 Data2.2;
#X obj 312 425 tabread4~ Data2.2;
#X connect 0 0 19 0;
#X connect 0 0 13 0;
#X connect 1 0 2 0;
#X connect 2 0 5 1;
#X connect 2 0 17 0;
#X connect 3 0 4 0;
#X connect 4 0 11 0;
#X connect 5 0 21 0;
#X connect 6 0 7 0;
#X connect 7 0 8 1;
#X connect 8 0 9 0;
#X connect 9 0 11 0;
#X connect 9 0 11 1;
#X connect 10 0 11 1;
#X connect 11 0 5 0;
#X connect 13 0 10 0;
#X connect 13 0 8 0;
#X connect 13 0 4 0;
#X connect 13 0 2 0;
#X connect 14 0 13 0;
#X connect 16 0 18 0;
#X connect 17 0 3 0;
#X connect 17 0 6 0;
#X connect 18 0 17 1;
#X connect 19 0 20 0;
#X connect 20 0 1 0;
#X connect 21 0 15 0;
#X restore 308 273 pd subsample2.2;
#N canvas 0 23 732 619 subsample2.3 0;
#X obj 414 83 loadbang;
#X obj 342 219 soundfiler;
#X floatatom 342 241 5 0 0 0 - - -;
#X obj 341 370 expr 44100 / $f1;
#X floatatom 341 409 5 0 0 0 - - -;
#X obj 341 473 *~;
#X obj 485 363 expr $f1 / 44100 * 1000;
#X floatatom 485 400 5 0 0 0 - - -;
#X obj 458 450 delay;
#X msg 405 465 0;
#X msg 443 397 0;
#X obj 341 440 phasor~;
#N canvas 0 23 450 278 (subpatch) 0;
#X array Data2.3 294132 float 2;
#X coords 0 1 294132 -1 200 140 1 0 0;
#X restore 33 40 graph;
#X obj 204 255 bng 15 250 50 0 empty empty empty 17 7 0 10 -262144
-1 -1;
#X obj 201 215 inlet;
#X obj 340 550 outlet~;
#X obj 367 312 /;
#X obj 177 333 inlet;
#X floatatom 213 382 5 0 0 0 - - -;
#X msg 414 120 open Muestras/g/g3.wav;
#X msg 414 148 read -resize \$1 Data2.3;
#X obj 341 509 tabread4~ Data2.3;
#X connect 0 0 19 0;
#X connect 0 0 13 0;
#X connect 1 0 2 0;
#X connect 2 0 5 1;
#X connect 2 0 16 0;
#X connect 3 0 4 0;
#X connect 4 0 11 0;
#X connect 5 0 21 0;
#X connect 6 0 7 0;
#X connect 7 0 8 1;
#X connect 8 0 9 0;
#X connect 9 0 11 0;
#X connect 9 0 11 1;
#X connect 10 0 11 1;
#X connect 11 0 5 0;
#X connect 13 0 8 0;
#X connect 13 0 10 0;
#X connect 13 0 4 0;
#X connect 13 0 2 0;
#X connect 14 0 13 0;
#X connect 16 0 3 0;
#X connect 16 0 6 0;
#X connect 17 0 18 0;
#X connect 18 0 16 1;
#X connect 19 0 20 0;
#X connect 20 0 1 0;
#X connect 21 0 15 0;
#X restore 327 304 pd subsample2.3;
#N canvas 228 79 844 586 subsample2.4 0;
#N canvas 0 23 450 278 (subpatch) 0;
#X array Data2.4 227345 float 2;
#X coords 0 1 227345 -1 200 140 1 0 0;
#X restore 24 32 graph;
#X obj 298 62 loadbang;
#X obj 298 187 soundfiler;
#X floatatom 298 209 5 0 0 0 - - -;
#X obj 287 302 expr 44100 / $f1;
#X floatatom 287 341 5 0 0 0 - - -;
#X obj 287 405 *~;
#X obj 431 295 expr $f1 / 44100 * 1000;
#X floatatom 431 332 5 0 0 0 - - -;
#X obj 404 382 delay;
#X msg 351 397 0;
#X msg 389 329 0;
#X obj 287 372 phasor~;
#X obj 164 249 bng 15 250 50 0 empty empty empty 17 7 0 10 -262144
-1 -1;
#X obj 161 192 inlet;
#X obj 286 489 outlet~;
#X obj 103 269 inlet;
#X floatatom 175 316 5 0 0 0 - - -;
#X obj 325 255 /;
#X msg 298 99 open Muestras/g/g4.wav;
#X msg 298 127 read -resize \$1 Data2.4;
#X obj 287 441 tabread4~ Data2.4;
#X connect 1 0 19 0;
#X connect 1 0 13 0;
#X connect 2 0 3 0;
#X connect 3 0 6 1;
#X connect 3 0 18 0;
#X connect 4 0 5 0;
#X connect 5 0 12 0;
#X connect 6 0 21 0;
#X connect 7 0 8 0;
#X connect 8 0 9 1;
#X connect 9 0 10 0;
#X connect 10 0 12 0;
#X connect 10 0 12 1;
#X connect 11 0 12 1;
#X connect 12 0 6 0;
#X connect 13 0 11 0;
#X connect 13 0 9 0;
#X connect 13 0 5 0;
#X connect 13 0 3 0;
#X connect 14 0 13 0;
#X connect 16 0 17 0;
#X connect 17 0 18 1;
#X connect 18 0 4 0;
#X connect 18 0 7 0;
#X connect 19 0 20 0;
#X connect 20 0 2 0;
#X connect 21 0 15 0;
#X restore 343 334 pd subsample2.4;
#X obj 233 390 s~ samples2;
#X obj 107 147 hsl 60 15 0 1 0 0 empty empty volume -2 -8 0 10 -262144
-1 -1 1701 1;
#X obj 233 361 *~;
#X obj 21 34 loadbang;
#X msg 48 126 1;
#X obj 104 42 receive vol2;
#X msg 84 74 0.2;
#X text 116 103 2 Gunshot;
#X connect 0 0 15 0;
#X connect 1 0 4 0;
#X connect 1 0 5 0;
#X connect 3 0 7 0;
#X connect 4 0 14 0;
#X connect 5 0 14 0;
#X connect 6 0 8 0;
#X connect 6 0 16 1;
#X connect 6 1 17 1;
#X connect 6 1 9 0;
#X connect 6 2 18 1;
#X connect 6 2 10 0;
#X connect 6 3 19 1;
#X connect 6 3 11 0;
#X connect 7 0 13 0;
#X connect 12 0 16 0;
#X connect 12 0 19 0;
#X connect 12 0 17 0;
#X connect 12 0 18 0;
#X connect 13 0 6 0;
#X connect 14 0 2 0;
#X connect 15 0 3 0;
#X connect 15 0 3 1;
#X connect 16 0 22 1;
#X connect 17 0 22 1;
#X connect 18 0 22 1;
#X connect 19 0 22 1;
#X connect 21 0 22 0;
#X connect 22 0 20 0;
#X connect 23 0 26 0;
#X connect 23 0 24 0;
#X connect 24 0 12 0;
#X connect 25 0 21 0;
#X connect 26 0 21 0;
#X coords 0 -1 1 1 80 120 2 100 100;
#X restore 192 132 pd sample 2;
#N canvas 476 35 541 443 sample 0;
#X obj 371 62 r samplenumber;
#X obj 104 199 bng 15 250 50 0 empty empty Secuencia 17 7 0 10 -262144
-1 -1;
#X obj 102 296 s tabs;
#X obj 371 122 spigot;
#X obj 97 237 bng 15 250 50 0 empty empty empty 17 7 0 10 -262144 -1
-1;
#X obj 140 236 bng 15 250 50 0 empty empty empty 17 7 0 10 -262144
-1 -1;
#X obj 371 202 sel 0 1 2 3;
#X obj 371 146 bng 15 250 50 0 empty empty empty 17 7 0 10 -262144
-1 -1;
#X obj 456 130 bng 15 250 50 0 empty empty empty 17 7 0 10 -262144
-1 -1;
#X obj 467 151 bng 15 250 50 0 empty empty empty 17 7 0 10 -262144
-1 -1;
#X obj 476 171 bng 15 250 50 0 empty empty empty 17 7 0 10 -262144
-1 -1;
#X obj 482 207 bng 15 250 50 0 empty empty empty 17 7 0 10 -262144
-1 -1;
#X obj 107 178 hsl 60 15 0.3 1.6 0 0 empty empty pitch -2 -8 0 10 -262144
-1 -1 3177 0;
#X obj 371 172 random 4;
#X obj 107 147 hsl 60 15 0 1 0 0 empty empty volume -2 -8 0 10 -262144
-1 -1 3682 1;
#X obj 233 361 *~;
#X msg 102 255 set Instrumento3;
#X obj 233 390 s~ samples3;
#X obj 371 89 tabread Instrumento3;
#N canvas 521 23 599 635 subsample3.1 0;
#X obj 287 299 soundfiler;
#X floatatom 287 321 10 0 0 0 - - -;
#X obj 285 407 expr 44100 / $f1;
#X floatatom 283 444 5 0 0 0 - - -;
#X obj 281 559 *~;
#X obj 429 400 expr $f1 / 44100 * 1000;
#X floatatom 429 437 7 0 0 0 - - -;
#X obj 398 536 delay;
#X msg 345 551 0;
#X obj 286 188 loadbang;
#X obj 136 345 bng 15 250 50 0 empty empty empty 17 7 0 10 -262144
-1 -1;
#X msg 387 434 0;
#X obj 281 526 phasor~;
#N canvas 0 23 450 278 (subpatch) 0;
#X array Data3 170009 float 2;
#X coords 0 1 170009 -1 200 140 1 0 0;
#X restore 27 33 graph;
#X obj 278 660 outlet~;
#X obj 35 325 inlet;
#X floatatom 65 365 5 0 2 0 - - -;
#X obj 136 315 inlet;
#X obj 277 363 /;
#X obj 435 583 bng 15 250 50 0 empty empty empty 17 7 0 10 -262144
-1 -1;
#X msg 286 253 read -resize \$1 Data3;
#X obj 281 595 tabread4~ Data3;
#X msg 286 225 open Muestras/c/c1.wav;
#X connect 0 0 1 0;
#X connect 1 0 4 1;
#X connect 1 0 18 0;
#X connect 2 0 3 0;
#X connect 3 0 12 0;
#X connect 4 0 21 0;
#X connect 5 0 6 0;
#X connect 6 0 7 1;
#X connect 7 0 19 0;
#X connect 7 0 8 0;
#X connect 8 0 12 0;
#X connect 9 0 22 0;
#X connect 9 0 10 0;
#X connect 10 0 3 0;
#X connect 10 0 7 0;
#X connect 10 0 11 0;
#X connect 10 0 1 0;
#X connect 11 0 12 1;
#X connect 12 0 4 0;
#X connect 15 0 16 0;
#X connect 16 0 18 1;
#X connect 17 0 10 0;
#X connect 18 0 2 0;
#X connect 18 0 5 0;
#X connect 20 0 0 0;
#X connect 21 0 14 0;
#X connect 22 0 20 0;
#X restore 296 246 pd subsample3.1;
#N canvas 122 23 638 527 subsample3.2 0;
#X obj 314 73 loadbang;
#X obj 314 190 soundfiler;
#X floatatom 314 212 5 0 0 0 - - -;
#X obj 312 286 expr 44100 / $f1;
#X floatatom 312 325 5 0 0 0 - - -;
#X obj 312 389 *~;
#X obj 456 279 expr $f1 / 44100 * 1000;
#X floatatom 456 316 5 0 0 0 - - -;
#X obj 429 366 delay;
#X msg 376 381 0;
#X msg 414 313 0;
#X obj 312 356 phasor~;
#N canvas 0 23 450 278 (subpatch) 0;
#X array Data3.2 135972 float 2;
#X coords 0 1 135972 -1 200 140 1 0 0;
#X restore 20 23 graph;
#X obj 242 334 bng 15 250 50 0 empty empty empty 17 7 0 10 -262144
-1 -1;
#X obj 241 283 inlet;
#X obj 311 482 outlet~;
#X obj 188 326 inlet;
#X obj 335 245 /;
#X floatatom 214 378 5 0 0 0 - - -;
#X msg 314 134 read -resize \$1 Data3.2;
#X obj 312 425 tabread4~ Data3.2;
#X msg 314 110 open Muestras/c/c2.wav;
#X connect 0 0 21 0;
#X connect 0 0 13 0;
#X connect 1 0 2 0;
#X connect 2 0 5 1;
#X connect 2 0 17 0;
#X connect 3 0 4 0;
#X connect 4 0 11 0;
#X connect 5 0 20 0;
#X connect 6 0 7 0;
#X connect 7 0 8 1;
#X connect 8 0 9 0;
#X connect 9 0 11 0;
#X connect 9 0 11 1;
#X connect 10 0 11 1;
#X connect 11 0 5 0;
#X connect 13 0 10 0;
#X connect 13 0 8 0;
#X connect 13 0 4 0;
#X connect 13 0 2 0;
#X connect 14 0 13 0;
#X connect 16 0 18 0;
#X connect 17 0 3 0;
#X connect 17 0 6 0;
#X connect 18 0 17 1;
#X connect 19 0 1 0;
#X connect 20 0 15 0;
#X connect 21 0 19 0;
#X restore 308 273 pd subsample3.2;
#N canvas 289 57 664 612 subsample3.3 0;
#X obj 414 83 loadbang;
#X obj 342 219 soundfiler;
#X floatatom 342 241 5 0 0 0 - - -;
#X obj 341 370 expr 44100 / $f1;
#X floatatom 341 409 5 0 0 0 - - -;
#X obj 341 473 *~;
#X obj 485 363 expr $f1 / 44100 * 1000;
#X floatatom 485 400 5 0 0 0 - - -;
#X obj 458 450 delay;
#X msg 405 465 0;
#X msg 443 397 0;
#X obj 341 440 phasor~;
#N canvas 0 23 450 278 (subpatch) 0;
#X array Data3.3 131748 float 2;
#X coords 0 1 131748 -1 200 140 1 0 0;
#X restore 33 40 graph;
#X obj 204 255 bng 15 250 50 0 empty empty empty 17 7 0 10 -262144
-1 -1;
#X obj 201 215 inlet;
#X obj 340 550 outlet~;
#X obj 367 312 /;
#X obj 177 333 inlet;
#X floatatom 213 382 5 0 0 0 - - -;
#X msg 414 148 read -resize \$1 Data3.3;
#X obj 341 509 tabread4~ Data3.3;
#X msg 414 120 open Muestras/c/c3.wav;
#X connect 0 0 21 0;
#X connect 0 0 13 0;
#X connect 1 0 2 0;
#X connect 2 0 5 1;
#X connect 2 0 16 0;
#X connect 3 0 4 0;
#X connect 4 0 11 0;
#X connect 5 0 20 0;
#X connect 6 0 7 0;
#X connect 7 0 8 1;
#X connect 8 0 9 0;
#X connect 9 0 11 0;
#X connect 9 0 11 1;
#X connect 10 0 11 1;
#X connect 11 0 5 0;
#X connect 13 0 8 0;
#X connect 13 0 10 0;
#X connect 13 0 4 0;
#X connect 13 0 2 0;
#X connect 14 0 13 0;
#X connect 16 0 3 0;
#X connect 16 0 6 0;
#X connect 17 0 18 0;
#X connect 18 0 16 1;
#X connect 19 0 1 0;
#X connect 20 0 15 0;
#X connect 21 0 19 0;
#X restore 327 304 pd subsample3.3;
#N canvas 228 79 844 586 subsample3.4 0;
#N canvas 0 23 450 278 (subpatch) 0;
#X array Data3.4 108545 float 2;
#X coords 0 1 108545 -1 200 140 1 0 0;
#X restore 24 32 graph;
#X obj 298 62 loadbang;
#X obj 298 187 soundfiler;
#X floatatom 298 209 5 0 0 0 - - -;
#X obj 287 302 expr 44100 / $f1;
#X floatatom 287 341 5 0 0 0 - - -;
#X obj 287 405 *~;
#X obj 431 295 expr $f1 / 44100 * 1000;
#X floatatom 431 332 5 0 0 0 - - -;
#X obj 404 382 delay;
#X msg 351 397 0;
#X msg 389 329 0;
#X obj 287 372 phasor~;
#X obj 164 249 bng 15 250 50 0 empty empty empty 17 7 0 10 -262144
-1 -1;
#X obj 161 192 inlet;
#X obj 286 489 outlet~;
#X obj 103 269 inlet;
#X floatatom 175 316 5 0 0 0 - - -;
#X obj 325 255 /;
#X msg 298 127 read -resize \$1 Data3.4;
#X obj 287 441 tabread4~ Data3.4;
#X msg 298 99 open Muestras/c/c4.wav;
#X connect 1 0 21 0;
#X connect 1 0 13 0;
#X connect 2 0 3 0;
#X connect 3 0 6 1;
#X connect 3 0 18 0;
#X connect 4 0 5 0;
#X connect 5 0 12 0;
#X connect 6 0 20 0;
#X connect 7 0 8 0;
#X connect 8 0 9 1;
#X connect 9 0 10 0;
#X connect 10 0 12 0;
#X connect 10 0 12 1;
#X connect 11 0 12 1;
#X connect 12 0 6 0;
#X connect 13 0 11 0;
#X connect 13 0 9 0;
#X connect 13 0 5 0;
#X connect 13 0 3 0;
#X connect 14 0 13 0;
#X connect 16 0 17 0;
#X connect 17 0 18 1;
#X connect 18 0 4 0;
#X connect 18 0 7 0;
#X connect 19 0 2 0;
#X connect 20 0 15 0;
#X connect 21 0 19 0;
#X restore 343 334 pd subsample3.4;
#X obj 33 65 loadbang;
#X msg 24 127 1;
#X obj 104 70 receive vol3;
#X msg 57 100 0.2;
#X text 106 103 3 car crash;
#X connect 0 0 18 0;
#X connect 1 0 4 0;
#X connect 1 0 5 0;
#X connect 3 0 7 0;
#X connect 4 0 16 0;
#X connect 5 0 16 0;
#X connect 6 0 8 0;
#X connect 6 0 19 1;
#X connect 6 1 20 1;
#X connect 6 1 9 0;
#X connect 6 2 21 1;
#X connect 6 2 10 0;
#X connect 6 3 22 1;
#X connect 6 3 11 0;
#X connect 7 0 13 0;
#X connect 12 0 19 0;
#X connect 12 0 22 0;
#X connect 12 0 20 0;
#X connect 12 0 21 0;
#X connect 13 0 6 0;
#X connect 14 0 15 0;
#X connect 15 0 17 0;
#X connect 16 0 2 0;
#X connect 18 0 3 0;
#X connect 18 0 3 1;
#X connect 19 0 15 1;
#X connect 20 0 15 1;
#X connect 21 0 15 1;
#X connect 22 0 15 1;
#X connect 23 0 24 0;
#X connect 23 0 26 0;
#X connect 24 0 12 0;
#X connect 25 0 14 0;
#X connect 26 0 14 0;
#X coords 0 -1 1 1 80 120 2 100 100;
#X restore 286 132 pd sample 3;
#N canvas 512 33 541 443 sample 0;
#X obj 371 62 r samplenumber;
#X obj 104 199 bng 15 250 50 0 empty empty Secuencia 17 7 0 10 -262144
-1 -1;
#X obj 102 296 s tabs;
#X obj 371 122 spigot;
#X obj 97 237 bng 15 250 50 0 empty empty empty 17 7 0 10 -262144 -1
-1;
#X obj 140 236 bng 15 250 50 0 empty empty empty 17 7 0 10 -262144
-1 -1;
#X obj 371 202 sel 0 1 2 3;
#X obj 371 146 bng 15 250 50 0 empty empty empty 17 7 0 10 -262144
-1 -1;
#X obj 456 130 bng 15 250 50 0 empty empty empty 17 7 0 10 -262144
-1 -1;
#X obj 467 151 bng 15 250 50 0 empty empty empty 17 7 0 10 -262144
-1 -1;
#X obj 476 171 bng 15 250 50 0 empty empty empty 17 7 0 10 -262144
-1 -1;
#X obj 482 207 bng 15 250 50 0 empty empty empty 17 7 0 10 -262144
-1 -1;
#X obj 107 178 hsl 60 15 0.3 1.6 0 0 empty empty pitch -2 -8 0 10 -262144
-1 -1 3177 0;
#X obj 371 172 random 4;
#X obj 107 147 hsl 60 15 0 1 0 0 empty empty volume -2 -8 0 10 -262144
-1 -1 1701 1;
#X obj 233 361 *~;
#X msg 102 255 set Instrumento4;
#X obj 371 89 tabread Instrumento4;
#N canvas 396 115 599 635 subsample4.1 0;
#X obj 287 299 soundfiler;
#X floatatom 287 321 10 0 0 0 - - -;
#X obj 285 407 expr 44100 / $f1;
#X floatatom 283 444 5 0 0 0 - - -;
#X obj 281 559 *~;
#X obj 429 400 expr $f1 / 44100 * 1000;
#X floatatom 429 437 7 0 0 0 - - -;
#X obj 398 536 delay;
#X msg 345 551 0;
#X obj 286 188 loadbang;
#X obj 136 345 bng 15 250 50 0 empty empty empty 17 7 0 10 -262144
-1 -1;
#X msg 387 434 0;
#X obj 281 526 phasor~;
#N canvas 0 23 450 278 (subpatch) 0;
#X array Data4 236472 float 2;
#X coords 0 1 236472 -1 200 140 1 0 0;
#X restore 27 33 graph;
#X obj 278 660 outlet~;
#X obj 35 325 inlet;
#X floatatom 65 365 5 0 2 0 - - -;
#X obj 136 315 inlet;
#X obj 277 363 /;
#X obj 435 583 bng 15 250 50 0 empty empty empty 17 7 0 10 -262144
-1 -1;
#X msg 286 253 read -resize \$1 Data4;
#X obj 281 595 tabread4~ Data4;
#X msg 286 225 open Muestras/g/gbs1.wav;
#X connect 0 0 1 0;
#X connect 1 0 4 1;
#X connect 1 0 18 0;
#X connect 2 0 3 0;
#X connect 3 0 12 0;
#X connect 4 0 21 0;
#X connect 5 0 6 0;
#X connect 6 0 7 1;
#X connect 7 0 19 0;
#X connect 7 0 8 0;
#X connect 8 0 12 0;
#X connect 9 0 22 0;
#X connect 9 0 10 0;
#X connect 10 0 3 0;
#X connect 10 0 7 0;
#X connect 10 0 11 0;
#X connect 10 0 1 0;
#X connect 11 0 12 1;
#X connect 12 0 4 0;
#X connect 15 0 16 0;
#X connect 16 0 18 1;
#X connect 17 0 10 0;
#X connect 18 0 2 0;
#X connect 18 0 5 0;
#X connect 20 0 0 0;
#X connect 21 0 14 0;
#X connect 22 0 20 0;
#X restore 296 246 pd subsample4.1;
#N canvas 122 23 638 527 subsample4.2 0;
#X obj 314 73 loadbang;
#X obj 314 190 soundfiler;
#X floatatom 314 212 5 0 0 0 - - -;
#X obj 312 286 expr 44100 / $f1;
#X floatatom 312 325 5 0 0 0 - - -;
#X obj 312 389 *~;
#X obj 456 279 expr $f1 / 44100 * 1000;
#X floatatom 456 316 5 0 0 0 - - -;
#X obj 429 366 delay;
#X msg 376 381 0;
#X msg 414 313 0;
#X obj 312 356 phasor~;
#N canvas 0 23 450 278 (subpatch) 0;
#X array Data4.2 343344 float 2;
#X coords 0 1 343344 -1 200 140 1 0 0;
#X restore 20 23 graph;
#X obj 242 334 bng 15 250 50 0 empty empty empty 17 7 0 10 -262144
-1 -1;
#X obj 241 283 inlet;
#X obj 311 482 outlet~;
#X obj 188 326 inlet;
#X obj 335 245 /;
#X floatatom 214 378 5 0 0 0 - - -;
#X msg 314 134 read -resize \$1 Data4.2;
#X obj 312 425 tabread4~ Data4.2;
#X msg 314 110 open Muestras/g/gbs2.wav;
#X connect 0 0 21 0;
#X connect 0 0 13 0;
#X connect 1 0 2 0;
#X connect 2 0 5 1;
#X connect 2 0 17 0;
#X connect 3 0 4 0;
#X connect 4 0 11 0;
#X connect 5 0 20 0;
#X connect 6 0 7 0;
#X connect 7 0 8 1;
#X connect 8 0 9 0;
#X connect 9 0 11 0;
#X connect 9 0 11 1;
#X connect 10 0 11 1;
#X connect 11 0 5 0;
#X connect 13 0 10 0;
#X connect 13 0 8 0;
#X connect 13 0 4 0;
#X connect 13 0 2 0;
#X connect 14 0 13 0;
#X connect 16 0 18 0;
#X connect 17 0 3 0;
#X connect 17 0 6 0;
#X connect 18 0 17 1;
#X connect 19 0 1 0;
#X connect 20 0 15 0;
#X connect 21 0 19 0;
#X restore 308 273 pd subsample4.2;
#N canvas 289 57 664 612 subsample4.3 0;
#X obj 414 83 loadbang;
#X obj 342 219 soundfiler;
#X floatatom 342 241 5 0 0 0 - - -;
#X obj 341 370 expr 44100 / $f1;
#X floatatom 341 409 5 0 0 0 - - -;
#X obj 341 473 *~;
#X obj 485 363 expr $f1 / 44100 * 1000;
#X floatatom 485 400 5 0 0 0 - - -;
#X obj 458 450 delay;
#X msg 405 465 0;
#X msg 443 397 0;
#X obj 341 440 phasor~;
#N canvas 0 23 450 278 (subpatch) 0;
#X array Data4.3 273880 float 2;
#X coords 0 1 273880 -1 200 140 1 0 0;
#X restore 33 40 graph;
#X obj 204 255 bng 15 250 50 0 empty empty empty 17 7 0 10 -262144
-1 -1;
#X obj 201 215 inlet;
#X obj 340 550 outlet~;
#X obj 367 312 /;
#X obj 177 333 inlet;
#X floatatom 213 382 5 0 0 0 - - -;
#X msg 414 148 read -resize \$1 Data4.3;
#X obj 341 509 tabread4~ Data4.3;
#X msg 414 120 open Muestras/g/gbs3.wav;
#X connect 0 0 21 0;
#X connect 0 0 13 0;
#X connect 1 0 2 0;
#X connect 2 0 5 1;
#X connect 2 0 16 0;
#X connect 3 0 4 0;
#X connect 4 0 11 0;
#X connect 5 0 20 0;
#X connect 6 0 7 0;
#X connect 7 0 8 1;
#X connect 8 0 9 0;
#X connect 9 0 11 0;
#X connect 9 0 11 1;
#X connect 10 0 11 1;
#X connect 11 0 5 0;
#X connect 13 0 8 0;
#X connect 13 0 10 0;
#X connect 13 0 4 0;
#X connect 13 0 2 0;
#X connect 14 0 13 0;
#X connect 16 0 3 0;
#X connect 16 0 6 0;
#X connect 17 0 18 0;
#X connect 18 0 16 1;
#X connect 19 0 1 0;
#X connect 20 0 15 0;
#X connect 21 0 19 0;
#X restore 327 304 pd subsample4.3;
#N canvas 228 79 844 586 subsample4.4 0;
#N canvas 0 23 450 278 (subpatch) 0;
#X array Data4.4 258061 float 2;
#X coords 0 1 258061 -1 200 140 1 0 0;
#X restore 24 32 graph;
#X obj 298 62 loadbang;
#X obj 298 187 soundfiler;
#X floatatom 298 209 5 0 0 0 - - -;
#X obj 287 302 expr 44100 / $f1;
#X floatatom 287 341 5 0 0 0 - - -;
#X obj 287 405 *~;
#X obj 431 295 expr $f1 / 44100 * 1000;
#X floatatom 431 332 5 0 0 0 - - -;
#X obj 404 382 delay;
#X msg 351 397 0;
#X msg 389 329 0;
#X obj 287 372 phasor~;
#X obj 164 249 bng 15 250 50 0 empty empty empty 17 7 0 10 -262144
-1 -1;
#X obj 161 192 inlet;
#X obj 286 489 outlet~;
#X obj 103 269 inlet;
#X floatatom 175 316 5 0 0 0 - - -;
#X obj 325 255 /;
#X msg 298 127 read -resize \$1 Data4.4;
#X obj 287 441 tabread4~ Data4.4;
#X msg 298 99 open Muestras/g/gbs4.wav;
#X connect 1 0 21 0;
#X connect 1 0 13 0;
#X connect 2 0 3 0;
#X connect 3 0 6 1;
#X connect 3 0 18 0;
#X connect 4 0 5 0;
#X connect 5 0 12 0;
#X connect 6 0 20 0;
#X connect 7 0 8 0;
#X connect 8 0 9 1;
#X connect 9 0 10 0;
#X connect 10 0 12 0;
#X connect 10 0 12 1;
#X connect 11 0 12 1;
#X connect 12 0 6 0;
#X connect 13 0 11 0;
#X connect 13 0 9 0;
#X connect 13 0 5 0;
#X connect 13 0 3 0;
#X connect 14 0 13 0;
#X connect 16 0 17 0;
#X connect 17 0 18 1;
#X connect 18 0 4 0;
#X connect 18 0 7 0;
#X connect 19 0 2 0;
#X connect 20 0 15 0;
#X connect 21 0 19 0;
#X restore 343 334 pd subsample4.4;
#X obj 233 390 s~ samples4;
#X obj 19 75 loadbang;
#X msg 18 128 1;
#X obj 104 73 receive vol4;
#X msg 52 107 0.2;
#X text 104 104 4 Gun burst;
#X connect 0 0 17 0;
#X connect 1 0 4 0;
#X connect 1 0 5 0;
#X connect 3 0 7 0;
#X connect 4 0 16 0;
#X connect 5 0 16 0;
#X connect 6 0 8 0;
#X connect 6 0 18 1;
#X connect 6 1 19 1;
#X connect 6 1 9 0;
#X connect 6 2 20 1;
#X connect 6 2 10 0;
#X connect 6 3 21 1;
#X connect 6 3 11 0;
#X connect 7 0 13 0;
#X connect 12 0 18 0;
#X connect 12 0 21 0;
#X connect 12 0 19 0;
#X connect 12 0 20 0;
#X connect 13 0 6 0;
#X connect 14 0 15 0;
#X connect 15 0 22 0;
#X connect 16 0 2 0;
#X connect 17 0 3 0;
#X connect 17 0 3 1;
#X connect 18 0 15 1;
#X connect 19 0 15 1;
#X connect 20 0 15 1;
#X connect 21 0 15 1;
#X connect 23 0 24 0;
#X connect 23 0 26 0;
#X connect 24 0 12 0;
#X connect 25 0 14 0;
#X connect 26 0 14 0;
#X coords 0 -1 1 1 80 120 2 100 100;
#X restore 376 133 pd sample 4;
#N canvas 535 25 541 443 sample 0;
#X obj 371 62 r samplenumber;
#X obj 104 199 bng 15 250 50 0 empty empty Secuencia 17 7 0 10 -262144
-1 -1;
#X obj 102 296 s tabs;
#X obj 371 122 spigot;
#X obj 97 237 bng 15 250 50 0 empty empty empty 17 7 0 10 -262144 -1
-1;
#X obj 140 236 bng 15 250 50 0 empty empty empty 17 7 0 10 -262144
-1 -1;
#X obj 371 202 sel 0 1 2 3;
#X obj 371 146 bng 15 250 50 0 empty empty empty 17 7 0 10 -262144
-1 -1;
#X obj 456 130 bng 15 250 50 0 empty empty empty 17 7 0 10 -262144
-1 -1;
#X obj 467 151 bng 15 250 50 0 empty empty empty 17 7 0 10 -262144
-1 -1;
#X obj 476 171 bng 15 250 50 0 empty empty empty 17 7 0 10 -262144
-1 -1;
#X obj 482 207 bng 15 250 50 0 empty empty empty 17 7 0 10 -262144
-1 -1;
#X obj 107 178 hsl 60 15 0.3 1.6 0 0 empty empty pitch -2 -8 0 10 -262144
-1 -1 3177 0;
#X obj 371 172 random 4;
#X obj 107 147 hsl 60 15 0 1 0 0 empty empty volume -2 -8 0 10 -262144
-1 -1 1701 1;
#X obj 233 361 *~;
#X obj 19 75 loadbang;
#X msg 18 128 1;
#X msg 102 255 set Instrumento5;
#X obj 371 89 tabread Instrumento5;
#N canvas 396 115 599 635 subsample5.1 0;
#X obj 287 299 soundfiler;
#X floatatom 287 321 10 0 0 0 - - -;
#X obj 285 407 expr 44100 / $f1;
#X floatatom 283 444 5 0 0 0 - - -;
#X obj 281 559 *~;
#X obj 429 400 expr $f1 / 44100 * 1000;
#X floatatom 429 437 7 0 0 0 - - -;
#X obj 398 536 delay;
#X msg 345 551 0;
#X obj 286 188 loadbang;
#X obj 136 345 bng 15 250 50 0 empty empty empty 17 7 0 10 -262144
-1 -1;
#X msg 387 434 0;
#X obj 281 526 phasor~;
#N canvas 0 23 450 278 (subpatch) 0;
#X array Data5 381440 float 2;
#X coords 0 1 381440 -1 200 140 1 0 0;
#X restore 27 33 graph;
#X obj 278 660 outlet~;
#X obj 35 325 inlet;
#X floatatom 65 365 5 0 2 0 - - -;
#X obj 136 315 inlet;
#X obj 277 363 /;
#X obj 435 583 bng 15 250 50 0 empty empty empty 17 7 0 10 -262144
-1 -1;
#X msg 286 253 read -resize \$1 Data5;
#X obj 281 595 tabread4~ Data5;
#X msg 286 225 open Muestras/lf/lf1.wav;
#X connect 0 0 1 0;
#X connect 1 0 4 1;
#X connect 1 0 18 0;
#X connect 2 0 3 0;
#X connect 3 0 12 0;
#X connect 4 0 21 0;
#X connect 5 0 6 0;
#X connect 6 0 7 1;
#X connect 7 0 19 0;
#X connect 7 0 8 0;
#X connect 8 0 12 0;
#X connect 9 0 22 0;
#X connect 9 0 10 0;
#X connect 10 0 3 0;
#X connect 10 0 7 0;
#X connect 10 0 11 0;
#X connect 10 0 1 0;
#X connect 11 0 12 1;
#X connect 12 0 4 0;
#X connect 15 0 16 0;
#X connect 16 0 18 1;
#X connect 17 0 10 0;
#X connect 18 0 2 0;
#X connect 18 0 5 0;
#X connect 20 0 0 0;
#X connect 21 0 14 0;
#X connect 22 0 20 0;
#X restore 296 246 pd subsample5.1;
#N canvas 122 23 638 527 subsample5.2 0;
#X obj 314 73 loadbang;
#X obj 314 190 soundfiler;
#X floatatom 314 212 5 0 0 0 - - -;
#X obj 312 286 expr 44100 / $f1;
#X floatatom 312 325 5 0 0 0 - - -;
#X obj 312 389 *~;
#X obj 456 279 expr $f1 / 44100 * 1000;
#X floatatom 456 316 5 0 0 0 - - -;
#X obj 429 366 delay;
#X msg 376 381 0;
#X msg 414 313 0;
#X obj 312 356 phasor~;
#N canvas 0 23 450 278 (subpatch) 0;
#X array Data5.2 227328 float 2;
#X coords 0 1 227328 -1 200 140 1 0 0;
#X restore 20 23 graph;
#X obj 242 334 bng 15 250 50 0 empty empty empty 17 7 0 10 -262144
-1 -1;
#X obj 241 283 inlet;
#X obj 311 482 outlet~;
#X obj 188 326 inlet;
#X obj 335 245 /;
#X floatatom 214 378 5 0 0 0 - - -;
#X msg 314 134 read -resize \$1 Data5.2;
#X obj 312 425 tabread4~ Data5.2;
#X msg 314 110 open Muestras/lf/lf2.wav;
#X connect 0 0 13 0;
#X connect 0 0 21 0;
#X connect 1 0 2 0;
#X connect 2 0 5 1;
#X connect 2 0 17 0;
#X connect 3 0 4 0;
#X connect 4 0 11 0;
#X connect 5 0 20 0;
#X connect 6 0 7 0;
#X connect 7 0 8 1;
#X connect 8 0 9 0;
#X connect 9 0 11 0;
#X connect 9 0 11 1;
#X connect 10 0 11 1;
#X connect 11 0 5 0;
#X connect 13 0 10 0;
#X connect 13 0 8 0;
#X connect 13 0 4 0;
#X connect 13 0 2 0;
#X connect 14 0 13 0;
#X connect 16 0 18 0;
#X connect 17 0 3 0;
#X connect 17 0 6 0;
#X connect 18 0 17 1;
#X connect 19 0 1 0;
#X connect 20 0 15 0;
#X connect 21 0 19 0;
#X restore 308 273 pd subsample5.2;
#N canvas 289 57 664 612 subsample5.3 0;
#X obj 414 83 loadbang;
#X obj 342 219 soundfiler;
#X floatatom 342 241 5 0 0 0 - - -;
#X obj 341 370 expr 44100 / $f1;
#X floatatom 341 409 5 0 0 0 - - -;
#X obj 341 473 *~;
#X obj 485 363 expr $f1 / 44100 * 1000;
#X floatatom 485 400 5 0 0 0 - - -;
#X obj 458 450 delay;
#X msg 405 465 0;
#X msg 443 397 0;
#X obj 341 440 phasor~;
#N canvas 0 23 450 278 (subpatch) 0;
#X array Data5.3 381440 float 2;
#X coords 0 1 381440 -1 200 140 1 0 0;
#X restore 33 40 graph;
#X obj 204 255 bng 15 250 50 0 empty empty empty 17 7 0 10 -262144
-1 -1;
#X obj 201 215 inlet;
#X obj 340 550 outlet~;
#X obj 367 312 /;
#X obj 177 333 inlet;
#X floatatom 213 382 5 0 0 0 - - -;
#X msg 414 148 read -resize \$1 Data5.3;
#X obj 341 509 tabread4~ Data5.3;
#X msg 414 120 open Muestras/lf/lf1.wav;
#X connect 0 0 21 0;
#X connect 0 0 13 0;
#X connect 1 0 2 0;
#X connect 2 0 5 1;
#X connect 2 0 16 0;
#X connect 3 0 4 0;
#X connect 4 0 11 0;
#X connect 5 0 20 0;
#X connect 6 0 7 0;
#X connect 7 0 8 1;
#X connect 8 0 9 0;
#X connect 9 0 11 0;
#X connect 9 0 11 1;
#X connect 10 0 11 1;
#X connect 11 0 5 0;
#X connect 13 0 8 0;
#X connect 13 0 10 0;
#X connect 13 0 4 0;
#X connect 13 0 2 0;
#X connect 14 0 13 0;
#X connect 16 0 3 0;
#X connect 16 0 6 0;
#X connect 17 0 18 0;
#X connect 18 0 16 1;
#X connect 19 0 1 0;
#X connect 20 0 15 0;
#X connect 21 0 19 0;
#X restore 327 304 pd subsample5.3;
#N canvas 228 79 844 586 subsample5.4 0;
#N canvas 0 23 450 278 (subpatch) 0;
#X array Data5.4 227328 float 2;
#X coords 0 1 227328 -1 200 140 1 0 0;
#X restore 24 32 graph;
#X obj 298 62 loadbang;
#X obj 298 187 soundfiler;
#X floatatom 298 209 5 0 0 0 - - -;
#X obj 287 302 expr 44100 / $f1;
#X floatatom 287 341 5 0 0 0 - - -;
#X obj 287 405 *~;
#X obj 431 295 expr $f1 / 44100 * 1000;
#X floatatom 431 332 5 0 0 0 - - -;
#X obj 404 382 delay;
#X msg 351 397 0;
#X msg 389 329 0;
#X obj 287 372 phasor~;
#X obj 164 249 bng 15 250 50 0 empty empty empty 17 7 0 10 -262144
-1 -1;
#X obj 161 192 inlet;
#X obj 286 489 outlet~;
#X obj 103 269 inlet;
#X floatatom 175 316 5 0 0 0 - - -;
#X obj 325 255 /;
#X msg 298 127 read -resize \$1 Data5.4;
#X obj 287 441 tabread4~ Data5.4;
#X msg 298 99 open Muestras/lf/lf2.wav;
#X connect 1 0 21 0;
#X connect 1 0 13 0;
#X connect 2 0 3 0;
#X connect 3 0 6 1;
#X connect 3 0 18 0;
#X connect 4 0 5 0;
#X connect 5 0 12 0;
#X connect 6 0 20 0;
#X connect 7 0 8 0;
#X connect 8 0 9 1;
#X connect 9 0 10 0;
#X connect 10 0 12 0;
#X connect 10 0 12 1;
#X connect 11 0 12 1;
#X connect 12 0 6 0;
#X connect 13 0 11 0;
#X connect 13 0 9 0;
#X connect 13 0 5 0;
#X connect 13 0 3 0;
#X connect 14 0 13 0;
#X connect 16 0 17 0;
#X connect 17 0 18 1;
#X connect 18 0 4 0;
#X connect 18 0 7 0;
#X connect 19 0 2 0;
#X connect 20 0 15 0;
#X connect 21 0 19 0;
#X restore 343 334 pd subsample5.4;
#X obj 233 390 s~ samples5;
#X obj 104 65 receive vol5;
#X msg 52 107 0.2;
#X text 110 102 5 LF exp;
#X connect 0 0 19 0;
#X connect 1 0 4 0;
#X connect 1 0 5 0;
#X connect 3 0 7 0;
#X connect 4 0 18 0;
#X connect 5 0 18 0;
#X connect 6 0 8 0;
#X connect 6 0 20 1;
#X connect 6 1 21 1;
#X connect 6 1 9 0;
#X connect 6 2 22 1;
#X connect 6 2 10 0;
#X connect 6 3 23 1;
#X connect 6 3 11 0;
#X connect 7 0 13 0;
#X connect 12 0 20 0;
#X connect 12 0 23 0;
#X connect 12 0 21 0;
#X connect 12 0 22 0;
#X connect 13 0 6 0;
#X connect 14 0 15 0;
#X connect 15 0 24 0;
#X connect 16 0 17 0;
#X connect 16 0 26 0;
#X connect 17 0 12 0;
#X connect 18 0 2 0;
#X connect 19 0 3 0;
#X connect 19 0 3 1;
#X connect 20 0 15 1;
#X connect 21 0 15 1;
#X connect 22 0 15 1;
#X connect 23 0 15 1;
#X connect 25 0 14 0;
#X connect 26 0 14 0;
#X coords 0 -1 1 1 80 120 2 100 100;
#X restore 466 133 pd sample 5;
#X obj 6 297 moses 15;
#X obj 9 330 send modtriger;
#N canvas 149 264 541 443 sample 0;
#X obj 371 62 r samplenumber;
#X obj 104 199 bng 15 250 50 0 empty empty Secuencia 17 7 0 10 -262144
-1 -1;
#X obj 102 296 s tabs;
#X obj 371 122 spigot;
#X obj 97 237 bng 15 250 50 0 empty empty empty 17 7 0 10 -262144 -1
-1;
#X obj 140 236 bng 15 250 50 0 empty empty empty 17 7 0 10 -262144
-1 -1;
#X obj 371 202 sel 0 1 2 3;
#X obj 371 146 bng 15 250 50 0 empty empty empty 17 7 0 10 -262144
-1 -1;
#X obj 456 130 bng 15 250 50 0 empty empty empty 17 7 0 10 -262144
-1 -1;
#X obj 467 151 bng 15 250 50 0 empty empty empty 17 7 0 10 -262144
-1 -1;
#X obj 476 171 bng 15 250 50 0 empty empty empty 17 7 0 10 -262144
-1 -1;
#X obj 482 207 bng 15 250 50 0 empty empty empty 17 7 0 10 -262144
-1 -1;
#X obj 107 178 hsl 60 15 0.6 2 0 0 empty empty pitch -2 -8 0 10 -262144
-1 -1 1686 0;
#X obj 371 172 random 4;
#N canvas 629 23 599 635 subsample1.1 0;
#X obj 287 299 soundfiler;
#X floatatom 287 321 5 0 0 0 - - -;
#X obj 285 407 expr 44100 / $f1;
#X floatatom 283 444 5 0 0 0 - - -;
#X obj 281 559 *~;
#X obj 429 400 expr $f1 / 44100 * 1000;
#X floatatom 429 437 7 0 0 0 - - -;
#X obj 398 536 delay;
#X msg 345 551 0;
#X obj 286 188 loadbang;
#X obj 136 345 bng 15 250 50 0 empty empty empty 17 7 0 10 -262144
-1 -1;
#X msg 387 434 0;
#X obj 281 526 phasor~;
#X msg 286 225 open Muestras/hb/hba1.wav;
#N canvas 0 23 450 278 (subpatch) 0;
#X array Data6 72745 float 2;
#X coords 0 1 72745 -1 200 140 1 0 0;
#X restore 27 33 graph;
#X obj 278 660 outlet~;
#X obj 35 325 inlet;
#X floatatom 65 365 5 0 2 0 - - -;
#X obj 136 315 inlet;
#X obj 277 363 /;
#X obj 435 583 bng 15 250 50 0 empty empty empty 17 7 0 10 -262144
-1 -1;
#X msg 286 253 read -resize \$1 Data6;
#X obj 281 595 tabread4~ Data6;
#X connect 0 0 1 0;
#X connect 1 0 4 1;
#X connect 1 0 19 0;
#X connect 2 0 3 0;
#X connect 3 0 12 0;
#X connect 4 0 22 0;
#X connect 5 0 6 0;
#X connect 6 0 7 1;
#X connect 7 0 20 0;
#X connect 7 0 8 0;
#X connect 8 0 12 0;
#X connect 9 0 13 0;
#X connect 9 0 10 0;
#X connect 10 0 3 0;
#X connect 10 0 7 0;
#X connect 10 0 11 0;
#X connect 10 0 1 0;
#X connect 11 0 12 1;
#X connect 12 0 4 0;
#X connect 13 0 21 0;
#X connect 16 0 17 0;
#X connect 17 0 19 1;
#X connect 18 0 10 0;
#X connect 19 0 2 0;
#X connect 19 0 5 0;
#X connect 21 0 0 0;
#X connect 22 0 15 0;
#X restore 296 246 pd subsample1.1;
#N canvas 0 23 638 527 subsample1.2 0;
#X obj 314 73 loadbang;
#X obj 314 190 soundfiler;
#X floatatom 314 212 5 0 0 0 - - -;
#X obj 312 286 expr 44100 / $f1;
#X floatatom 312 325 5 0 0 0 - - -;
#X obj 312 389 *~;
#X obj 456 279 expr $f1 / 44100 * 1000;
#X floatatom 456 316 5 0 0 0 - - -;
#X obj 429 366 delay;
#X msg 376 381 0;
#X msg 414 313 0;
#X obj 312 356 phasor~;
#N canvas 0 23 450 278 (subpatch) 0;
#X array Data6-2 86566 float 2;
#X coords 0 1 86566 -1 200 140 1 0 0;
#X restore 20 23 graph;
#X obj 242 334 bng 15 250 50 0 empty empty empty 17 7 0 10 -262144
-1 -1;
#X obj 241 283 inlet;
#X obj 311 482 outlet~;
#X obj 188 326 inlet;
#X msg 314 110 open Muestras/hb/hba2.wav;
#X obj 335 245 /;
#X floatatom 214 378 5 0 0 0 - - -;
#X msg 314 134 read -resize \$1 Data6-2;
#X obj 312 425 tabread4~ Data6-2;
#X connect 0 0 17 0;
#X connect 0 0 13 0;
#X connect 1 0 2 0;
#X connect 2 0 5 1;
#X connect 2 0 18 0;
#X connect 3 0 4 0;
#X connect 4 0 11 0;
#X connect 5 0 21 0;
#X connect 6 0 7 0;
#X connect 7 0 8 1;
#X connect 8 0 9 0;
#X connect 9 0 11 0;
#X connect 9 0 11 1;
#X connect 10 0 11 1;
#X connect 11 0 5 0;
#X connect 13 0 10 0;
#X connect 13 0 8 0;
#X connect 13 0 4 0;
#X connect 13 0 2 0;
#X connect 14 0 13 0;
#X connect 16 0 19 0;
#X connect 17 0 20 0;
#X connect 18 0 3 0;
#X connect 18 0 6 0;
#X connect 19 0 18 1;
#X connect 20 0 1 0;
#X connect 21 0 15 0;
#X restore 311 275 pd subsample1.2;
#N canvas 0 23 1280 755 subsample1.3 0;
#X obj 414 83 loadbang;
#X obj 342 219 soundfiler;
#X floatatom 342 241 5 0 0 0 - - -;
#X obj 341 370 expr 44100 / $f1;
#X floatatom 341 409 5 0 0 0 - - -;
#X obj 341 473 *~;
#X obj 485 363 expr $f1 / 44100 * 1000;
#X floatatom 485 400 5 0 0 0 - - -;
#X obj 458 450 delay;
#X msg 405 465 0;
#X msg 443 397 0;
#X obj 341 440 phasor~;
#N canvas 0 23 450 278 (subpatch) 0;
#X array Data6.3 88512 float 2;
#X coords 0 1 88512 -1 200 140 1 0 0;
#X restore 33 40 graph;
#X obj 204 255 bng 15 250 50 0 empty empty empty 17 7 0 10 -262144
-1 -1;
#X obj 201 215 inlet;
#X obj 340 550 outlet~;
#X msg 414 120 open Muestras/hb/hba3.wav;
#X obj 367 312 /;
#X obj 177 333 inlet;
#X floatatom 213 382 5 0 0 0 - - -;
#X msg 414 148 read -resize \$1 Data6.3;
#X obj 341 509 tabread4~ Data6.3;
#X connect 0 0 16 0;
#X connect 0 0 13 0;
#X connect 1 0 2 0;
#X connect 2 0 5 1;
#X connect 2 0 17 0;
#X connect 3 0 4 0;
#X connect 4 0 11 0;
#X connect 5 0 21 0;
#X connect 6 0 7 0;
#X connect 7 0 8 1;
#X connect 8 0 9 0;
#X connect 9 0 11 0;
#X connect 9 0 11 1;
#X connect 10 0 11 1;
#X connect 11 0 5 0;
#X connect 13 0 8 0;
#X connect 13 0 10 0;
#X connect 13 0 4 0;
#X connect 13 0 2 0;
#X connect 14 0 13 0;
#X connect 16 0 20 0;
#X connect 17 0 3 0;
#X connect 17 0 6 0;
#X connect 18 0 19 0;
#X connect 19 0 17 1;
#X connect 20 0 1 0;
#X connect 21 0 15 0;
#X restore 327 304 pd subsample1.3;
#N canvas 228 79 844 586 subsample1.4 0;
#N canvas 0 23 450 278 (subpatch) 0;
#X array Data6.4 85528 float 2;
#X coords 0 1 85528 -1 200 140 1 0 0;
#X restore 24 32 graph;
#X obj 298 62 loadbang;
#X obj 298 187 soundfiler;
#X floatatom 298 209 5 0 0 0 - - -;
#X obj 287 302 expr 44100 / $f1;
#X floatatom 287 341 5 0 0 0 - - -;
#X obj 287 405 *~;
#X obj 431 295 expr $f1 / 44100 * 1000;
#X floatatom 431 332 5 0 0 0 - - -;
#X obj 404 382 delay;
#X msg 351 397 0;
#X msg 389 329 0;
#X obj 287 372 phasor~;
#X obj 164 249 bng 15 250 50 0 empty empty empty 17 7 0 10 -262144
-1 -1;
#X obj 161 192 inlet;
#X obj 286 489 outlet~;
#X obj 103 269 inlet;
#X msg 298 99 open Muestras/hb/hba4.wav;
#X floatatom 175 316 5 0 0 0 - - -;
#X obj 325 255 /;
#X msg 298 127 read -resize \$1 Data6.4;
#X obj 287 441 tabread4~ Data6.4;
#X connect 1 0 17 0;
#X connect 1 0 13 0;
#X connect 2 0 3 0;
#X connect 3 0 6 1;
#X connect 3 0 19 0;
#X connect 4 0 5 0;
#X connect 5 0 12 0;
#X connect 6 0 21 0;
#X connect 7 0 8 0;
#X connect 8 0 9 1;
#X connect 9 0 10 0;
#X connect 10 0 12 0;
#X connect 10 0 12 1;
#X connect 11 0 12 1;
#X connect 12 0 6 0;
#X connect 13 0 11 0;
#X connect 13 0 9 0;
#X connect 13 0 5 0;
#X connect 13 0 3 0;
#X connect 14 0 13 0;
#X connect 16 0 18 0;
#X connect 17 0 20 0;
#X connect 18 0 19 1;
#X connect 19 0 4 0;
#X connect 19 0 7 0;
#X connect 20 0 2 0;
#X connect 21 0 15 0;
#X restore 343 334 pd subsample1.4;
#X obj 107 145 hsl 60 15 0 1 0 0 empty empty volume -2 -8 0 10 -262144
-1 -1 1701 1;
#X obj 257 365 *~;
#X obj 23 45 loadbang;
#X msg 32 130 1;
#X msg 102 255 set Instrumento6;
#X obj 371 89 tabread Instrumento6;
#X obj 104 55 receive vol6;
#X obj 255 408 s~ samples6;
#X msg 65 75 0.9;
#X text 101 102 6 Heartbeat2;
#X connect 0 0 23 0;
#X connect 1 0 4 0;
#X connect 1 0 5 0;
#X connect 3 0 7 0;
#X connect 4 0 22 0;
#X connect 5 0 22 0;
#X connect 6 0 8 0;
#X connect 6 0 14 1;
#X connect 6 1 15 1;
#X connect 6 1 9 0;
#X connect 6 2 16 1;
#X connect 6 2 10 0;
#X connect 6 3 17 1;
#X connect 6 3 11 0;
#X connect 7 0 13 0;
#X connect 12 0 14 0;
#X connect 12 0 17 0;
#X connect 12 0 15 0;
#X connect 12 0 16 0;
#X connect 13 0 6 0;
#X connect 14 0 19 1;
#X connect 15 0 19 1;
#X connect 16 0 19 1;
#X connect 17 0 19 1;
#X connect 18 0 19 0;
#X connect 19 0 25 0;
#X connect 20 0 21 0;
#X connect 20 0 26 0;
#X connect 21 0 12 0;
#X connect 22 0 2 0;
#X connect 23 0 3 0;
#X connect 23 0 3 1;
#X connect 24 0 18 0;
#X connect 26 0 18 0;
#X coords 0 -1 1 1 80 120 2 100 100;
#X restore 556 133 pd sample 6;
#N canvas 189 231 541 443 sample 0;
#X obj 371 62 r samplenumber;
#X obj 104 199 bng 15 250 50 0 empty empty Secuencia 17 7 0 10 -262144
-1 -1;
#X obj 102 296 s tabs;
#X obj 371 122 spigot;
#X obj 97 237 bng 15 250 50 0 empty empty empty 17 7 0 10 -262144 -1
-1;
#X obj 140 236 bng 15 250 50 0 empty empty empty 17 7 0 10 -262144
-1 -1;
#X obj 371 202 sel 0 1 2 3;
#X obj 371 146 bng 15 250 50 0 empty empty empty 17 7 0 10 -262144
-1 -1;
#X obj 456 130 bng 15 250 50 0 empty empty empty 17 7 0 10 -262144
-1 -1;
#X obj 467 151 bng 15 250 50 0 empty empty empty 17 7 0 10 -262144
-1 -1;
#X obj 476 171 bng 15 250 50 0 empty empty empty 17 7 0 10 -262144
-1 -1;
#X obj 482 207 bng 15 250 50 0 empty empty empty 17 7 0 10 -262144
-1 -1;
#X obj 107 178 hsl 60 15 0.6 2 0 0 empty empty pitch -2 -8 0 10 -262144
-1 -1 1686 0;
#X obj 371 172 random 4;
#N canvas 629 23 599 635 subsample1.1 0;
#X obj 287 299 soundfiler;
#X floatatom 287 321 5 0 0 0 - - -;
#X obj 285 407 expr 44100 / $f1;
#X floatatom 283 444 5 0 0 0 - - -;
#X obj 281 559 *~;
#X obj 429 400 expr $f1 / 44100 * 1000;
#X floatatom 429 437 7 0 0 0 - - -;
#X obj 398 536 delay;
#X msg 345 551 0;
#X obj 286 188 loadbang;
#X obj 136 345 bng 15 250 50 0 empty empty empty 17 7 0 10 -262144
-1 -1;
#X msg 387 434 0;
#X obj 281 526 phasor~;
#X msg 286 225 open Muestras/hb/hba1.wav;
#N canvas 0 23 450 278 (subpatch) 0;
#X array Data7 72745 float 2;
#X coords 0 1 72745 -1 200 140 1 0 0;
#X restore 27 33 graph;
#X obj 278 660 outlet~;
#X obj 35 325 inlet;
#X floatatom 65 365 5 0 2 0 - - -;
#X obj 136 315 inlet;
#X obj 277 363 /;
#X obj 435 583 bng 15 250 50 0 empty empty empty 17 7 0 10 -262144
-1 -1;
#X msg 286 253 read -resize \$1 Data7;
#X obj 281 595 tabread4~ Data7;
#X connect 0 0 1 0;
#X connect 1 0 4 1;
#X connect 1 0 19 0;
#X connect 2 0 3 0;
#X connect 3 0 12 0;
#X connect 4 0 22 0;
#X connect 5 0 6 0;
#X connect 6 0 7 1;
#X connect 7 0 20 0;
#X connect 7 0 8 0;
#X connect 8 0 12 0;
#X connect 9 0 13 0;
#X connect 9 0 10 0;
#X connect 10 0 3 0;
#X connect 10 0 7 0;
#X connect 10 0 11 0;
#X connect 10 0 1 0;
#X connect 11 0 12 1;
#X connect 12 0 4 0;
#X connect 13 0 21 0;
#X connect 16 0 17 0;
#X connect 17 0 19 1;
#X connect 18 0 10 0;
#X connect 19 0 2 0;
#X connect 19 0 5 0;
#X connect 21 0 0 0;
#X connect 22 0 15 0;
#X restore 296 246 pd subsample1.1;
#N canvas 0 23 638 527 subsample1.2 0;
#X obj 314 73 loadbang;
#X obj 314 190 soundfiler;
#X floatatom 314 212 5 0 0 0 - - -;
#X obj 312 286 expr 44100 / $f1;
#X floatatom 312 325 5 0 0 0 - - -;
#X obj 312 389 *~;
#X obj 456 279 expr $f1 / 44100 * 1000;
#X floatatom 456 316 5 0 0 0 - - -;
#X obj 429 366 delay;
#X msg 376 381 0;
#X msg 414 313 0;
#X obj 312 356 phasor~;
#N canvas 0 23 450 278 (subpatch) 0;
#X array Data7-2 86566 float 2;
#X coords 0 1 86566 -1 200 140 1 0 0;
#X restore 20 23 graph;
#X obj 242 334 bng 15 250 50 0 empty empty empty 17 7 0 10 -262144
-1 -1;
#X obj 241 283 inlet;
#X obj 311 482 outlet~;
#X obj 188 326 inlet;
#X msg 314 110 open Muestras/hb/hba2.wav;
#X obj 335 245 /;
#X floatatom 214 378 5 0 0 0 - - -;
#X msg 314 134 read -resize \$1 Data7-2;
#X obj 312 425 tabread4~ Data7-2;
#X connect 0 0 17 0;
#X connect 0 0 13 0;
#X connect 1 0 2 0;
#X connect 2 0 5 1;
#X connect 2 0 18 0;
#X connect 3 0 4 0;
#X connect 4 0 11 0;
#X connect 5 0 21 0;
#X connect 6 0 7 0;
#X connect 7 0 8 1;
#X connect 8 0 9 0;
#X connect 9 0 11 0;
#X connect 9 0 11 1;
#X connect 10 0 11 1;
#X connect 11 0 5 0;
#X connect 13 0 10 0;
#X connect 13 0 8 0;
#X connect 13 0 4 0;
#X connect 13 0 2 0;
#X connect 14 0 13 0;
#X connect 16 0 19 0;
#X connect 17 0 20 0;
#X connect 18 0 3 0;
#X connect 18 0 6 0;
#X connect 19 0 18 1;
#X connect 20 0 1 0;
#X connect 21 0 15 0;
#X restore 311 275 pd subsample1.2;
#N canvas 0 23 1280 755 subsample1.3 0;
#X obj 414 83 loadbang;
#X obj 342 219 soundfiler;
#X floatatom 342 241 5 0 0 0 - - -;
#X obj 341 370 expr 44100 / $f1;
#X floatatom 341 409 5 0 0 0 - - -;
#X obj 341 473 *~;
#X obj 485 363 expr $f1 / 44100 * 1000;
#X floatatom 485 400 5 0 0 0 - - -;
#X obj 458 450 delay;
#X msg 405 465 0;
#X msg 443 397 0;
#X obj 341 440 phasor~;
#N canvas 0 23 450 278 (subpatch) 0;
#X array Data7.3 88512 float 2;
#X coords 0 1 88512 -1 200 140 1 0 0;
#X restore 33 40 graph;
#X obj 204 255 bng 15 250 50 0 empty empty empty 17 7 0 10 -262144
-1 -1;
#X obj 201 215 inlet;
#X obj 340 550 outlet~;
#X msg 414 120 open Muestras/hb/hba3.wav;
#X obj 367 312 /;
#X obj 177 333 inlet;
#X floatatom 213 382 5 0 0 0 - - -;
#X msg 414 148 read -resize \$1 Data7.3;
#X obj 341 509 tabread4~ Data7.3;
#X connect 0 0 16 0;
#X connect 0 0 13 0;
#X connect 1 0 2 0;
#X connect 2 0 5 1;
#X connect 2 0 17 0;
#X connect 3 0 4 0;
#X connect 4 0 11 0;
#X connect 5 0 21 0;
#X connect 6 0 7 0;
#X connect 7 0 8 1;
#X connect 8 0 9 0;
#X connect 9 0 11 0;
#X connect 9 0 11 1;
#X connect 10 0 11 1;
#X connect 11 0 5 0;
#X connect 13 0 8 0;
#X connect 13 0 10 0;
#X connect 13 0 4 0;
#X connect 13 0 2 0;
#X connect 14 0 13 0;
#X connect 16 0 20 0;
#X connect 17 0 3 0;
#X connect 17 0 6 0;
#X connect 18 0 19 0;
#X connect 19 0 17 1;
#X connect 20 0 1 0;
#X connect 21 0 15 0;
#X restore 327 304 pd subsample1.3;
#N canvas 228 79 844 586 subsample1.4 0;
#N canvas 0 23 450 278 (subpatch) 0;
#X array Data7.4 85528 float 2;
#X coords 0 1 85528 -1 200 140 1 0 0;
#X restore 24 32 graph;
#X obj 298 62 loadbang;
#X obj 298 187 soundfiler;
#X floatatom 298 209 5 0 0 0 - - -;
#X obj 287 302 expr 44100 / $f1;
#X floatatom 287 341 5 0 0 0 - - -;
#X obj 287 405 *~;
#X obj 431 295 expr $f1 / 44100 * 1000;
#X floatatom 431 332 5 0 0 0 - - -;
#X obj 404 382 delay;
#X msg 351 397 0;
#X msg 389 329 0;
#X obj 287 372 phasor~;
#X obj 164 249 bng 15 250 50 0 empty empty empty 17 7 0 10 -262144
-1 -1;
#X obj 161 192 inlet;
#X obj 286 489 outlet~;
#X obj 103 269 inlet;
#X msg 298 99 open Muestras/hb/hba4.wav;
#X floatatom 175 316 5 0 0 0 - - -;
#X obj 325 255 /;
#X msg 298 127 read -resize \$1 Data7.4;
#X obj 287 441 tabread4~ Data7.4;
#X connect 1 0 17 0;
#X connect 1 0 13 0;
#X connect 2 0 3 0;
#X connect 3 0 6 1;
#X connect 3 0 19 0;
#X connect 4 0 5 0;
#X connect 5 0 12 0;
#X connect 6 0 21 0;
#X connect 7 0 8 0;
#X connect 8 0 9 1;
#X connect 9 0 10 0;
#X connect 10 0 12 0;
#X connect 10 0 12 1;
#X connect 11 0 12 1;
#X connect 12 0 6 0;
#X connect 13 0 11 0;
#X connect 13 0 9 0;
#X connect 13 0 5 0;
#X connect 13 0 3 0;
#X connect 14 0 13 0;
#X connect 16 0 18 0;
#X connect 17 0 20 0;
#X connect 18 0 19 1;
#X connect 19 0 4 0;
#X connect 19 0 7 0;
#X connect 20 0 2 0;
#X connect 21 0 15 0;
#X restore 343 334 pd subsample1.4;
#X obj 107 145 hsl 60 15 0 1 0 0 empty empty volume -2 -8 0 10 -262144
-1 -1 1180 1;
#X obj 257 365 *~;
#X obj 23 45 loadbang;
#X msg 32 130 1;
#X msg 102 255 set Instrumento7;
#X obj 371 89 tabread Instrumento7;
#X obj 255 408 s~ samples7;
#X obj 104 55 receive vol7;
#X msg 65 75 0.2;
#X text 114 104 7 other;
#X connect 0 0 23 0;
#X connect 1 0 4 0;
#X connect 1 0 5 0;
#X connect 3 0 7 0;
#X connect 4 0 22 0;
#X connect 5 0 22 0;
#X connect 6 0 8 0;
#X connect 6 0 14 1;
#X connect 6 1 15 1;
#X connect 6 1 9 0;
#X connect 6 2 16 1;
#X connect 6 2 10 0;
#X connect 6 3 17 1;
#X connect 6 3 11 0;
#X connect 7 0 13 0;
#X connect 12 0 14 0;
#X connect 12 0 17 0;
#X connect 12 0 15 0;
#X connect 12 0 16 0;
#X connect 13 0 6 0;
#X connect 14 0 19 1;
#X connect 15 0 19 1;
#X connect 16 0 19 1;
#X connect 17 0 19 1;
#X connect 18 0 19 0;
#X connect 19 0 24 0;
#X connect 20 0 21 0;
#X connect 20 0 26 0;
#X connect 21 0 12 0;
#X connect 22 0 2 0;
#X connect 23 0 3 0;
#X connect 23 0 3 1;
#X connect 25 0 18 0;
#X connect 26 0 18 0;
#X coords 0 -1 1 1 80 120 2 100 100;
#X restore 643 133 pd sample 7;
#N canvas 189 231 541 443 sample 0;
#X obj 371 62 r samplenumber;
#X obj 104 199 bng 15 250 50 0 empty empty Secuencia 17 7 0 10 -262144
-1 -1;
#X obj 102 296 s tabs;
#X obj 371 122 spigot;
#X obj 97 237 bng 15 250 50 0 empty empty empty 17 7 0 10 -262144 -1
-1;
#X obj 140 236 bng 15 250 50 0 empty empty empty 17 7 0 10 -262144
-1 -1;
#X obj 371 202 sel 0 1 2 3;
#X obj 371 146 bng 15 250 50 0 empty empty empty 17 7 0 10 -262144
-1 -1;
#X obj 456 130 bng 15 250 50 0 empty empty empty 17 7 0 10 -262144
-1 -1;
#X obj 467 151 bng 15 250 50 0 empty empty empty 17 7 0 10 -262144
-1 -1;
#X obj 476 171 bng 15 250 50 0 empty empty empty 17 7 0 10 -262144
-1 -1;
#X obj 482 207 bng 15 250 50 0 empty empty empty 17 7 0 10 -262144
-1 -1;
#X obj 107 178 hsl 60 15 0.6 2 0 0 empty empty pitch -2 -8 0 10 -262144
-1 -1 1686 0;
#X obj 371 172 random 4;
#N canvas 629 23 599 635 subsample1.1 0;
#X obj 287 299 soundfiler;
#X floatatom 287 321 5 0 0 0 - - -;
#X obj 285 407 expr 44100 / $f1;
#X floatatom 283 444 5 0 0 0 - - -;
#X obj 281 559 *~;
#X obj 429 400 expr $f1 / 44100 * 1000;
#X floatatom 429 437 7 0 0 0 - - -;
#X obj 398 536 delay;
#X msg 345 551 0;
#X obj 286 188 loadbang;
#X obj 136 345 bng 15 250 50 0 empty empty empty 17 7 0 10 -262144
-1 -1;
#X msg 387 434 0;
#X obj 281 526 phasor~;
#X msg 286 225 open Muestras/hb/hba1.wav;
#N canvas 0 23 450 278 (subpatch) 0;
#X array Data8 72745 float 2;
#X coords 0 1 72745 -1 200 140 1 0 0;
#X restore 27 33 graph;
#X obj 278 660 outlet~;
#X obj 35 325 inlet;
#X floatatom 65 365 5 0 2 0 - - -;
#X obj 136 315 inlet;
#X obj 277 363 /;
#X obj 435 583 bng 15 250 50 0 empty empty empty 17 7 0 10 -262144
-1 -1;
#X msg 286 253 read -resize \$1 Data8;
#X obj 281 595 tabread4~ Data8;
#X connect 0 0 1 0;
#X connect 1 0 4 1;
#X connect 1 0 19 0;
#X connect 2 0 3 0;
#X connect 3 0 12 0;
#X connect 4 0 22 0;
#X connect 5 0 6 0;
#X connect 6 0 7 1;
#X connect 7 0 20 0;
#X connect 7 0 8 0;
#X connect 8 0 12 0;
#X connect 9 0 13 0;
#X connect 9 0 10 0;
#X connect 10 0 3 0;
#X connect 10 0 7 0;
#X connect 10 0 11 0;
#X connect 10 0 1 0;
#X connect 11 0 12 1;
#X connect 12 0 4 0;
#X connect 13 0 21 0;
#X connect 16 0 17 0;
#X connect 17 0 19 1;
#X connect 18 0 10 0;
#X connect 19 0 2 0;
#X connect 19 0 5 0;
#X connect 21 0 0 0;
#X connect 22 0 15 0;
#X restore 296 246 pd subsample1.1;
#N canvas 0 23 638 527 subsample1.2 0;
#X obj 314 73 loadbang;
#X obj 314 190 soundfiler;
#X floatatom 314 212 5 0 0 0 - - -;
#X obj 312 286 expr 44100 / $f1;
#X floatatom 312 325 5 0 0 0 - - -;
#X obj 312 389 *~;
#X obj 456 279 expr $f1 / 44100 * 1000;
#X floatatom 456 316 5 0 0 0 - - -;
#X obj 429 366 delay;
#X msg 376 381 0;
#X msg 414 313 0;
#X obj 312 356 phasor~;
#N canvas 0 23 450 278 (subpatch) 0;
#X array Data8-2 86566 float 2;
#X coords 0 1 86566 -1 200 140 1 0 0;
#X restore 20 23 graph;
#X obj 242 334 bng 15 250 50 0 empty empty empty 17 7 0 10 -262144
-1 -1;
#X obj 241 283 inlet;
#X obj 311 482 outlet~;
#X obj 188 326 inlet;
#X msg 314 110 open Muestras/hb/hba2.wav;
#X obj 335 245 /;
#X floatatom 214 378 5 0 0 0 - - -;
#X msg 314 134 read -resize \$1 Data8-2;
#X obj 312 425 tabread4~ Data8-2;
#X connect 0 0 17 0;
#X connect 0 0 13 0;
#X connect 1 0 2 0;
#X connect 2 0 5 1;
#X connect 2 0 18 0;
#X connect 3 0 4 0;
#X connect 4 0 11 0;
#X connect 5 0 21 0;
#X connect 6 0 7 0;
#X connect 7 0 8 1;
#X connect 8 0 9 0;
#X connect 9 0 11 0;
#X connect 9 0 11 1;
#X connect 10 0 11 1;
#X connect 11 0 5 0;
#X connect 13 0 10 0;
#X connect 13 0 8 0;
#X connect 13 0 4 0;
#X connect 13 0 2 0;
#X connect 14 0 13 0;
#X connect 16 0 19 0;
#X connect 17 0 20 0;
#X connect 18 0 3 0;
#X connect 18 0 6 0;
#X connect 19 0 18 1;
#X connect 20 0 1 0;
#X connect 21 0 15 0;
#X restore 311 275 pd subsample1.2;
#N canvas 0 23 1280 755 subsample1.3 0;
#X obj 414 83 loadbang;
#X obj 342 219 soundfiler;
#X floatatom 342 241 5 0 0 0 - - -;
#X obj 341 370 expr 44100 / $f1;
#X floatatom 341 409 5 0 0 0 - - -;
#X obj 341 473 *~;
#X obj 485 363 expr $f1 / 44100 * 1000;
#X floatatom 485 400 5 0 0 0 - - -;
#X obj 458 450 delay;
#X msg 405 465 0;
#X msg 443 397 0;
#X obj 341 440 phasor~;
#N canvas 0 23 450 278 (subpatch) 0;
#X array Data8.3 88512 float 2;
#X coords 0 1 88512 -1 200 140 1 0 0;
#X restore 33 40 graph;
#X obj 204 255 bng 15 250 50 0 empty empty empty 17 7 0 10 -262144
-1 -1;
#X obj 201 215 inlet;
#X obj 340 550 outlet~;
#X msg 414 120 open Muestras/hb/hba3.wav;
#X obj 367 312 /;
#X obj 177 333 inlet;
#X floatatom 213 382 5 0 0 0 - - -;
#X msg 414 148 read -resize \$1 Data8.3;
#X obj 341 509 tabread4~ Data8.3;
#X connect 0 0 16 0;
#X connect 0 0 13 0;
#X connect 1 0 2 0;
#X connect 2 0 5 1;
#X connect 2 0 17 0;
#X connect 3 0 4 0;
#X connect 4 0 11 0;
#X connect 5 0 21 0;
#X connect 6 0 7 0;
#X connect 7 0 8 1;
#X connect 8 0 9 0;
#X connect 9 0 11 0;
#X connect 9 0 11 1;
#X connect 10 0 11 1;
#X connect 11 0 5 0;
#X connect 13 0 8 0;
#X connect 13 0 10 0;
#X connect 13 0 4 0;
#X connect 13 0 2 0;
#X connect 14 0 13 0;
#X connect 16 0 20 0;
#X connect 17 0 3 0;
#X connect 17 0 6 0;
#X connect 18 0 19 0;
#X connect 19 0 17 1;
#X connect 20 0 1 0;
#X connect 21 0 15 0;
#X restore 327 304 pd subsample1.3;
#N canvas 228 79 844 586 subsample1.4 0;
#N canvas 0 23 450 278 (subpatch) 0;
#X array Data8.4 85528 float 2;
#X coords 0 1 85528 -1 200 140 1 0 0;
#X restore 24 32 graph;
#X obj 298 62 loadbang;
#X obj 298 187 soundfiler;
#X floatatom 298 209 5 0 0 0 - - -;
#X obj 287 302 expr 44100 / $f1;
#X floatatom 287 341 5 0 0 0 - - -;
#X obj 287 405 *~;
#X obj 431 295 expr $f1 / 44100 * 1000;
#X floatatom 431 332 5 0 0 0 - - -;
#X obj 404 382 delay;
#X msg 351 397 0;
#X msg 389 329 0;
#X obj 287 372 phasor~;
#X obj 164 249 bng 15 250 50 0 empty empty empty 17 7 0 10 -262144
-1 -1;
#X obj 161 192 inlet;
#X obj 286 489 outlet~;
#X obj 103 269 inlet;
#X msg 298 99 open Muestras/hb/hba4.wav;
#X floatatom 175 316 5 0 0 0 - - -;
#X obj 325 255 /;
#X msg 298 127 read -resize \$1 Data8.4;
#X obj 287 441 tabread4~ Data8.4;
#X connect 1 0 17 0;
#X connect 1 0 13 0;
#X connect 2 0 3 0;
#X connect 3 0 6 1;
#X connect 3 0 19 0;
#X connect 4 0 5 0;
#X connect 5 0 12 0;
#X connect 6 0 21 0;
#X connect 7 0 8 0;
#X connect 8 0 9 1;
#X connect 9 0 10 0;
#X connect 10 0 12 0;
#X connect 10 0 12 1;
#X connect 11 0 12 1;
#X connect 12 0 6 0;
#X connect 13 0 11 0;
#X connect 13 0 9 0;
#X connect 13 0 5 0;
#X connect 13 0 3 0;
#X connect 14 0 13 0;
#X connect 16 0 18 0;
#X connect 17 0 20 0;
#X connect 18 0 19 1;
#X connect 19 0 4 0;
#X connect 19 0 7 0;
#X connect 20 0 2 0;
#X connect 21 0 15 0;
#X restore 343 334 pd subsample1.4;
#X obj 107 145 hsl 60 15 0 1 0 0 empty empty volume -2 -8 0 10 -262144
-1 -1 1180 1;
#X obj 257 365 *~;
#X obj 23 45 loadbang;
#X msg 32 130 1;
#X msg 102 255 set Instrumento8;
#X obj 371 89 tabread Instrumento8;
#X obj 255 408 s~ samples8;
#X obj 104 55 receive vol8;
#X msg 65 75 0.2;
#X text 111 105 8 other2;
#X connect 0 0 23 0;
#X connect 1 0 4 0;
#X connect 1 0 5 0;
#X connect 3 0 7 0;
#X connect 4 0 22 0;
#X connect 5 0 22 0;
#X connect 6 0 8 0;
#X connect 6 0 14 1;
#X connect 6 1 15 1;
#X connect 6 1 9 0;
#X connect 6 2 16 1;
#X connect 6 2 10 0;
#X connect 6 3 17 1;
#X connect 6 3 11 0;
#X connect 7 0 13 0;
#X connect 12 0 14 0;
#X connect 12 0 17 0;
#X connect 12 0 15 0;
#X connect 12 0 16 0;
#X connect 13 0 6 0;
#X connect 14 0 19 1;
#X connect 15 0 19 1;
#X connect 16 0 19 1;
#X connect 17 0 19 1;
#X connect 18 0 19 0;
#X connect 19 0 24 0;
#X connect 20 0 21 0;
#X connect 20 0 26 0;
#X connect 21 0 12 0;
#X connect 22 0 2 0;
#X connect 23 0 3 0;
#X connect 23 0 3 1;
#X connect 25 0 18 0;
#X connect 26 0 18 0;
#X coords 0 -1 1 1 80 120 2 100 100;
#X restore 732 133 pd sample 8;
#X connect 0 0 6 0;
#X connect 1 0 2 0;
#X connect 2 0 3 0;
#X connect 2 0 4 0;
#X connect 3 0 2 1;
#X connect 4 0 0 0;
#X connect 4 0 13 0;
#X connect 13 1 14 0;
#X coords 0 -1 1 1 750 300 2 100 100;
#X restore 200 77 pd SequencerWind;
#N canvas 198 40 989 688 pad1 0;
#X obj 287 299 soundfiler;
#X floatatom 287 321 5 0 0 0 - - -;
#X obj 287 343 expr 44100 / $f1;
#X floatatom 285 380 5 0 0 0 - - -;
#X obj 283 495 *~;
#X obj 431 336 expr $f1 / 44100 * 1000;
#X floatatom 431 373 10 0 0 0 - - -;
#X obj 400 472 delay;
#X msg 347 487 0;
#X obj 286 188 loadbang;
#X obj 225 354 bng 15 250 50 0 empty empty empty 17 7 0 10 -262144
-1 -1;
#X msg 389 370 0;
#X obj 283 462 phasor~;
#N canvas 0 23 450 278 (subpatch) 0;
#X array pad1 671482 float 2;
#X coords 0 1 671482 -1 200 140 1 0 0;
#X restore 93 639 graph;
#X obj 280 596 outlet~;
#X obj 225 324 inlet;
#X msg 286 253 read -resize \$1 pad1;
#X obj 283 531 tabread4~ pad1;
#X msg 286 225 open Muestras/pads/pad1.wav;
#X obj 109 176 hsl 80 15 0 1 0 0 empty empty Pitch -2 -8 0 10 -262144
-1 -1 0 0;
#X obj 207 120 vsl 15 70 0 1 0 0 empty empty Volume 0 -9 0 10 -262144
-1 -1 0 0;
#X obj 198 575 *~;
#X obj 149 119 bng 15 250 50 0 empty empty Triger 17 7 0 10 -262144
-1 -1;
#X obj 148 145 bng 15 250 50 0 empty empty Stop 17 7 0 10 -262144 -1
-1;
#X obj 207 67 receive volpad1;
#X obj 106 82 receive pitchpad1;
#X obj 151 394 *;
#X obj 111 393 *;
#X msg 166 369 0.5;
#X msg 126 370 1.5;
#X obj 41 418 expr $f1 * ($f2-$f3) + $f3;
#X obj 208 19 loadbang;
#X obj 224 218 delay;
#X msg 271 161 500;
#X msg 208 40 0.1;
#X text 110 103 beeeep;
#X connect 0 0 1 0;
#X connect 1 0 2 0;
#X connect 1 0 4 1;
#X connect 1 0 5 0;
#X connect 2 0 3 0;
#X connect 3 0 12 0;
#X connect 3 0 26 0;
#X connect 3 0 27 0;
#X connect 4 0 17 0;
#X connect 5 0 6 0;
#X connect 6 0 7 1;
#X connect 7 0 8 0;
#X connect 8 0 12 0;
#X connect 8 0 12 1;
#X connect 9 0 18 0;
#X connect 9 0 10 0;
#X connect 9 0 29 0;
#X connect 9 0 28 0;
#X connect 9 0 32 0;
#X connect 10 0 3 0;
#X connect 10 0 11 0;
#X connect 11 0 12 1;
#X connect 12 0 4 0;
#X connect 15 0 10 0;
#X connect 16 0 0 0;
#X connect 17 0 21 0;
#X connect 18 0 16 0;
#X connect 19 0 30 0;
#X connect 20 0 21 1;
#X connect 21 0 14 0;
#X connect 22 0 18 0;
#X connect 22 0 10 0;
#X connect 22 0 29 0;
#X connect 22 0 28 0;
#X connect 23 0 8 0;
#X connect 24 0 20 0;
#X connect 25 0 19 0;
#X connect 26 0 30 2;
#X connect 27 0 30 1;
#X connect 28 0 26 1;
#X connect 29 0 27 1;
#X connect 30 0 12 0;
#X connect 31 0 34 0;
#X connect 32 0 22 0;
#X connect 33 0 32 1;
#X connect 34 0 20 0;
#X coords 0 -1 1 1 150 100 2 100 100;
#X restore 268 384 pd pad1;
#X obj 90 843 dac~;
#N canvas 204 89 989 688 pad2 0;
#X obj 287 299 soundfiler;
#X floatatom 287 321 5 0 0 0 - - -;
#X obj 287 343 expr 44100 / $f1;
#X floatatom 285 380 5 0 0 0 - - -;
#X obj 283 495 *~;
#X obj 431 336 expr $f1 / 44100 * 1000;
#X floatatom 431 373 10 0 0 0 - - -;
#X obj 400 472 delay;
#X msg 347 487 0;
#X obj 286 188 loadbang;
#X obj 225 354 bng 15 250 50 0 empty empty empty 17 7 0 10 -262144
-1 -1;
#X msg 389 370 0;
#X obj 283 462 phasor~;
#N canvas 0 23 450 278 (subpatch) 0;
#X array pad2 1.16343e+006 float 2;
#X coords 0 1 1.16343e+006 -1 200 140 1 0 0;
#X restore 120 665 graph;
#X obj 280 596 outlet~;
#X obj 225 324 inlet;
#X obj 109 176 hsl 80 15 0 1 0 0 empty empty Pitch -2 -8 0 10 -262144
-1 -1 2277 0;
#X obj 207 120 vsl 15 70 0 1 0 0 empty empty Volume 0 -9 0 10 -262144
-1 -1 4306 0;
#X obj 198 575 *~;
#X msg 286 253 read -resize \$1 pad2;
#X obj 283 531 tabread4~ pad2;
#X msg 286 225 open Muestras/pads/pad2.wav;
#X obj 149 119 bng 15 250 50 0 empty empty Triger 17 7 0 10 -262144
-1 -1;
#X obj 148 145 bng 15 250 50 0 empty empty Stop 17 7 0 10 -262144 -1
-1;
#X obj 207 67 receive volpad2;
#X obj 106 82 receive pitchpad2;
#X obj 150 395 *;
#X obj 110 394 *;
#X msg 165 370 0.5;
#X msg 125 371 1.5;
#X obj 40 419 expr $f1 * ($f2-$f3) + $f3;
#X obj 208 19 loadbang;
#X obj 224 218 delay;
#X msg 271 161 500;
#X msg 208 40 0.2;
#X text 111 102 cry adult;
#X connect 0 0 1 0;
#X connect 1 0 2 0;
#X connect 1 0 4 1;
#X connect 1 0 5 0;
#X connect 2 0 3 0;
#X connect 3 0 12 0;
#X connect 3 0 27 0;
#X connect 3 0 26 0;
#X connect 4 0 20 0;
#X connect 5 0 6 0;
#X connect 6 0 7 1;
#X connect 7 0 8 0;
#X connect 8 0 12 0;
#X connect 8 0 12 1;
#X connect 9 0 21 0;
#X connect 9 0 10 0;
#X connect 9 0 29 0;
#X connect 9 0 28 0;
#X connect 9 0 32 0;
#X connect 10 0 3 0;
#X connect 10 0 11 0;
#X connect 11 0 12 1;
#X connect 12 0 4 0;
#X connect 15 0 10 0;
#X connect 16 0 30 0;
#X connect 17 0 18 1;
#X connect 18 0 14 0;
#X connect 19 0 0 0;
#X connect 20 0 18 0;
#X connect 21 0 19 0;
#X connect 22 0 21 0;
#X connect 22 0 10 0;
#X connect 22 0 29 0;
#X connect 22 0 28 0;
#X connect 23 0 8 0;
#X connect 24 0 17 0;
#X connect 25 0 16 0;
#X connect 26 0 30 2;
#X connect 27 0 30 1;
#X connect 28 0 26 1;
#X connect 29 0 27 1;
#X connect 30 0 12 0;
#X connect 31 0 34 0;
#X connect 32 0 22 0;
#X connect 33 0 32 1;
#X connect 34 0 17 0;
#X coords 0 -1 1 1 150 100 2 100 100;
#X restore 432 383 pd pad2;
#N canvas 204 89 989 688 pad3 0;
#X obj 287 299 soundfiler;
#X floatatom 287 321 5 0 0 0 - - -;
#X obj 287 343 expr 44100 / $f1;
#X floatatom 285 380 5 0 0 0 - - -;
#X obj 283 495 *~;
#X obj 431 336 expr $f1 / 44100 * 1000;
#X floatatom 431 373 10 0 0 0 - - -;
#X obj 400 472 delay;
#X msg 347 487 0;
#X obj 286 187 loadbang;
#X obj 225 354 bng 15 250 50 0 empty empty empty 17 7 0 10 -262144
-1 -1;
#X msg 389 370 0;
#X obj 283 462 phasor~;
#N canvas 0 23 450 278 (subpatch) 0;
#X array pad3 740880 float 2;
#X coords 0 1 740880 -1 200 140 1 0 0;
#X restore 120 665 graph;
#X obj 280 596 outlet~;
#X obj 225 324 inlet;
#X obj 109 176 hsl 80 15 0 1 0 0 empty empty Pitch -2 -8 0 10 -262144
-1 -1 2277 0;
#X obj 207 120 vsl 15 70 0 1 0 0 empty empty Volume 0 -9 0 10 -262144
-1 -1 1380 0;
#X obj 198 575 *~;
#X obj 149 119 bng 15 250 50 0 empty empty Triger 17 7 0 10 -262144
-1 -1;
#X obj 148 145 bng 15 250 50 0 empty empty Stop 17 7 0 10 -262144 -1
-1;
#X msg 286 225 open Muestras/pads/pad3.wav;
#X obj 283 531 tabread4~ pad3;
#X msg 286 253 read -resize \$1 pad3;
#X obj 207 67 receive volpad3;
#X obj 106 82 receive pitchpad3;
#X obj 151 394 *;
#X obj 111 393 *;
#X msg 166 369 0.5;
#X msg 126 370 1.5;
#X obj 41 418 expr $f1 * ($f2-$f3) + $f3;
#X obj 208 19 loadbang;
#X obj 224 218 delay;
#X msg 271 161 500;
#X msg 208 40 0.2;
#X text 108 101 3 cry baby;
#X connect 0 0 1 0;
#X connect 1 0 2 0;
#X connect 1 0 4 1;
#X connect 1 0 5 0;
#X connect 2 0 3 0;
#X connect 3 0 12 0;
#X connect 3 0 27 0;
#X connect 3 0 26 0;
#X connect 4 0 22 0;
#X connect 5 0 6 0;
#X connect 6 0 7 1;
#X connect 7 0 8 0;
#X connect 8 0 12 0;
#X connect 8 0 12 1;
#X connect 9 0 21 0;
#X connect 9 0 10 0;
#X connect 9 0 29 0;
#X connect 9 0 28 0;
#X connect 9 0 32 0;
#X connect 10 0 3 0;
#X connect 10 0 11 0;
#X connect 11 0 12 1;
#X connect 12 0 4 0;
#X connect 15 0 10 0;
#X connect 16 0 30 0;
#X connect 17 0 18 1;
#X connect 18 0 14 0;
#X connect 19 0 21 0;
#X connect 19 0 10 0;
#X connect 19 0 29 0;
#X connect 19 0 28 0;
#X connect 20 0 8 0;
#X connect 21 0 23 0;
#X connect 22 0 18 0;
#X connect 23 0 0 0;
#X connect 24 0 17 0;
#X connect 25 0 16 0;
#X connect 26 0 30 2;
#X connect 27 0 30 1;
#X connect 28 0 26 1;
#X connect 29 0 27 1;
#X connect 30 0 12 0;
#X connect 31 0 34 0;
#X connect 32 0 19 0;
#X connect 33 0 32 1;
#X connect 34 0 17 0;
#X coords 0 -1 1 1 150 100 2 100 100;
#X restore 603 384 pd pad3;
#N canvas 204 89 989 688 pad4 0;
#X obj 287 299 soundfiler;
#X floatatom 287 321 5 0 0 0 - - -;
#X obj 287 343 expr 44100 / $f1;
#X floatatom 285 380 5 0 0 0 - - -;
#X obj 283 495 *~;
#X obj 431 336 expr $f1 / 44100 * 1000;
#X floatatom 431 373 10 0 0 0 - - -;
#X obj 400 472 delay;
#X msg 347 487 0;
#X obj 286 188 loadbang;
#X obj 225 354 bng 15 250 50 0 empty empty empty 17 7 0 10 -262144
-1 -1;
#X msg 389 370 0;
#X obj 283 462 phasor~;
#N canvas 0 23 450 278 (subpatch) 0;
#X array pad4 607706 float 2;
#X coords 0 1 607706 -1 200 140 1 0 0;
#X restore 120 665 graph;
#X obj 280 596 outlet~;
#X obj 225 324 inlet;
#X obj 109 176 hsl 80 15 0 1 0 0 empty empty Pitch -2 -8 0 10 -262144
-1 -1 4931 0;
#X obj 207 120 vsl 15 70 0 1 0 0 empty empty Volume 0 -9 0 10 -262144
-1 -1 4076 0;
#X obj 198 575 *~;
#X obj 149 119 bng 15 250 50 0 empty empty Triger 17 7 0 10 -262144
-1 -1;
#X obj 148 145 bng 15 250 50 0 empty empty Stop 17 7 0 10 -262144 -1
-1;
#X msg 286 225 open Muestras/pads/pad4.wav;
#X msg 286 253 read -resize \$1 pad4;
#X obj 283 531 tabread4~ pad4;
#X obj 207 67 receive volpad4;
#X obj 106 82 receive pitchpad4;
#X obj 151 394 *;
#X obj 111 393 *;
#X msg 166 369 0.5;
#X msg 126 370 1.5;
#X obj 41 418 expr $f1 * ($f2-$f3) + $f3;
#X obj 208 19 loadbang;
#X obj 224 218 delay;
#X msg 271 161 500;
#X msg 208 40 0.2;
#X text 105 102 4 choke;
#X connect 0 0 1 0;
#X connect 1 0 2 0;
#X connect 1 0 4 1;
#X connect 1 0 5 0;
#X connect 2 0 3 0;
#X connect 3 0 12 0;
#X connect 3 0 27 0;
#X connect 3 0 26 0;
#X connect 4 0 23 0;
#X connect 5 0 6 0;
#X connect 6 0 7 1;
#X connect 7 0 8 0;
#X connect 8 0 12 0;
#X connect 8 0 12 1;
#X connect 9 0 21 0;
#X connect 9 0 10 0;
#X connect 9 0 29 0;
#X connect 9 0 28 0;
#X connect 9 0 32 0;
#X connect 10 0 3 0;
#X connect 10 0 11 0;
#X connect 11 0 12 1;
#X connect 12 0 4 0;
#X connect 15 0 10 0;
#X connect 16 0 30 0;
#X connect 17 0 18 1;
#X connect 18 0 14 0;
#X connect 19 0 21 0;
#X connect 19 0 10 0;
#X connect 19 0 29 0;
#X connect 19 0 28 0;
#X connect 20 0 8 0;
#X connect 21 0 22 0;
#X connect 22 0 0 0;
#X connect 23 0 18 0;
#X connect 24 0 17 0;
#X connect 25 0 16 0;
#X connect 26 0 30 2;
#X connect 27 0 30 1;
#X connect 28 0 26 1;
#X connect 29 0 27 1;
#X connect 30 0 12 0;
#X connect 31 0 34 0;
#X connect 32 0 19 0;
#X connect 33 0 32 1;
#X connect 34 0 17 0;
#X coords 0 -1 1 1 150 100 2 100 100;
#X restore 769 384 pd pad4;
#X obj 268 507 lop~;
#X obj 432 506 lop~;
#X obj 452 486 hsl 128 15 20 20000 1 0 empty empty empty -2 -8 0 10
-262144 -1 -1 10413 0;
#X obj 7 100 r~ samples1;
#X obj 24 121 r~ samples2;
#X obj 46 143 r~ samples3;
#X obj 62 165 r~ samples4;
#X obj 288 487 hsl 128 15 20 20000 1 0 empty empty empty -2 -8 0 10
-262144 -1 -1 10413 0;
#X obj 603 511 lop~;
#X obj 623 488 hsl 128 15 20 20000 1 0 empty empty empty -2 -8 0 10
-262144 -1 -1 10413 0;
#X obj 769 510 lop~;
#X obj 790 489 hsl 128 15 20 20000 1 0 empty empty empty -2 -8 0 10
-262144 -1 -1 11732 0;
#X obj 212 383 loadbang;
#X msg 212 470 20000;
#X obj 74 186 r~ samples5;
#N canvas 268 131 730 451 modulation 1;
#X obj 91 21 inlet;
#X obj 224 23 inlet;
#X obj 162 22 inlet;
#N canvas 263 155 450 300 secuencia1 0;
#X msg 50 38 1;
#X obj 50 60 bng 15 250 50 0 empty empty empty 17 7 0 10 -262144 -1
-1;
#X obj 97 157 moses;
#X msg 124 128 5;
#X floatatom 149 35 5 0 0 0 - - -;
#X obj 98 63 random 10;
#X obj 50 106 until;
#X msg 50 81 16;
#X msg 18 106 0;
#X obj 50 132 i;
#X obj 78 133 + 1;
#X msg 97 184 1;
#X msg 124 184 0;
#X obj 50 157 bng 15 250 50 0 empty empty empty 17 7 0 10 -262144 -1
-1;
#X obj 50 11 inlet;
#X obj 149 8 inlet;
#X obj 124 97 loadbang;
#X obj 33 218 tabwrite Instrumento1;
#X connect 0 0 1 0;
#X connect 1 0 7 0;
#X connect 2 0 11 0;
#X connect 2 1 12 0;
#X connect 3 0 2 1;
#X connect 4 0 5 1;
#X connect 5 0 2 0;
#X connect 6 0 9 0;
#X connect 7 0 6 0;
#X connect 7 0 8 0;
#X connect 8 0 9 1;
#X connect 9 0 10 0;
#X connect 9 0 13 0;
#X connect 9 0 17 1;
#X connect 10 0 9 1;
#X connect 11 0 17 0;
#X connect 12 0 17 0;
#X connect 13 0 5 0;
#X connect 14 0 0 0;
#X connect 15 0 4 0;
#X connect 16 0 3 0;
#X restore 26 250 pd secuencia1;
#N canvas 155 98 450 300 secuencia2 0;
#X msg 50 38 1;
#X obj 50 60 bng 15 250 50 0 empty empty empty 17 7 0 10 -262144 -1
-1;
#X obj 97 157 moses;
#X msg 124 128 5;
#X floatatom 149 35 5 0 0 0 - - -;
#X obj 98 63 random 10;
#X obj 50 106 until;
#X msg 50 81 16;
#X msg 18 106 0;
#X obj 50 132 i;
#X obj 78 133 + 1;
#X msg 97 184 1;
#X msg 124 184 0;
#X obj 50 157 bng 15 250 50 0 empty empty empty 17 7 0 10 -262144 -1
-1;
#X obj 33 218 tabwrite Instrumento2;
#X obj 50 11 inlet;
#X obj 149 8 inlet;
#X obj 124 101 loadbang;
#X connect 0 0 1 0;
#X connect 1 0 7 0;
#X connect 2 0 11 0;
#X connect 2 1 12 0;
#X connect 3 0 2 1;
#X connect 4 0 5 1;
#X connect 5 0 2 0;
#X connect 6 0 9 0;
#X connect 7 0 6 0;
#X connect 7 0 8 0;
#X connect 8 0 9 1;
#X connect 9 0 10 0;
#X connect 9 0 13 0;
#X connect 9 0 14 1;
#X connect 10 0 9 1;
#X connect 11 0 14 0;
#X connect 12 0 14 0;
#X connect 13 0 5 0;
#X connect 15 0 0 0;
#X connect 16 0 4 0;
#X connect 17 0 3 0;
#X restore 33 271 pd secuencia2;
#X obj 18 224 receive modtriger;
#X floatatom 20 200 5 0 0 0 - - -;
#X obj 198 152 send vol1;
#X obj 209 173 send vol2;
#X obj 199 195 send vol3;
#X obj 210 217 send vol4;
#X obj 198 239 send vol5;
#N canvas 121 136 450 300 secuencia3 0;
#X msg 50 38 1;
#X obj 50 60 bng 15 250 50 0 empty empty empty 17 7 0 10 -262144 -1
-1;
#X obj 97 157 moses;
#X msg 124 128 5;
#X floatatom 149 35 5 0 0 0 - - -;
#X obj 98 63 random 10;
#X obj 50 106 until;
#X msg 50 81 16;
#X msg 18 106 0;
#X obj 50 132 i;
#X obj 78 133 + 1;
#X msg 97 184 1;
#X msg 124 184 0;
#X obj 50 157 bng 15 250 50 0 empty empty empty 17 7 0 10 -262144 -1
-1;
#X obj 50 11 inlet;
#X obj 149 8 inlet;
#X obj 124 101 loadbang;
#X obj 33 218 tabwrite Instrumento3;
#X connect 0 0 1 0;
#X connect 1 0 7 0;
#X connect 2 0 11 0;
#X connect 2 1 12 0;
#X connect 3 0 2 1;
#X connect 4 0 5 1;
#X connect 5 0 2 0;
#X connect 6 0 9 0;
#X connect 7 0 6 0;
#X connect 7 0 8 0;
#X connect 8 0 9 1;
#X connect 9 0 10 0;
#X connect 9 0 13 0;
#X connect 9 0 17 1;
#X connect 10 0 9 1;
#X connect 11 0 17 0;
#X connect 12 0 17 0;
#X connect 13 0 5 0;
#X connect 14 0 0 0;
#X connect 15 0 4 0;
#X connect 16 0 3 0;
#X restore 25 292 pd secuencia3;
#N canvas 121 136 450 300 secuencia4 0;
#X msg 50 38 1;
#X obj 50 60 bng 15 250 50 0 empty empty empty 17 7 0 10 -262144 -1
-1;
#X obj 97 157 moses;
#X msg 124 128 5;
#X floatatom 149 35 5 0 0 0 - - -;
#X obj 98 63 random 10;
#X obj 50 106 until;
#X msg 50 81 16;
#X msg 18 106 0;
#X obj 50 132 i;
#X obj 78 133 + 1;
#X msg 97 184 1;
#X msg 124 184 0;
#X obj 50 157 bng 15 250 50 0 empty empty empty 17 7 0 10 -262144 -1
-1;
#X obj 50 11 inlet;
#X obj 149 8 inlet;
#X obj 124 101 loadbang;
#X obj 33 218 tabwrite Instrumento4;
#X connect 0 0 1 0;
#X connect 1 0 7 0;
#X connect 2 0 11 0;
#X connect 2 1 12 0;
#X connect 3 0 2 1;
#X connect 4 0 5 1;
#X connect 5 0 2 0;
#X connect 6 0 9 0;
#X connect 7 0 6 0;
#X connect 7 0 8 0;
#X connect 8 0 9 1;
#X connect 9 0 10 0;
#X connect 9 0 13 0;
#X connect 9 0 17 1;
#X connect 10 0 9 1;
#X connect 11 0 17 0;
#X connect 12 0 17 0;
#X connect 13 0 5 0;
#X connect 14 0 0 0;
#X connect 15 0 4 0;
#X connect 16 0 3 0;
#X restore 33 314 pd secuencia4;
#N canvas 121 136 450 300 secuencia5 0;
#X msg 50 38 1;
#X obj 50 60 bng 15 250 50 0 empty empty empty 17 7 0 10 -262144 -1
-1;
#X obj 97 157 moses;
#X msg 124 128 5;
#X floatatom 149 35 5 0 0 0 - - -;
#X obj 98 63 random 10;
#X obj 50 106 until;
#X msg 50 81 16;
#X msg 18 106 0;
#X obj 50 132 i;
#X obj 78 133 + 1;
#X msg 97 184 1;
#X msg 124 184 0;
#X obj 50 157 bng 15 250 50 0 empty empty empty 17 7 0 10 -262144 -1
-1;
#X obj 50 11 inlet;
#X obj 149 8 inlet;
#X obj 124 101 loadbang;
#X obj 33 218 tabwrite Instrumento5;
#X connect 0 0 1 0;
#X connect 1 0 7 0;
#X connect 2 0 11 0;
#X connect 2 1 12 0;
#X connect 3 0 2 1;
#X connect 4 0 5 1;
#X connect 5 0 2 0;
#X connect 6 0 9 0;
#X connect 7 0 6 0;
#X connect 7 0 8 0;
#X connect 8 0 9 1;
#X connect 9 0 10 0;
#X connect 9 0 13 0;
#X connect 9 0 17 1;
#X connect 10 0 9 1;
#X connect 11 0 17 0;
#X connect 12 0 17 0;
#X connect 13 0 5 0;
#X connect 14 0 0 0;
#X connect 15 0 4 0;
#X connect 16 0 3 0;
#X restore 24 336 pd secuencia5;
#X obj 333 154 send volpad1;
#X obj 343 174 send volpad2;
#X obj 337 197 send volpad3;
#X obj 345 220 send volpad4;
#X obj 436 154 send pitchpad1;
#X obj 447 176 send pitchpad2;
#X obj 438 197 send pitchpad3;
#X obj 448 219 send pitchpad4;
#X obj 224 52 s toggle;
#X obj 208 261 send vol6;
#X obj 197 284 send vol7;
#X obj 211 306 send vol8;
#N canvas 121 136 450 300 secuencia6 0;
#X msg 50 38 1;
#X obj 50 60 bng 15 250 50 0 empty empty empty 17 7 0 10 -262144 -1
-1;
#X obj 97 157 moses;
#X msg 124 128 5;
#X floatatom 149 35 5 0 0 0 - - -;
#X obj 98 63 random 10;
#X obj 50 106 until;
#X msg 50 81 16;
#X msg 18 106 0;
#X obj 50 132 i;
#X obj 78 133 + 1;
#X msg 97 184 1;
#X msg 124 184 0;
#X obj 50 157 bng 15 250 50 0 empty empty empty 17 7 0 10 -262144 -1
-1;
#X obj 50 11 inlet;
#X obj 149 8 inlet;
#X obj 124 101 loadbang;
#X obj 33 218 tabwrite Instrumento6;
#X connect 0 0 1 0;
#X connect 1 0 7 0;
#X connect 2 0 11 0;
#X connect 2 1 12 0;
#X connect 3 0 2 1;
#X connect 4 0 5 1;
#X connect 5 0 2 0;
#X connect 6 0 9 0;
#X connect 7 0 6 0;
#X connect 7 0 8 0;
#X connect 8 0 9 1;
#X connect 9 0 10 0;
#X connect 9 0 13 0;
#X connect 9 0 17 1;
#X connect 10 0 9 1;
#X connect 11 0 17 0;
#X connect 12 0 17 0;
#X connect 13 0 5 0;
#X connect 14 0 0 0;
#X connect 15 0 4 0;
#X connect 16 0 3 0;
#X restore 34 356 pd secuencia6;
#N canvas 121 136 450 300 secuencia7 0;
#X msg 50 38 1;
#X obj 50 60 bng 15 250 50 0 empty empty empty 17 7 0 10 -262144 -1
-1;
#X obj 97 157 moses;
#X msg 124 128 5;
#X floatatom 149 35 5 0 0 0 - - -;
#X obj 98 63 random 10;
#X obj 50 106 until;
#X msg 50 81 16;
#X msg 18 106 0;
#X obj 50 132 i;
#X obj 78 133 + 1;
#X msg 97 184 1;
#X msg 124 184 0;
#X obj 50 157 bng 15 250 50 0 empty empty empty 17 7 0 10 -262144 -1
-1;
#X obj 50 11 inlet;
#X obj 149 8 inlet;
#X obj 124 101 loadbang;
#X obj 33 218 tabwrite Instrumento7;
#X connect 0 0 1 0;
#X connect 1 0 7 0;
#X connect 2 0 11 0;
#X connect 2 1 12 0;
#X connect 3 0 2 1;
#X connect 4 0 5 1;
#X connect 5 0 2 0;
#X connect 6 0 9 0;
#X connect 7 0 6 0;
#X connect 7 0 8 0;
#X connect 8 0 9 1;
#X connect 9 0 10 0;
#X connect 9 0 13 0;
#X connect 9 0 17 1;
#X connect 10 0 9 1;
#X connect 11 0 17 0;
#X connect 12 0 17 0;
#X connect 13 0 5 0;
#X connect 14 0 0 0;
#X connect 15 0 4 0;
#X connect 16 0 3 0;
#X restore 24 376 pd secuencia7;
#N canvas 121 136 450 300 secuencia8 0;
#X msg 50 38 1;
#X obj 50 60 bng 15 250 50 0 empty empty empty 17 7 0 10 -262144 -1
-1;
#X obj 97 157 moses;
#X msg 124 128 5;
#X floatatom 149 35 5 0 0 0 - - -;
#X obj 98 63 random 10;
#X obj 50 106 until;
#X msg 50 81 16;
#X msg 18 106 0;
#X obj 50 132 i;
#X obj 78 133 + 1;
#X msg 97 184 1;
#X msg 124 184 0;
#X obj 50 157 bng 15 250 50 0 empty empty empty 17 7 0 10 -262144 -1
-1;
#X obj 50 11 inlet;
#X obj 149 8 inlet;
#X obj 124 101 loadbang;
#X obj 33 218 tabwrite Instrumento8;
#X connect 0 0 1 0;
#X connect 1 0 7 0;
#X connect 2 0 11 0;
#X connect 2 1 12 0;
#X connect 3 0 2 1;
#X connect 4 0 5 1;
#X connect 5 0 2 0;
#X connect 6 0 9 0;
#X connect 7 0 6 0;
#X connect 7 0 8 0;
#X connect 8 0 9 1;
#X connect 9 0 10 0;
#X connect 9 0 13 0;
#X connect 9 0 17 1;
#X connect 10 0 9 1;
#X connect 11 0 17 0;
#X connect 12 0 17 0;
#X connect 13 0 5 0;
#X connect 14 0 0 0;
#X connect 15 0 4 0;
#X connect 16 0 3 0;
#X restore 41 396 pd secuencia8;
#X obj 390 303 s loppad1;
#X obj 397 322 s loppad2;
#X obj 390 342 s loppad3;
#X obj 397 361 s loppad4;
#X obj 373 277 *;
#X msg 388 256 20000;
#X obj 574 252 *;
#X msg 589 230 20000;
#X obj 454 276 *;
#X msg 469 255 20000;
#X floatatom 55 201 5 0 0 0 - - -;
#X floatatom 90 201 5 0 0 0 - - -;
#X text 12 3 homicidio - suicidio - transporte - togle;
#X obj 577 275 s volmusic;
#X obj 584 296 s lopmusic;
#X obj 577 317 s revmusic;
#X msg 16 158 150;
#X obj 16 178 -;
#X obj 16 138 *;
#X msg 16 117 140;
#X msg 55 159 150;
#X obj 55 179 -;
#X obj 55 139 *;
#X msg 55 118 140;
#X obj 325 74 loadbang;
#X floatatom 190 393 5 0 0 0 - - -;
#X floatatom 229 395 5 0 0 0 - - -;
#X floatatom 276 393 5 0 0 0 - - -;
#X obj 159 417 s tempomod;
#X obj 24 21 inlet;
#X obj 383 131 -;
#X msg 404 95 0.5;
#X obj 22 69 expr $f1*2-1;
#X connect 0 0 18 0;
#X connect 0 0 38 0;
#X connect 0 0 56 0;
#X connect 1 0 23 0;
#X connect 2 0 9 0;
#X connect 2 0 16 0;
#X connect 2 0 22 0;
#X connect 2 0 57 0;
#X connect 2 0 52 1;
#X connect 5 0 4 0;
#X connect 5 0 12 0;
#X connect 5 0 13 0;
#X connect 5 0 14 0;
#X connect 6 0 4 1;
#X connect 6 0 13 1;
#X connect 6 0 14 1;
#X connect 34 0 30 0;
#X connect 34 0 31 0;
#X connect 34 0 32 0;
#X connect 35 0 34 1;
#X connect 36 0 44 0;
#X connect 37 0 36 1;
#X connect 38 0 33 0;
#X connect 39 0 38 1;
#X connect 40 0 12 1;
#X connect 46 0 47 0;
#X connect 47 0 6 0;
#X connect 48 0 47 1;
#X connect 49 0 48 0;
#X connect 50 0 51 0;
#X connect 51 0 40 0;
#X connect 52 0 51 1;
#X connect 53 0 52 0;
#X connect 54 0 49 0;
#X connect 54 0 53 0;
#X connect 54 0 35 0;
#X connect 54 0 39 0;
#X connect 54 0 37 0;
#X connect 54 0 46 0;
#X connect 54 0 50 0;
#X connect 54 0 61 0;
#X connect 59 0 62 0;
#X connect 60 0 15 0;
#X connect 61 0 60 1;
#X connect 62 0 8 0;
#X connect 62 0 10 0;
#X connect 62 0 20 0;
#X connect 62 0 55 0;
#X connect 62 0 48 1;
#X connect 62 0 7 0;
#X connect 62 0 11 0;
#X connect 62 0 24 0;
#X connect 62 0 21 0;
#X connect 62 0 43 0;
#X connect 62 0 36 0;
#X connect 62 0 45 0;
#X connect 62 0 34 0;
#X connect 62 0 58 0;
#X connect 62 0 60 0;
#X restore 19 38 pd modulation;
#N canvas 0 23 505 323 music 1;
#X msg 208 59 open Muestras/m/m1.wav;
#X obj 208 105 readsf~;
#X msg 232 79 1;
#X msg 264 79 0;
#X obj 144 140 hsl 50 15 0 1 0 0 empty empty Dry -2 -8 0 10 -262144
-1 -1 4900 1;
#X obj 143 172 hsl 50 15 0 1 0 0 empty empty wet -2 -8 0 10 -262144
-1 -1 4900 1;
#X obj 144 204 hsl 50 15 0 1 0 0 empty empty roomsize -2 -8 0 10 -262144
-1 -1 1413 1;
#X obj 209 22 r toggle;
#X obj 209 42 bng 15 250 50 0 empty empty empty 17 7 0 10 -262144 -1
-1;
#X obj 211 295 outlet~;
#X obj 157 228 bng 15 250 50 0 empty empty stop 17 7 0 10 -262144 -1
-1;
#X obj 105 228 bng 15 250 50 0 empty empty start 17 7 0 10 -262144
-1 -1;
#X obj 106 129 vsl 15 90 0 1 0 0 empty empty volume 0 -9 0 10 -262144
-1 -1 2566 1;
#X obj 211 271 lop~;
#X obj 109 260 hsl 80 15 20 20000 1 0 empty empty LOP -2 -8 0 10 -262144
-1 -1 6478 1;
#X msg 107 60 1;
#X obj 107 34 loadbang;
#X msg 136 60 20000;
#X obj 18 77 r volmusic;
#X obj 19 103 r lopmusic;
#X obj 20 126 r revmusic;
#X obj 10 172 -;
#X msg 10 147 1;
#X connect 0 0 1 0;
#X connect 0 0 2 0;
#X connect 1 0 13 0;
#X connect 2 0 1 0;
#X connect 3 0 1 0;
#X connect 7 0 8 0;
#X connect 8 0 0 0;
#X connect 10 0 3 0;
#X connect 11 0 8 0;
#X connect 13 0 9 0;
#X connect 14 0 13 1;
#X connect 15 0 4 0;
#X connect 15 0 5 0;
#X connect 15 0 12 0;
#X connect 16 0 15 0;
#X connect 16 0 17 0;
#X connect 16 0 8 0;
#X connect 17 0 14 0;
#X connect 18 0 12 0;
#X connect 19 0 14 0;
#X connect 20 0 6 0;
#X connect 20 0 21 1;
#X connect 21 0 4 0;
#X connect 22 0 21 0;
#X coords 0 -1 1 1 100 180 1 100 100;
#X restore 595 658 pd music;
#X obj 85 206 r~ samples6;
#X obj 100 227 r~ samples7;
#X obj 114 245 r~ samples8;
#X obj 150 383 r loppad1;
#X obj 150 403 r loppad2;
#X obj 150 423 r loppad3;
#X obj 149 443 r loppad4;
#X msg 336 37 \; pd dsp 0;
#X obj 336 9 bng 15 250 50 0 empty empty empty 17 7 0 10 -262144 -1
-1;
#X connect 1 0 23 0;
#X connect 1 1 23 1;
#X connect 1 2 23 2;
#X connect 1 3 23 3;
#X connect 3 0 8 0;
#X connect 5 0 9 0;
#X connect 6 0 16 0;
#X connect 7 0 18 0;
#X connect 8 0 4 0;
#X connect 8 0 4 1;
#X connect 9 0 4 0;
#X connect 9 0 4 1;
#X connect 10 0 9 1;
#X connect 11 0 4 0;
#X connect 11 0 4 1;
#X connect 12 0 4 0;
#X connect 12 0 4 1;
#X connect 13 0 4 0;
#X connect 13 0 4 1;
#X connect 14 0 4 0;
#X connect 14 0 4 1;
#X connect 15 0 8 1;
#X connect 16 0 4 0;
#X connect 16 0 4 1;
#X connect 17 0 16 1;
#X connect 18 0 4 0;
#X connect 18 0 4 1;
#X connect 19 0 18 1;
#X connect 20 0 21 0;
#X connect 21 0 15 0;
#X connect 21 0 10 0;
#X connect 21 0 17 0;
#X connect 21 0 19 0;
#X connect 22 0 4 0;
#X connect 22 0 4 1;
#X connect 24 0 4 0;
#X connect 24 0 4 1;
#X connect 25 0 4 0;
#X connect 25 0 4 1;
#X connect 28 0 15 0;
#X connect 29 0 10 0;
#X connect 30 0 17 0;
#X connect 31 0 19 0;
#X connect 33 0 32 0;
