#N canvas 478 124 1035 682 10;
#X declare -lib mrpeach;
#X obj 65 217 import mrpeach;
#X obj 67 249 udpreceive 9001;
#X obj 67 279 unpackOSC;
#X obj 66 357 unpack f f;
#X obj 407 253 mtof~;
#X floatatom 532 229 5 0 0 0 - - -;
#X obj 532 268 osc~;
#X obj 533 320 *~;
#X floatatom 568 286 5 0 0 0 - - -;
#X obj 463 379 +~;
#X obj 466 418 osc~;
#X obj 467 463 *~;
#X obj 616 276 vsl 15 128 0 1 0 0 empty empty empty 0 -9 0 10 -262144
-1 -1 0 1;
#X obj 457 505 dac~;
#X obj 529 191 *;
#X obj 601 213 *;
#X obj 217 34 counter 3;
#X obj 276 56 route 1 2 3;
#X msg 430 130 51;
#X msg 393 131 50;
#X msg 467 119 56;
#X obj 106 -58 tgl 15 0 empty empty empty 17 7 0 10 -262144 -1 -1 0
1;
#X obj 198 2 bng 15 250 50 0 empty empty empty 17 7 0 10 -262144 -1
-1;
#X obj 210 -38 metro 500;
#X msg 348 134 44;
#X msg 358 -43 1000;
#X obj 388 32 *;
#X obj 68 324 routeOSC /test;
#X msg 587 168 1500;
#X msg 496 150 5;
#X connect 1 0 2 0;
#X connect 2 0 27 0;
#X connect 3 0 14 1;
#X connect 3 0 29 0;
#X connect 3 0 15 1;
#X connect 3 0 28 0;
#X connect 4 0 9 0;
#X connect 5 0 6 0;
#X connect 6 0 7 0;
#X connect 7 0 9 1;
#X connect 8 0 7 1;
#X connect 9 0 10 0;
#X connect 10 0 11 0;
#X connect 11 0 13 0;
#X connect 11 0 13 1;
#X connect 12 0 11 1;
#X connect 14 0 5 0;
#X connect 15 0 8 0;
#X connect 16 0 17 0;
#X connect 17 0 24 0;
#X connect 17 1 19 0;
#X connect 17 2 18 0;
#X connect 17 3 20 0;
#X connect 18 0 4 0;
#X connect 19 0 4 0;
#X connect 20 0 4 0;
#X connect 21 0 23 0;
#X connect 22 0 16 0;
#X connect 23 0 22 0;
#X connect 24 0 4 0;
#X connect 25 0 26 1;
#X connect 26 0 23 1;
#X connect 27 0 3 0;
#X connect 28 0 15 0;
#X connect 29 0 14 0;
